<svg width="417" height="220" viewBox="0 0 417 220" fill="none" xmlns="http://www.w3.org/2000/svg">
<path opacity="0.4" d="M260.232 6.72C262.019 6.72 263.365 6.98667 264.272 7.52C265.192 8.04 265.652 8.95333 265.652 10.26C265.652 11.1 265.419 11.8 264.952 12.36C264.485 12.9067 263.812 13.26 262.932 13.42V13.52C263.532 13.6133 264.072 13.7867 264.552 14.04C265.045 14.2933 265.432 14.6533 265.712 15.12C265.992 15.5867 266.132 16.1933 266.132 16.94C266.132 18.2333 265.685 19.2333 264.792 19.94C263.912 20.6467 262.705 21 261.172 21H256.152V6.72H260.232ZM260.592 12.8C261.819 12.8 262.659 12.6067 263.112 12.22C263.565 11.82 263.792 11.2333 263.792 10.46C263.792 9.67333 263.512 9.11333 262.952 8.78C262.405 8.43333 261.525 8.26 260.312 8.26H257.952V12.8H260.592ZM257.952 14.3V19.48H260.832C262.099 19.48 262.979 19.2333 263.472 18.74C263.965 18.2467 264.212 17.6 264.212 16.8C264.212 16.0533 263.952 15.4533 263.432 15C262.925 14.5333 262.012 14.3 260.692 14.3H257.952ZM272.98 10.1C274.286 10.1 275.253 10.3867 275.88 10.96C276.506 11.5333 276.82 12.4467 276.82 13.7V21H275.54L275.2 19.48H275.12C274.653 20.0667 274.16 20.5 273.64 20.78C273.133 21.06 272.426 21.2 271.52 21.2C270.546 21.2 269.74 20.9467 269.1 20.44C268.46 19.92 268.14 19.1133 268.14 18.02C268.14 16.9533 268.56 16.1333 269.4 15.56C270.24 14.9733 271.533 14.6533 273.28 14.6L275.1 14.54V13.9C275.1 13.0067 274.906 12.3867 274.52 12.04C274.133 11.6933 273.586 11.52 272.88 11.52C272.32 11.52 271.786 11.6067 271.28 11.78C270.773 11.94 270.3 12.1267 269.86 12.34L269.32 11.02C269.786 10.7667 270.34 10.5533 270.98 10.38C271.62 10.1933 272.286 10.1 272.98 10.1ZM273.5 15.82C272.166 15.8733 271.24 16.0867 270.72 16.46C270.213 16.8333 269.96 17.36 269.96 18.04C269.96 18.64 270.14 19.08 270.5 19.36C270.873 19.64 271.346 19.78 271.92 19.78C272.826 19.78 273.58 19.5333 274.18 19.04C274.78 18.5333 275.08 17.76 275.08 16.72V15.76L273.5 15.82ZM284.431 21.2C283.484 21.2 282.637 21.0067 281.891 20.62C281.157 20.2333 280.577 19.6333 280.151 18.82C279.737 18.0067 279.531 16.9667 279.531 15.7C279.531 14.38 279.751 13.3067 280.191 12.48C280.631 11.6533 281.224 11.0467 281.971 10.66C282.731 10.2733 283.591 10.08 284.551 10.08C285.097 10.08 285.624 10.14 286.131 10.26C286.637 10.3667 287.051 10.5 287.371 10.66L286.831 12.12C286.511 12 286.137 11.8867 285.711 11.78C285.284 11.6733 284.884 11.62 284.511 11.62C282.404 11.62 281.351 12.9733 281.351 15.68C281.351 16.9733 281.604 17.9667 282.111 18.66C282.631 19.34 283.397 19.68 284.411 19.68C284.997 19.68 285.511 19.62 285.951 19.5C286.404 19.38 286.817 19.2333 287.191 19.06V20.62C286.831 20.8067 286.431 20.9467 285.991 21.04C285.564 21.1467 285.044 21.2 284.431 21.2ZM291.48 13.74C291.48 13.9533 291.467 14.2333 291.44 14.58C291.427 14.9267 291.413 15.2267 291.4 15.48H291.48C291.56 15.3733 291.68 15.22 291.84 15.02C292 14.82 292.16 14.62 292.32 14.42C292.493 14.2067 292.64 14.0333 292.76 13.9L296.18 10.28H298.24L293.9 14.86L298.54 21H296.42L292.7 16L291.48 17.06V21H289.74V5.8H291.48V13.74ZM304.224 10.08C304.93 10.08 305.564 10.2133 306.124 10.48C306.697 10.7467 307.184 11.1533 307.584 11.7H307.684L307.924 10.28H309.324V21.18C309.324 22.7133 308.93 23.8667 308.144 24.64C307.37 25.4133 306.164 25.8 304.524 25.8C302.95 25.8 301.664 25.5733 300.664 25.12V23.5C301.717 24.06 303.037 24.34 304.624 24.34C305.544 24.34 306.264 24.0667 306.784 23.52C307.317 22.9867 307.584 22.2533 307.584 21.32V20.9C307.584 20.74 307.59 20.5133 307.604 20.22C307.617 19.9133 307.63 19.7 307.644 19.58H307.564C306.844 20.66 305.737 21.2 304.244 21.2C302.857 21.2 301.77 20.7133 300.984 19.74C300.21 18.7667 299.824 17.4067 299.824 15.66C299.824 13.9533 300.21 12.6 300.984 11.6C301.77 10.5867 302.85 10.08 304.224 10.08ZM304.464 11.56C303.57 11.56 302.877 11.92 302.384 12.64C301.89 13.3467 301.644 14.36 301.644 15.68C301.644 17 301.884 18.0133 302.364 18.72C302.857 19.4133 303.57 19.76 304.504 19.76C305.584 19.76 306.37 19.4733 306.864 18.9C307.357 18.3133 307.604 17.3733 307.604 16.08V15.66C307.604 14.1933 307.35 13.1467 306.844 12.52C306.337 11.88 305.544 11.56 304.464 11.56ZM317.728 10.08C317.928 10.08 318.142 10.0933 318.368 10.12C318.608 10.1333 318.815 10.16 318.988 10.2L318.768 11.82C318.595 11.78 318.402 11.7467 318.188 11.72C317.988 11.6933 317.795 11.68 317.608 11.68C317.062 11.68 316.548 11.8333 316.068 12.14C315.588 12.4333 315.202 12.8533 314.908 13.4C314.628 13.9333 314.488 14.56 314.488 15.28V21H312.728V10.28H314.168L314.368 12.24H314.448C314.795 11.6533 315.242 11.1467 315.788 10.72C316.335 10.2933 316.982 10.08 317.728 10.08ZM329.919 15.62C329.919 17.3933 329.466 18.7667 328.559 19.74C327.666 20.7133 326.453 21.2 324.919 21.2C323.973 21.2 323.126 20.9867 322.379 20.56C321.646 20.12 321.066 19.4867 320.639 18.66C320.213 17.82 319.999 16.8067 319.999 15.62C319.999 13.8467 320.446 12.48 321.339 11.52C322.233 10.56 323.446 10.08 324.979 10.08C325.953 10.08 326.806 10.3 327.539 10.74C328.286 11.1667 328.866 11.7933 329.279 12.62C329.706 13.4333 329.919 14.4333 329.919 15.62ZM321.819 15.62C321.819 16.8867 322.066 17.8933 322.559 18.64C323.066 19.3733 323.866 19.74 324.959 19.74C326.039 19.74 326.833 19.3733 327.339 18.64C327.846 17.8933 328.099 16.8867 328.099 15.62C328.099 14.3533 327.846 13.36 327.339 12.64C326.833 11.92 326.033 11.56 324.939 11.56C323.846 11.56 323.053 11.92 322.559 12.64C322.066 13.36 321.819 14.3533 321.819 15.62ZM341.669 10.28V21H340.229L339.969 19.58H339.889C339.542 20.14 339.062 20.5533 338.449 20.82C337.835 21.0733 337.182 21.2 336.489 21.2C335.195 21.2 334.222 20.8933 333.569 20.28C332.915 19.6533 332.589 18.66 332.589 17.3V10.28H334.369V17.18C334.369 18.8867 335.162 19.74 336.749 19.74C337.935 19.74 338.755 19.4067 339.209 18.74C339.675 18.0733 339.909 17.1133 339.909 15.86V10.28H341.669ZM350.232 10.08C351.512 10.08 352.479 10.3933 353.132 11.02C353.785 11.6333 354.112 12.6333 354.112 14.02V21H352.372V14.14C352.372 12.42 351.572 11.56 349.972 11.56C348.785 11.56 347.965 11.8933 347.512 12.56C347.059 13.2267 346.832 14.1867 346.832 15.44V21H345.072V10.28H346.492L346.752 11.74H346.852C347.199 11.18 347.679 10.7667 348.292 10.5C348.905 10.22 349.552 10.08 350.232 10.08ZM361.235 21.2C359.902 21.2 358.835 20.74 358.035 19.82C357.235 18.8867 356.835 17.5 356.835 15.66C356.835 13.82 357.235 12.4333 358.035 11.5C358.849 10.5533 359.922 10.08 361.255 10.08C362.082 10.08 362.755 10.2333 363.275 10.54C363.809 10.8467 364.242 11.22 364.575 11.66H364.695C364.682 11.4867 364.655 11.2333 364.615 10.9C364.589 10.5533 364.575 10.28 364.575 10.08V5.8H366.335V21H364.915L364.655 19.56H364.575C364.255 20.0133 363.829 20.4 363.295 20.72C362.762 21.04 362.075 21.2 361.235 21.2ZM361.515 19.74C362.649 19.74 363.442 19.4333 363.895 18.82C364.362 18.1933 364.595 17.2533 364.595 16V15.68C364.595 14.3467 364.375 13.3267 363.935 12.62C363.495 11.9 362.682 11.54 361.495 11.54C360.549 11.54 359.835 11.92 359.355 12.68C358.889 13.4267 358.655 14.4333 358.655 15.7C358.655 16.98 358.889 17.9733 359.355 18.68C359.835 19.3867 360.555 19.74 361.515 19.74Z" fill="#EBEBEB"/>
<path d="M263.873 71.1613L259.173 58.6413H259.093C259.133 59.0546 259.166 59.6146 259.193 60.3213C259.219 61.0146 259.233 61.7413 259.233 62.5013V71.1613H257.573V56.8813H260.233L264.633 68.5813H264.713L269.193 56.8813H271.833V71.1613H270.053V62.3813C270.053 61.6879 270.066 61.0013 270.093 60.3213C270.133 59.6413 270.166 59.0879 270.193 58.6613H270.113L265.353 71.1613H263.873ZM276.377 56.4213C276.644 56.4213 276.877 56.5146 277.077 56.7013C277.291 56.8746 277.397 57.1546 277.397 57.5413C277.397 57.9146 277.291 58.1946 277.077 58.3813C276.877 58.5679 276.644 58.6613 276.377 58.6613C276.084 58.6613 275.837 58.5679 275.637 58.3813C275.437 58.1946 275.337 57.9146 275.337 57.5413C275.337 57.1546 275.437 56.8746 275.637 56.7013C275.837 56.5146 276.084 56.4213 276.377 56.4213ZM277.237 60.4413V71.1613H275.477V60.4413H277.237ZM284.434 71.3613C283.1 71.3613 282.034 70.9013 281.234 69.9813C280.434 69.0479 280.034 67.6613 280.034 65.8213C280.034 63.9813 280.434 62.5946 281.234 61.6613C282.047 60.7146 283.12 60.2413 284.454 60.2413C285.28 60.2413 285.954 60.3946 286.474 60.7013C287.007 61.0079 287.44 61.3813 287.774 61.8213H287.894C287.88 61.6479 287.854 61.3946 287.814 61.0613C287.787 60.7146 287.774 60.4413 287.774 60.2413V55.9613H289.534V71.1613H288.114L287.854 69.7213H287.774C287.454 70.1746 287.027 70.5613 286.494 70.8813C285.96 71.2013 285.274 71.3613 284.434 71.3613ZM284.714 69.9013C285.847 69.9013 286.64 69.5946 287.094 68.9813C287.56 68.3546 287.794 67.4146 287.794 66.1613V65.8413C287.794 64.5079 287.574 63.4879 287.134 62.7813C286.694 62.0613 285.88 61.7013 284.694 61.7013C283.747 61.7013 283.034 62.0813 282.554 62.8413C282.087 63.5879 281.854 64.5946 281.854 65.8613C281.854 67.1413 282.087 68.1346 282.554 68.8413C283.034 69.5479 283.754 69.9013 284.714 69.9013ZM296.738 71.3613C295.405 71.3613 294.338 70.9013 293.538 69.9813C292.738 69.0479 292.338 67.6613 292.338 65.8213C292.338 63.9813 292.738 62.5946 293.538 61.6613C294.352 60.7146 295.425 60.2413 296.758 60.2413C297.585 60.2413 298.258 60.3946 298.778 60.7013C299.312 61.0079 299.745 61.3813 300.078 61.8213H300.198C300.185 61.6479 300.158 61.3946 300.118 61.0613C300.092 60.7146 300.078 60.4413 300.078 60.2413V55.9613H301.838V71.1613H300.418L300.158 69.7213H300.078C299.758 70.1746 299.332 70.5613 298.798 70.8813C298.265 71.2013 297.578 71.3613 296.738 71.3613ZM297.018 69.9013C298.152 69.9013 298.945 69.5946 299.398 68.9813C299.865 68.3546 300.098 67.4146 300.098 66.1613V65.8413C300.098 64.5079 299.878 63.4879 299.438 62.7813C298.998 62.0613 298.185 61.7013 296.998 61.7013C296.052 61.7013 295.338 62.0813 294.858 62.8413C294.392 63.5879 294.158 64.5946 294.158 65.8613C294.158 67.1413 294.392 68.1346 294.858 68.8413C295.338 69.5479 296.058 69.9013 297.018 69.9013ZM307.003 71.1613H305.243V55.9613H307.003V71.1613ZM314.539 60.2413C315.459 60.2413 316.246 60.4413 316.899 60.8413C317.566 61.2413 318.073 61.8079 318.419 62.5413C318.779 63.2613 318.959 64.1079 318.959 65.0813V66.1413H311.619C311.646 67.3546 311.953 68.2813 312.539 68.9213C313.139 69.5479 313.973 69.8613 315.039 69.8613C315.719 69.8613 316.319 69.8013 316.839 69.6813C317.373 69.5479 317.919 69.3613 318.479 69.1213V70.6613C317.933 70.9013 317.393 71.0746 316.859 71.1813C316.326 71.3013 315.693 71.3613 314.959 71.3613C313.946 71.3613 313.046 71.1546 312.259 70.7413C311.486 70.3279 310.879 69.7146 310.439 68.9013C310.013 68.0746 309.799 67.0679 309.799 65.8813C309.799 64.7079 309.993 63.7013 310.379 62.8613C310.779 62.0213 311.333 61.3746 312.039 60.9213C312.759 60.4679 313.593 60.2413 314.539 60.2413ZM314.519 61.6813C313.679 61.6813 313.013 61.9546 312.519 62.5013C312.039 63.0346 311.753 63.7813 311.659 64.7413H317.119C317.106 63.8346 316.893 63.1013 316.479 62.5413C316.066 61.9679 315.413 61.6813 314.519 61.6813ZM330.684 60.2413C331.39 60.2413 332.024 60.3746 332.584 60.6413C333.157 60.9079 333.644 61.3146 334.044 61.8613H334.144L334.384 60.4413H335.784V71.3413C335.784 72.8746 335.39 74.0279 334.604 74.8013C333.83 75.5746 332.624 75.9613 330.984 75.9613C329.41 75.9613 328.124 75.7346 327.124 75.2813V73.6613C328.177 74.2213 329.497 74.5013 331.084 74.5013C332.004 74.5013 332.724 74.2279 333.244 73.6813C333.777 73.1479 334.044 72.4146 334.044 71.4813V71.0613C334.044 70.9013 334.05 70.6746 334.064 70.3813C334.077 70.0746 334.09 69.8613 334.104 69.7413H334.024C333.304 70.8213 332.197 71.3613 330.704 71.3613C329.317 71.3613 328.23 70.8746 327.444 69.9013C326.67 68.9279 326.284 67.5679 326.284 65.8213C326.284 64.1146 326.67 62.7613 327.444 61.7613C328.23 60.7479 329.31 60.2413 330.684 60.2413ZM330.924 61.7213C330.03 61.7213 329.337 62.0813 328.844 62.8013C328.35 63.5079 328.104 64.5213 328.104 65.8413C328.104 67.1613 328.344 68.1746 328.824 68.8813C329.317 69.5746 330.03 69.9213 330.964 69.9213C332.044 69.9213 332.83 69.6346 333.324 69.0613C333.817 68.4746 334.064 67.5346 334.064 66.2413V65.8213C334.064 64.3546 333.81 63.3079 333.304 62.6813C332.797 62.0413 332.004 61.7213 330.924 61.7213ZM344.188 60.2413C344.388 60.2413 344.602 60.2546 344.828 60.2813C345.068 60.2946 345.275 60.3213 345.448 60.3613L345.228 61.9813C345.055 61.9413 344.862 61.9079 344.648 61.8813C344.448 61.8546 344.255 61.8413 344.068 61.8413C343.522 61.8413 343.008 61.9946 342.528 62.3013C342.048 62.5946 341.662 63.0146 341.368 63.5613C341.088 64.0946 340.948 64.7213 340.948 65.4413V71.1613H339.188V60.4413H340.628L340.828 62.4013H340.908C341.255 61.8146 341.702 61.3079 342.248 60.8813C342.795 60.4546 343.442 60.2413 344.188 60.2413ZM356.379 65.7813C356.379 67.5546 355.926 68.9279 355.019 69.9013C354.126 70.8746 352.913 71.3613 351.379 71.3613C350.433 71.3613 349.586 71.1479 348.839 70.7213C348.106 70.2813 347.526 69.6479 347.099 68.8213C346.673 67.9813 346.459 66.9679 346.459 65.7813C346.459 64.0079 346.906 62.6413 347.799 61.6813C348.693 60.7213 349.906 60.2413 351.439 60.2413C352.413 60.2413 353.266 60.4613 353.999 60.9013C354.746 61.3279 355.326 61.9546 355.739 62.7813C356.166 63.5946 356.379 64.5946 356.379 65.7813ZM348.279 65.7813C348.279 67.0479 348.526 68.0546 349.019 68.8013C349.526 69.5346 350.326 69.9013 351.419 69.9013C352.499 69.9013 353.293 69.5346 353.799 68.8013C354.306 68.0546 354.559 67.0479 354.559 65.7813C354.559 64.5146 354.306 63.5213 353.799 62.8013C353.293 62.0813 352.493 61.7213 351.399 61.7213C350.306 61.7213 349.513 62.0813 349.019 62.8013C348.526 63.5213 348.279 64.5146 348.279 65.7813ZM368.129 60.4413V71.1613H366.689L366.429 69.7413H366.349C366.002 70.3013 365.522 70.7146 364.909 70.9813C364.295 71.2346 363.642 71.3613 362.949 71.3613C361.655 71.3613 360.682 71.0546 360.029 70.4413C359.375 69.8146 359.049 68.8213 359.049 67.4613V60.4413H360.829V67.3413C360.829 69.0479 361.622 69.9013 363.209 69.9013C364.395 69.9013 365.215 69.5679 365.669 68.9013C366.135 68.2346 366.369 67.2746 366.369 66.0213V60.4413H368.129ZM376.692 60.2413C377.972 60.2413 378.939 60.5546 379.592 61.1813C380.245 61.7946 380.572 62.7946 380.572 64.1813V71.1613H378.832V64.3013C378.832 62.5813 378.032 61.7213 376.432 61.7213C375.245 61.7213 374.425 62.0546 373.972 62.7213C373.519 63.3879 373.292 64.3479 373.292 65.6013V71.1613H371.532V60.4413H372.952L373.212 61.9013H373.312C373.659 61.3413 374.139 60.9279 374.752 60.6613C375.365 60.3813 376.012 60.2413 376.692 60.2413ZM387.695 71.3613C386.362 71.3613 385.295 70.9013 384.495 69.9813C383.695 69.0479 383.295 67.6613 383.295 65.8213C383.295 63.9813 383.695 62.5946 384.495 61.6613C385.309 60.7146 386.382 60.2413 387.715 60.2413C388.542 60.2413 389.215 60.3946 389.735 60.7013C390.269 61.0079 390.702 61.3813 391.035 61.8213H391.155C391.142 61.6479 391.115 61.3946 391.075 61.0613C391.049 60.7146 391.035 60.4413 391.035 60.2413V55.9613H392.795V71.1613H391.375L391.115 69.7213H391.035C390.715 70.1746 390.289 70.5613 389.755 70.8813C389.222 71.2013 388.535 71.3613 387.695 71.3613ZM387.975 69.9013C389.109 69.9013 389.902 69.5946 390.355 68.9813C390.822 68.3546 391.055 67.4146 391.055 66.1613V65.8413C391.055 64.5079 390.835 63.4879 390.395 62.7813C389.955 62.0613 389.142 61.7013 387.955 61.7013C387.009 61.7013 386.295 62.0813 385.815 62.8413C385.349 63.5879 385.115 64.5946 385.115 65.8613C385.115 67.1413 385.349 68.1346 385.815 68.8413C386.295 69.5479 387.015 69.9013 387.975 69.9013Z" fill="#8D8D8D"/>
<path d="M257.952 123.11H256.152V108.83H264.132V110.41H257.952V115.47H263.752V117.05H257.952V123.11ZM275.603 117.73C275.603 119.504 275.15 120.877 274.243 121.85C273.35 122.824 272.136 123.31 270.603 123.31C269.656 123.31 268.81 123.097 268.063 122.67C267.33 122.23 266.75 121.597 266.323 120.77C265.896 119.93 265.683 118.917 265.683 117.73C265.683 115.957 266.13 114.59 267.023 113.63C267.916 112.67 269.13 112.19 270.663 112.19C271.636 112.19 272.49 112.41 273.223 112.85C273.97 113.277 274.55 113.904 274.963 114.73C275.39 115.544 275.603 116.544 275.603 117.73ZM267.503 117.73C267.503 118.997 267.75 120.004 268.243 120.75C268.75 121.484 269.55 121.85 270.643 121.85C271.723 121.85 272.516 121.484 273.023 120.75C273.53 120.004 273.783 118.997 273.783 117.73C273.783 116.464 273.53 115.47 273.023 114.75C272.516 114.03 271.716 113.67 270.623 113.67C269.53 113.67 268.736 114.03 268.243 114.75C267.75 115.47 267.503 116.464 267.503 117.73ZM283.392 112.19C283.592 112.19 283.806 112.204 284.032 112.23C284.272 112.244 284.479 112.27 284.652 112.31L284.432 113.93C284.259 113.89 284.066 113.857 283.852 113.83C283.652 113.804 283.459 113.79 283.272 113.79C282.726 113.79 282.212 113.944 281.732 114.25C281.252 114.544 280.866 114.964 280.572 115.51C280.292 116.044 280.152 116.67 280.152 117.39V123.11H278.392V112.39H279.832L280.032 114.35H280.112C280.459 113.764 280.906 113.257 281.452 112.83C281.999 112.404 282.646 112.19 283.392 112.19ZM290.403 112.19C291.323 112.19 292.11 112.39 292.763 112.79C293.43 113.19 293.937 113.757 294.283 114.49C294.643 115.21 294.823 116.057 294.823 117.03V118.09H287.483C287.51 119.304 287.817 120.23 288.403 120.87C289.003 121.497 289.837 121.81 290.903 121.81C291.583 121.81 292.183 121.75 292.703 121.63C293.237 121.497 293.783 121.31 294.343 121.07V122.61C293.797 122.85 293.257 123.024 292.723 123.13C292.19 123.25 291.557 123.31 290.823 123.31C289.81 123.31 288.91 123.104 288.123 122.69C287.35 122.277 286.743 121.664 286.303 120.85C285.877 120.024 285.663 119.017 285.663 117.83C285.663 116.657 285.857 115.65 286.243 114.81C286.643 113.97 287.197 113.324 287.903 112.87C288.623 112.417 289.457 112.19 290.403 112.19ZM290.383 113.63C289.543 113.63 288.877 113.904 288.383 114.45C287.903 114.984 287.617 115.73 287.523 116.69H292.983C292.97 115.784 292.757 115.05 292.343 114.49C291.93 113.917 291.277 113.63 290.383 113.63ZM301.353 112.19C302.059 112.19 302.693 112.324 303.253 112.59C303.826 112.857 304.313 113.264 304.713 113.81H304.813L305.053 112.39H306.453V123.29C306.453 124.824 306.059 125.977 305.273 126.75C304.499 127.524 303.293 127.91 301.653 127.91C300.079 127.91 298.793 127.684 297.793 127.23V125.61C298.846 126.17 300.166 126.45 301.753 126.45C302.673 126.45 303.393 126.177 303.913 125.63C304.446 125.097 304.713 124.364 304.713 123.43V123.01C304.713 122.85 304.719 122.624 304.733 122.33C304.746 122.024 304.759 121.81 304.773 121.69H304.693C303.973 122.77 302.866 123.31 301.373 123.31C299.986 123.31 298.899 122.824 298.113 121.85C297.339 120.877 296.953 119.517 296.953 117.77C296.953 116.064 297.339 114.71 298.113 113.71C298.899 112.697 299.979 112.19 301.353 112.19ZM301.593 113.67C300.699 113.67 300.006 114.03 299.513 114.75C299.019 115.457 298.773 116.47 298.773 117.79C298.773 119.11 299.013 120.124 299.493 120.83C299.986 121.524 300.699 121.87 301.633 121.87C302.713 121.87 303.499 121.584 303.993 121.01C304.486 120.424 304.733 119.484 304.733 118.19V117.77C304.733 116.304 304.479 115.257 303.973 114.63C303.466 113.99 302.673 113.67 301.593 113.67ZM314.857 112.19C315.057 112.19 315.271 112.204 315.497 112.23C315.737 112.244 315.944 112.27 316.117 112.31L315.897 113.93C315.724 113.89 315.531 113.857 315.317 113.83C315.117 113.804 314.924 113.79 314.737 113.79C314.191 113.79 313.677 113.944 313.197 114.25C312.717 114.544 312.331 114.964 312.037 115.51C311.757 116.044 311.617 116.67 311.617 117.39V123.11H309.857V112.39H311.297L311.497 114.35H311.577C311.924 113.764 312.371 113.257 312.917 112.83C313.464 112.404 314.111 112.19 314.857 112.19ZM327.048 117.73C327.048 119.504 326.595 120.877 325.688 121.85C324.795 122.824 323.582 123.31 322.048 123.31C321.102 123.31 320.255 123.097 319.508 122.67C318.775 122.23 318.195 121.597 317.768 120.77C317.342 119.93 317.128 118.917 317.128 117.73C317.128 115.957 317.575 114.59 318.468 113.63C319.362 112.67 320.575 112.19 322.108 112.19C323.082 112.19 323.935 112.41 324.668 112.85C325.415 113.277 325.995 113.904 326.408 114.73C326.835 115.544 327.048 116.544 327.048 117.73ZM318.948 117.73C318.948 118.997 319.195 120.004 319.688 120.75C320.195 121.484 320.995 121.85 322.088 121.85C323.168 121.85 323.962 121.484 324.468 120.75C324.975 120.004 325.228 118.997 325.228 117.73C325.228 116.464 324.975 115.47 324.468 114.75C323.962 114.03 323.162 113.67 322.068 113.67C320.975 113.67 320.182 114.03 319.688 114.75C319.195 115.47 318.948 116.464 318.948 117.73ZM338.798 112.39V123.11H337.358L337.098 121.69H337.018C336.671 122.25 336.191 122.664 335.578 122.93C334.964 123.184 334.311 123.31 333.618 123.31C332.324 123.31 331.351 123.004 330.698 122.39C330.044 121.764 329.718 120.77 329.718 119.41V112.39H331.498V119.29C331.498 120.997 332.291 121.85 333.878 121.85C335.064 121.85 335.884 121.517 336.338 120.85C336.804 120.184 337.038 119.224 337.038 117.97V112.39H338.798ZM347.361 112.19C348.641 112.19 349.608 112.504 350.261 113.13C350.914 113.744 351.241 114.744 351.241 116.13V123.11H349.501V116.25C349.501 114.53 348.701 113.67 347.101 113.67C345.914 113.67 345.094 114.004 344.641 114.67C344.188 115.337 343.961 116.297 343.961 117.55V123.11H342.201V112.39H343.621L343.881 113.85H343.981C344.328 113.29 344.808 112.877 345.421 112.61C346.034 112.33 346.681 112.19 347.361 112.19ZM358.364 123.31C357.031 123.31 355.964 122.85 355.164 121.93C354.364 120.997 353.964 119.61 353.964 117.77C353.964 115.93 354.364 114.544 355.164 113.61C355.978 112.664 357.051 112.19 358.384 112.19C359.211 112.19 359.884 112.344 360.404 112.65C360.938 112.957 361.371 113.33 361.704 113.77H361.824C361.811 113.597 361.784 113.344 361.744 113.01C361.718 112.664 361.704 112.39 361.704 112.19V107.91H363.464V123.11H362.044L361.784 121.67H361.704C361.384 122.124 360.958 122.51 360.424 122.83C359.891 123.15 359.204 123.31 358.364 123.31ZM358.644 121.85C359.778 121.85 360.571 121.544 361.024 120.93C361.491 120.304 361.724 119.364 361.724 118.11V117.79C361.724 116.457 361.504 115.437 361.064 114.73C360.624 114.01 359.811 113.65 358.624 113.65C357.678 113.65 356.964 114.03 356.484 114.79C356.018 115.537 355.784 116.544 355.784 117.81C355.784 119.09 356.018 120.084 356.484 120.79C356.964 121.497 357.684 121.85 358.644 121.85Z" fill="#EBEBEB"/>
<rect opacity="0.4" x="71.1689" y="3.09546" width="160.802" height="165.056" stroke="#EBEBEB" stroke-width="3"/>
<rect x="35.0767" y="24.9252" width="161.757" height="165.661" stroke="#8D8D8D" stroke-width="3"/>
<rect x="1.5" y="53.0869" width="160.802" height="165.056" stroke="#EBEBEB" stroke-width="3"/>
</svg>
