<svg width="1400" height="153" viewBox="0 0 1400 153" fill="none" xmlns="http://www.w3.org/2000/svg">
<path opacity="0.5" d="M1355.69 40.6998C1355.69 41.6914 1355.41 42.4834 1354.86 43.0756C1354.31 43.654 1353.57 44.0396 1352.63 44.2324V44.3151C1353.81 44.4528 1354.69 44.8246 1355.27 45.4306C1355.85 46.0366 1356.14 46.8285 1356.14 47.8063C1356.14 48.6602 1355.94 49.4246 1355.54 50.0994C1355.14 50.7605 1354.52 51.277 1353.68 51.6488C1352.86 52.0207 1351.79 52.2066 1350.48 52.2066C1349.71 52.2066 1348.99 52.1446 1348.33 52.0207C1347.67 51.9105 1347.04 51.7039 1346.43 51.4009V49.7069C1347.05 50.0099 1347.72 50.2509 1348.44 50.43C1349.15 50.5952 1349.84 50.6779 1350.5 50.6779C1351.82 50.6779 1352.77 50.4231 1353.35 49.9135C1353.94 49.3902 1354.24 48.674 1354.24 47.765C1354.24 46.8423 1353.88 46.1812 1353.15 45.7818C1352.43 45.3686 1351.42 45.1621 1350.11 45.1621H1348.68V43.6127H1350.13C1351.34 43.6127 1352.26 43.3579 1352.88 42.8483C1353.51 42.3387 1353.83 41.6639 1353.83 40.8238C1353.83 40.1076 1353.59 39.5567 1353.1 39.1711C1352.62 38.7717 1351.97 38.572 1351.14 38.572C1350.34 38.572 1349.66 38.6891 1349.1 38.9232C1348.53 39.1574 1347.97 39.4535 1347.42 39.8115L1346.51 38.572C1347.04 38.1589 1347.68 37.8008 1348.46 37.4978C1349.24 37.1948 1350.13 37.0433 1351.12 37.0433C1352.66 37.0433 1353.81 37.3876 1354.55 38.0762C1355.31 38.7648 1355.69 39.6394 1355.69 40.6998ZM1368.73 48.6533H1366.58V52H1364.82V48.6533H1357.76V47.104L1364.7 37.1673H1366.58V47.0213H1368.73V48.6533ZM1364.82 42.3732C1364.82 41.657 1364.84 41.051 1364.86 40.5552C1364.89 40.0457 1364.91 39.5636 1364.93 39.1091H1364.84C1364.73 39.3708 1364.6 39.6532 1364.43 39.9561C1364.27 40.2591 1364.11 40.5139 1363.96 40.7205L1359.53 47.0213H1364.82V42.3732ZM1380.55 48.6533H1378.4V52H1376.65V48.6533H1369.58V47.104L1376.52 37.1673H1378.4V47.0213H1380.55V48.6533ZM1376.65 42.3732C1376.65 41.657 1376.66 41.051 1376.69 40.5552C1376.71 40.0457 1376.73 39.5636 1376.75 39.1091H1376.67C1376.56 39.3708 1376.42 39.6532 1376.25 39.9561C1376.09 40.2591 1375.93 40.5139 1375.78 40.7205L1371.36 47.0213H1376.65V42.3732ZM1383.78 52L1389.83 38.9026H1381.88V37.2499H1391.77V38.6547L1385.78 52H1383.78Z" fill="#EBEBEB"/>
<path opacity="0.5" d="M106.809 42.9516C108.324 42.9516 109.529 43.3304 110.424 44.0878C111.319 44.8453 111.767 45.9127 111.767 47.2899C111.767 48.8186 111.278 50.0237 110.3 50.9051C109.336 51.7728 107.986 52.2066 106.251 52.2066C105.494 52.2066 104.777 52.1377 104.103 52C103.442 51.8623 102.884 51.6626 102.429 51.4009V49.6863C102.925 49.9892 103.524 50.2303 104.227 50.4093C104.943 50.5746 105.624 50.6572 106.272 50.6572C107.36 50.6572 108.234 50.4024 108.895 49.8928C109.57 49.3695 109.908 48.5638 109.908 47.4758C109.908 46.5117 109.612 45.7749 109.019 45.2654C108.427 44.742 107.491 44.4803 106.21 44.4803C105.824 44.4803 105.383 44.5148 104.888 44.5836C104.392 44.6525 103.992 44.7214 103.689 44.7902L102.78 44.2118L103.338 37.2499H110.734V38.9026H104.888L104.536 43.1789C104.771 43.1375 105.087 43.0893 105.487 43.0342C105.886 42.9792 106.327 42.9516 106.809 42.9516ZM118.631 42.9516C120.146 42.9516 121.351 43.3304 122.246 44.0878C123.141 44.8453 123.589 45.9127 123.589 47.2899C123.589 48.8186 123.1 50.0237 122.122 50.9051C121.158 51.7728 119.809 52.2066 118.073 52.2066C117.316 52.2066 116.6 52.1377 115.925 52C115.264 51.8623 114.706 51.6626 114.251 51.4009V49.6863C114.747 49.9892 115.346 50.2303 116.049 50.4093C116.765 50.5746 117.447 50.6572 118.094 50.6572C119.182 50.6572 120.056 50.4024 120.717 49.8928C121.392 49.3695 121.73 48.5638 121.73 47.4758C121.73 46.5117 121.434 45.7749 120.841 45.2654C120.249 44.742 119.313 44.4803 118.032 44.4803C117.646 44.4803 117.206 44.5148 116.71 44.5836C116.214 44.6525 115.815 44.7214 115.512 44.7902L114.603 44.2118L115.16 37.2499H122.556V38.9026H116.71L116.359 43.1789C116.593 43.1375 116.909 43.0893 117.309 43.0342C117.708 42.9792 118.149 42.9516 118.631 42.9516Z" fill="#EBEBEB"/>
<path opacity="0.5" d="M1251.88 40.6998C1251.88 41.6914 1251.61 42.4834 1251.05 43.0756C1250.5 43.654 1249.76 44.0396 1248.82 44.2324V44.3151C1250.01 44.4528 1250.89 44.8246 1251.47 45.4306C1252.05 46.0366 1252.34 46.8285 1252.34 47.8063C1252.34 48.6602 1252.14 49.4246 1251.74 50.0994C1251.34 50.7605 1250.72 51.277 1249.88 51.6488C1249.05 52.0207 1247.98 52.2066 1246.67 52.2066C1245.9 52.2066 1245.19 52.1446 1244.53 52.0207C1243.87 51.9105 1243.23 51.7039 1242.63 51.4009V49.7069C1243.25 50.0099 1243.91 50.2509 1244.63 50.43C1245.35 50.5952 1246.03 50.6779 1246.7 50.6779C1248.02 50.6779 1248.97 50.4231 1249.55 49.9135C1250.14 49.3902 1250.43 48.674 1250.43 47.765C1250.43 46.8423 1250.07 46.1812 1249.34 45.7818C1248.62 45.3686 1247.61 45.1621 1246.3 45.1621H1244.88V43.6127H1246.32C1247.54 43.6127 1248.45 43.3579 1249.07 42.8483C1249.7 42.3387 1250.02 41.6639 1250.02 40.8238C1250.02 40.1076 1249.78 39.5567 1249.3 39.1711C1248.82 38.7717 1248.16 38.572 1247.34 38.572C1246.54 38.572 1245.86 38.6891 1245.29 38.9232C1244.73 39.1574 1244.17 39.4535 1243.62 39.8115L1242.71 38.572C1243.23 38.1589 1243.88 37.8008 1244.65 37.4978C1245.44 37.1948 1246.32 37.0433 1247.32 37.0433C1248.86 37.0433 1250 37.3876 1250.74 38.0762C1251.5 38.7648 1251.88 39.6394 1251.88 40.6998ZM1264.92 48.6533H1262.77V52H1261.02V48.6533H1253.95V47.104L1260.89 37.1673H1262.77V47.0213H1264.92V48.6533ZM1261.02 42.3732C1261.02 41.657 1261.03 41.051 1261.06 40.5552C1261.09 40.0457 1261.11 39.5636 1261.12 39.1091H1261.04C1260.93 39.3708 1260.79 39.6532 1260.62 39.9561C1260.46 40.2591 1260.3 40.5139 1260.15 40.7205L1255.73 47.0213H1261.02V42.3732ZM1276.74 48.6533H1274.6V52H1272.84V48.6533H1265.77V47.104L1272.72 37.1673H1274.6V47.0213H1276.74V48.6533ZM1272.84 42.3732C1272.84 41.657 1272.85 41.051 1272.88 40.5552C1272.91 40.0457 1272.93 39.5636 1272.94 39.1091H1272.86C1272.75 39.3708 1272.61 39.6532 1272.45 39.9561C1272.28 40.2591 1272.12 40.5139 1271.97 40.7205L1267.55 47.0213H1272.84V42.3732ZM1287.9 52H1278.15V50.4919L1282.02 46.5875C1282.76 45.8438 1283.39 45.1827 1283.9 44.6043C1284.41 44.0259 1284.79 43.4612 1285.05 42.9103C1285.32 42.3456 1285.45 41.7328 1285.45 41.0717C1285.45 40.2591 1285.21 39.6463 1284.72 39.2331C1284.24 38.8062 1283.61 38.5927 1282.84 38.5927C1282.13 38.5927 1281.49 38.7166 1280.94 38.9645C1280.41 39.2124 1279.85 39.5567 1279.29 39.9975L1278.32 38.7786C1278.9 38.2966 1279.56 37.8903 1280.3 37.5598C1281.06 37.2155 1281.91 37.0433 1282.84 37.0433C1284.22 37.0433 1285.31 37.3945 1286.11 38.0969C1286.91 38.7855 1287.31 39.7427 1287.31 40.9684C1287.31 41.7397 1287.15 42.4627 1286.83 43.1375C1286.51 43.8124 1286.07 44.4803 1285.51 45.1414C1284.94 45.7887 1284.28 46.4842 1283.53 47.2279L1280.45 50.2647V50.3473H1287.9V52Z" fill="#EBEBEB"/>
<path opacity="0.5" d="M265.758 45.6992C265.758 44.6387 265.848 43.5989 266.027 42.5798C266.22 41.5468 266.557 40.6172 267.039 39.7909C267.535 38.9508 268.224 38.2828 269.105 37.787C269.987 37.2912 271.123 37.0433 272.514 37.0433C272.803 37.0433 273.12 37.0571 273.464 37.0846C273.822 37.1122 274.111 37.1604 274.332 37.2292V38.7786C274.084 38.696 273.801 38.634 273.485 38.5927C273.182 38.5514 272.872 38.5307 272.555 38.5307C271.605 38.5307 270.813 38.6891 270.179 39.0059C269.546 39.3226 269.043 39.7564 268.671 40.3073C268.313 40.8582 268.052 41.4918 267.886 42.2079C267.721 42.9241 267.618 43.6884 267.576 44.501H267.7C268.017 44.019 268.458 43.6127 269.022 43.2821C269.587 42.9378 270.31 42.7657 271.192 42.7657C272.472 42.7657 273.505 43.1582 274.29 43.9432C275.075 44.7145 275.468 45.8162 275.468 47.2486C275.468 48.7911 275.041 50.003 274.187 50.8844C273.347 51.7659 272.211 52.2066 270.778 52.2066C269.842 52.2066 268.995 51.9725 268.237 51.5042C267.48 51.0359 266.874 50.3198 266.42 49.3557C265.979 48.3917 265.758 47.1728 265.758 45.6992ZM270.758 50.6779C271.625 50.6779 272.328 50.4024 272.865 49.8515C273.402 49.2869 273.671 48.4192 273.671 47.2486C273.671 46.312 273.43 45.5683 272.948 45.0175C272.479 44.4666 271.77 44.1911 270.82 44.1911C270.172 44.1911 269.608 44.3288 269.126 44.6043C268.644 44.866 268.265 45.2034 267.99 45.6165C267.728 46.0297 267.597 46.4567 267.597 46.8974C267.597 47.4896 267.714 48.0818 267.948 48.674C268.182 49.2524 268.534 49.7345 269.002 50.1201C269.47 50.4919 270.055 50.6779 270.758 50.6779ZM283.778 52H282.001V41.6914C282.001 41.0992 282.008 40.6241 282.022 40.266C282.036 39.9079 282.057 39.5361 282.084 39.1505C281.864 39.3708 281.664 39.5567 281.485 39.7082C281.306 39.8597 281.079 40.0525 280.803 40.2867L279.233 41.5675L278.283 40.3487L282.27 37.2499H283.778V52ZM299.071 44.6043C299.071 46.1881 298.906 47.5516 298.575 48.6947C298.244 49.824 297.721 50.6916 297.005 51.2976C296.289 51.9036 295.338 52.2066 294.154 52.2066C292.488 52.2066 291.255 51.5386 290.456 50.2027C289.671 48.853 289.279 46.9869 289.279 44.6043C289.279 43.0067 289.437 41.6432 289.754 40.5139C290.084 39.3846 290.608 38.5238 291.324 37.9316C292.04 37.3256 292.983 37.0226 294.154 37.0226C295.807 37.0226 297.039 37.6906 297.852 39.0265C298.664 40.3487 299.071 42.2079 299.071 44.6043ZM291.097 44.6043C291.097 46.6288 291.324 48.1438 291.778 49.1491C292.247 50.1545 293.039 50.6572 294.154 50.6572C295.256 50.6572 296.041 50.1614 296.509 49.1698C296.991 48.1644 297.232 46.6426 297.232 44.6043C297.232 42.5935 296.991 41.0855 296.509 40.0801C296.041 39.0747 295.256 38.572 294.154 38.572C293.039 38.572 292.247 39.0747 291.778 40.0801C291.324 41.0855 291.097 42.5935 291.097 44.6043Z" fill="#EBEBEB"/>
<path opacity="0.5" d="M1089.68 40.6998C1089.68 41.6914 1089.41 42.4834 1088.86 43.0756C1088.31 43.654 1087.56 44.0396 1086.63 44.2324V44.3151C1087.81 44.4528 1088.69 44.8246 1089.27 45.4306C1089.85 46.0366 1090.14 46.8285 1090.14 47.8063C1090.14 48.6602 1089.94 49.4246 1089.54 50.0994C1089.14 50.7605 1088.52 51.277 1087.68 51.6488C1086.85 52.0207 1085.79 52.2066 1084.48 52.2066C1083.71 52.2066 1082.99 52.1446 1082.33 52.0207C1081.67 51.9105 1081.03 51.7039 1080.43 51.4009V49.7069C1081.05 50.0099 1081.72 50.2509 1082.43 50.43C1083.15 50.5952 1083.84 50.6779 1084.5 50.6779C1085.82 50.6779 1086.77 50.4231 1087.35 49.9135C1087.94 49.3902 1088.24 48.674 1088.24 47.765C1088.24 46.8423 1087.87 46.1812 1087.14 45.7818C1086.43 45.3686 1085.41 45.1621 1084.11 45.1621H1082.68V43.6127H1084.13C1085.34 43.6127 1086.25 43.3579 1086.87 42.8483C1087.51 42.3387 1087.82 41.6639 1087.82 40.8238C1087.82 40.1076 1087.58 39.5567 1087.1 39.1711C1086.62 38.7717 1085.97 38.572 1085.14 38.572C1084.34 38.572 1083.66 38.6891 1083.09 38.9232C1082.53 39.1574 1081.97 39.4535 1081.42 39.8115L1080.51 38.572C1081.03 38.1589 1081.68 37.8008 1082.45 37.4978C1083.24 37.1948 1084.13 37.0433 1085.12 37.0433C1086.66 37.0433 1087.8 37.3876 1088.55 38.0762C1089.31 38.7648 1089.68 39.6394 1089.68 40.6998ZM1101.51 40.6998C1101.51 41.6914 1101.23 42.4834 1100.68 43.0756C1100.13 43.654 1099.38 44.0396 1098.45 44.2324V44.3151C1099.63 44.4528 1100.51 44.8246 1101.09 45.4306C1101.67 46.0366 1101.96 46.8285 1101.96 47.8063C1101.96 48.6602 1101.76 49.4246 1101.36 50.0994C1100.96 50.7605 1100.34 51.277 1099.5 51.6488C1098.68 52.0207 1097.61 52.2066 1096.3 52.2066C1095.53 52.2066 1094.81 52.1446 1094.15 52.0207C1093.49 51.9105 1092.86 51.7039 1092.25 51.4009V49.7069C1092.87 50.0099 1093.54 50.2509 1094.25 50.43C1094.97 50.5952 1095.66 50.6779 1096.32 50.6779C1097.64 50.6779 1098.59 50.4231 1099.17 49.9135C1099.76 49.3902 1100.06 48.674 1100.06 47.765C1100.06 46.8423 1099.69 46.1812 1098.96 45.7818C1098.25 45.3686 1097.24 45.1621 1095.93 45.1621H1094.5V43.6127H1095.95C1097.16 43.6127 1098.08 43.3579 1098.7 42.8483C1099.33 42.3387 1099.65 41.6639 1099.65 40.8238C1099.65 40.1076 1099.41 39.5567 1098.92 39.1711C1098.44 38.7717 1097.79 38.572 1096.96 38.572C1096.16 38.572 1095.48 38.6891 1094.92 38.9232C1094.35 39.1574 1093.79 39.4535 1093.24 39.8115L1092.33 38.572C1092.86 38.1589 1093.5 37.8008 1094.28 37.4978C1095.06 37.1948 1095.95 37.0433 1096.94 37.0433C1098.48 37.0433 1099.63 37.3876 1100.37 38.0762C1101.13 38.7648 1101.51 39.6394 1101.51 40.6998ZM1109.03 37.0433C1110.33 37.0433 1111.39 37.3463 1112.21 37.9523C1113.04 38.5583 1113.45 39.4328 1113.45 40.5759C1113.45 41.1681 1113.32 41.6846 1113.06 42.1253C1112.81 42.566 1112.47 42.9585 1112.05 43.3028C1111.62 43.6333 1111.15 43.9294 1110.64 44.1911C1111.25 44.4803 1111.8 44.8109 1112.3 45.1827C1112.79 45.5408 1113.18 45.9609 1113.47 46.4429C1113.78 46.9249 1113.93 47.5034 1113.93 48.1782C1113.93 49.4177 1113.49 50.4024 1112.6 51.1323C1111.74 51.8485 1110.57 52.2066 1109.09 52.2066C1107.51 52.2066 1106.29 51.8623 1105.44 51.1737C1104.58 50.4713 1104.16 49.4934 1104.16 48.2402C1104.16 47.5653 1104.29 46.98 1104.57 46.4842C1104.86 45.9884 1105.24 45.5615 1105.7 45.2034C1106.17 44.8453 1106.68 44.5423 1107.21 44.2944C1106.5 43.8812 1105.88 43.3854 1105.37 42.807C1104.88 42.2148 1104.63 41.4642 1104.63 40.5552C1104.63 39.7978 1104.82 39.1642 1105.21 38.6547C1105.59 38.1313 1106.12 37.7319 1106.78 37.4565C1107.44 37.181 1108.19 37.0433 1109.03 37.0433ZM1109.01 38.5101C1108.25 38.5101 1107.63 38.696 1107.13 39.0678C1106.65 39.4259 1106.41 39.9493 1106.41 40.6379C1106.41 41.1474 1106.52 41.5744 1106.76 41.9187C1107.01 42.263 1107.34 42.5591 1107.75 42.807C1108.16 43.0411 1108.62 43.2684 1109.11 43.4887C1109.83 43.1857 1110.43 42.8208 1110.91 42.3938C1111.41 41.9669 1111.65 41.3816 1111.65 40.6379C1111.65 39.9493 1111.41 39.4259 1110.93 39.0678C1110.45 38.696 1109.81 38.5101 1109.01 38.5101ZM1105.93 48.2608C1105.93 48.977 1106.19 49.5761 1106.7 50.0581C1107.21 50.5264 1107.99 50.7605 1109.05 50.7605C1110.06 50.7605 1110.82 50.5264 1111.34 50.0581C1111.88 49.5761 1112.15 48.9563 1112.15 48.1989C1112.15 47.4827 1111.87 46.8905 1111.3 46.4222C1110.74 45.9402 1109.99 45.5201 1109.05 45.1621L1108.72 45.0381C1107.81 45.4237 1107.12 45.8713 1106.63 46.3809C1106.17 46.8767 1105.93 47.5034 1105.93 48.2608ZM1117.77 52L1123.83 38.9026H1115.87V37.2499H1125.77V38.6547L1119.78 52H1117.77Z" fill="#EBEBEB"/>
<path opacity="0.5" d="M549.637 52H547.86V41.6914C547.86 41.0992 547.867 40.6241 547.881 40.266C547.895 39.9079 547.915 39.5361 547.943 39.1505C547.723 39.3708 547.523 39.5567 547.344 39.7082C547.165 39.8597 546.938 40.0525 546.662 40.2867L545.092 41.5675L544.142 40.3487L548.129 37.2499H549.637V52ZM556.935 52L562.988 38.9026H555.034V37.2499H564.93V38.6547L558.939 52H556.935ZM576.69 52H566.939V50.4919L570.802 46.5875C571.546 45.8438 572.172 45.1827 572.682 44.6043C573.192 44.0259 573.577 43.4612 573.839 42.9103C574.101 42.3456 574.231 41.7328 574.231 41.0717C574.231 40.2591 573.99 39.6463 573.508 39.2331C573.026 38.8062 572.4 38.5927 571.628 38.5927C570.912 38.5927 570.279 38.7166 569.728 38.9645C569.191 39.2124 568.64 39.5567 568.075 39.9975L567.104 38.7786C567.683 38.2966 568.344 37.8903 569.088 37.5598C569.845 37.2155 570.692 37.0433 571.628 37.0433C573.006 37.0433 574.094 37.3945 574.893 38.0969C575.691 38.7855 576.091 39.7427 576.091 40.9684C576.091 41.7397 575.932 42.4627 575.616 43.1375C575.299 43.8124 574.858 44.4803 574.293 45.1414C573.729 45.7887 573.068 46.4842 572.31 47.2279L569.232 50.2647V50.3473H576.69V52ZM585.103 52H583.327V41.6914C583.327 41.0992 583.334 40.6241 583.347 40.266C583.361 39.9079 583.382 39.5361 583.409 39.1505C583.189 39.3708 582.989 39.5567 582.81 39.7082C582.631 39.8597 582.404 40.0525 582.128 40.2867L580.558 41.5675L579.608 40.3487L583.595 37.2499H585.103V52Z" fill="#EBEBEB"/>
<path opacity="0.5" d="M817.751 52H808V50.4919L811.863 46.5875C812.607 45.8438 813.234 45.1827 813.743 44.6043C814.253 44.0259 814.638 43.4612 814.9 42.9103C815.162 42.3456 815.293 41.7328 815.293 41.0717C815.293 40.2591 815.051 39.6463 814.569 39.2331C814.087 38.8062 813.461 38.5927 812.69 38.5927C811.973 38.5927 811.34 38.7166 810.789 38.9645C810.252 39.2124 809.701 39.5567 809.136 39.9975L808.165 38.7786C808.744 38.2966 809.405 37.8903 810.149 37.5598C810.906 37.2155 811.753 37.0433 812.69 37.0433C814.067 37.0433 815.155 37.3945 815.954 38.0969C816.752 38.7855 817.152 39.7427 817.152 40.9684C817.152 41.7397 816.993 42.4627 816.677 43.1375C816.36 43.8124 815.919 44.4803 815.354 45.1414C814.79 45.7887 814.129 46.4842 813.371 47.2279L810.293 50.2647V50.3473H817.751V52ZM824.718 37.0433C826.013 37.0433 827.073 37.3463 827.9 37.9523C828.726 38.5583 829.139 39.4328 829.139 40.5759C829.139 41.1681 829.008 41.6846 828.747 42.1253C828.499 42.566 828.161 42.9585 827.734 43.3028C827.307 43.6333 826.839 43.9294 826.33 44.1911C826.936 44.4803 827.486 44.8109 827.982 45.1827C828.478 45.5408 828.871 45.9609 829.16 46.4429C829.463 46.9249 829.614 47.5034 829.614 48.1782C829.614 49.4177 829.174 50.4024 828.292 51.1323C827.424 51.8485 826.254 52.2066 824.78 52.2066C823.196 52.2066 821.978 51.8623 821.124 51.1737C820.27 50.4713 819.843 49.4934 819.843 48.2402C819.843 47.5653 819.981 46.98 820.256 46.4842C820.545 45.9884 820.924 45.5615 821.392 45.2034C821.86 44.8453 822.363 44.5423 822.9 44.2944C822.184 43.8812 821.571 43.3854 821.062 42.807C820.566 42.2148 820.318 41.4642 820.318 40.5552C820.318 39.7978 820.511 39.1642 820.896 38.6547C821.282 38.1313 821.805 37.7319 822.466 37.4565C823.128 37.181 823.878 37.0433 824.718 37.0433ZM824.698 38.5101C823.94 38.5101 823.313 38.696 822.818 39.0678C822.336 39.4259 822.095 39.9493 822.095 40.6379C822.095 41.1474 822.212 41.5744 822.446 41.9187C822.694 42.263 823.024 42.5591 823.437 42.807C823.851 43.0411 824.305 43.2684 824.801 43.4887C825.517 43.1857 826.116 42.8208 826.598 42.3938C827.094 41.9669 827.342 41.3816 827.342 40.6379C827.342 39.9493 827.101 39.4259 826.619 39.0678C826.137 38.696 825.496 38.5101 824.698 38.5101ZM821.619 48.2608C821.619 48.977 821.874 49.5761 822.384 50.0581C822.893 50.5264 823.678 50.7605 824.739 50.7605C825.744 50.7605 826.509 50.5264 827.032 50.0581C827.569 49.5761 827.838 48.9563 827.838 48.1989C827.838 47.4827 827.555 46.8905 826.991 46.4222C826.426 45.9402 825.675 45.5201 824.739 45.1621L824.408 45.0381C823.499 45.4237 822.804 45.8713 822.322 46.3809C821.854 46.8767 821.619 47.5034 821.619 48.2608ZM840.837 40.6998C840.837 41.6914 840.562 42.4834 840.011 43.0756C839.46 43.654 838.716 44.0396 837.78 44.2324V44.3151C838.964 44.4528 839.846 44.8246 840.424 45.4306C841.003 46.0366 841.292 46.8285 841.292 47.8063C841.292 48.6602 841.092 49.4246 840.693 50.0994C840.293 50.7605 839.674 51.277 838.833 51.6488C838.007 52.0207 836.94 52.2066 835.631 52.2066C834.86 52.2066 834.144 52.1446 833.483 52.0207C832.822 51.9105 832.188 51.7039 831.582 51.4009V49.7069C832.202 50.0099 832.87 50.2509 833.586 50.43C834.302 50.5952 834.991 50.6779 835.652 50.6779C836.974 50.6779 837.924 50.4231 838.503 49.9135C839.095 49.3902 839.391 48.674 839.391 47.765C839.391 46.8423 839.026 46.1812 838.296 45.7818C837.58 45.3686 836.568 45.1621 835.26 45.1621H833.834V43.6127H835.28C836.492 43.6127 837.408 43.3579 838.028 42.8483C838.661 42.3387 838.978 41.6639 838.978 40.8238C838.978 40.1076 838.737 39.5567 838.255 39.1711C837.773 38.7717 837.119 38.572 836.292 38.572C835.494 38.572 834.812 38.6891 834.247 38.9232C833.683 39.1574 833.125 39.4535 832.574 39.8115L831.665 38.572C832.188 38.1589 832.836 37.8008 833.607 37.4978C834.392 37.1948 835.28 37.0433 836.272 37.0433C837.814 37.0433 838.957 37.3876 839.701 38.0762C840.459 38.7648 840.837 39.6394 840.837 40.6998ZM853.217 52H843.466V50.4919L847.33 46.5875C848.073 45.8438 848.7 45.1827 849.209 44.6043C849.719 44.0259 850.105 43.4612 850.366 42.9103C850.628 42.3456 850.759 41.7328 850.759 41.0717C850.759 40.2591 850.518 39.6463 850.036 39.2331C849.554 38.8062 848.927 38.5927 848.156 38.5927C847.44 38.5927 846.806 38.7166 846.255 38.9645C845.718 39.2124 845.167 39.5567 844.603 39.9975L843.632 38.7786C844.21 38.2966 844.871 37.8903 845.615 37.5598C846.372 37.2155 847.219 37.0433 848.156 37.0433C849.533 37.0433 850.621 37.3945 851.42 38.0969C852.219 38.7855 852.618 39.7427 852.618 40.9684C852.618 41.7397 852.46 42.4627 852.143 43.1375C851.826 43.8124 851.385 44.4803 850.821 45.1414C850.256 45.7887 849.595 46.4842 848.838 47.2279L845.759 50.2647V50.3473H853.217V52Z" fill="#EBEBEB"/>
<path opacity="0.5" d="M47.3073 106.567C47.3073 108.151 47.1421 109.514 46.8115 110.658C46.481 111.787 45.9576 112.654 45.2415 113.26C44.5253 113.866 43.575 114.169 42.3906 114.169C40.7242 114.169 39.4916 113.501 38.6928 112.166C37.9077 110.816 37.5152 108.95 37.5152 106.567C37.5152 104.97 37.6736 103.606 37.9904 102.477C38.3209 101.347 38.8443 100.487 39.5604 99.8945C40.2766 99.2885 41.22 98.9855 42.3906 98.9855C44.0433 98.9855 45.2759 99.6535 46.0885 100.989C46.901 102.312 47.3073 104.171 47.3073 106.567ZM39.3332 106.567C39.3332 108.592 39.5604 110.107 40.0149 111.112C40.4832 112.117 41.2751 112.62 42.3906 112.62C43.4924 112.62 44.2774 112.124 44.7457 111.133C45.2277 110.127 45.4687 108.605 45.4687 106.567C45.4687 104.556 45.2277 103.048 44.7457 102.043C44.2774 101.038 43.4924 100.535 42.3906 100.535C41.2751 100.535 40.4832 101.038 40.0149 102.043C39.5604 103.048 39.3332 104.556 39.3332 106.567ZM49.8125 112.847C49.8125 112.338 49.9364 111.98 50.1843 111.773C50.4322 111.566 50.7283 111.463 51.0727 111.463C51.4307 111.463 51.7337 111.566 51.9816 111.773C52.2433 111.98 52.3741 112.338 52.3741 112.847C52.3741 113.343 52.2433 113.701 51.9816 113.922C51.7337 114.142 51.4307 114.252 51.0727 114.252C50.7283 114.252 50.4322 114.142 50.1843 113.922C49.9364 113.701 49.8125 113.343 49.8125 112.847ZM61.1866 113.963H59.4099V103.654C59.4099 103.062 59.4168 102.587 59.4306 102.229C59.4444 101.871 59.465 101.499 59.4926 101.113C59.2722 101.334 59.0725 101.52 58.8935 101.671C58.7144 101.823 58.4872 102.015 58.2117 102.25L56.6417 103.53L55.6914 102.312L59.6785 99.2127H61.1866V113.963ZM73.0087 113.963H71.232V103.654C71.232 103.062 71.2389 102.587 71.2527 102.229C71.2665 101.871 71.2871 101.499 71.3147 101.113C71.0943 101.334 70.8946 101.52 70.7156 101.671C70.5365 101.823 70.3093 102.015 70.0338 102.25L68.4638 103.53L67.5135 102.312L71.5006 99.2127H73.0087V113.963Z" fill="#EBEBEB"/>
<path opacity="0.5" d="M186.807 106.567C186.807 108.151 186.642 109.514 186.312 110.658C185.981 111.787 185.458 112.654 184.741 113.26C184.025 113.866 183.075 114.169 181.891 114.169C180.224 114.169 178.992 113.501 178.193 112.166C177.408 110.816 177.015 108.95 177.015 106.567C177.015 104.97 177.174 103.606 177.49 102.477C177.821 101.347 178.344 100.487 179.06 99.8945C179.777 99.2885 180.72 98.9855 181.891 98.9855C183.543 98.9855 184.776 99.6535 185.588 100.989C186.401 102.312 186.807 104.171 186.807 106.567ZM178.833 106.567C178.833 108.592 179.06 110.107 179.515 111.112C179.983 112.117 180.775 112.62 181.891 112.62C182.992 112.62 183.777 112.124 184.246 111.133C184.728 110.127 184.969 108.605 184.969 106.567C184.969 104.556 184.728 103.048 184.246 102.043C183.777 101.038 182.992 100.535 181.891 100.535C180.775 100.535 179.983 101.038 179.515 102.043C179.06 103.048 178.833 104.556 178.833 106.567ZM189.312 112.847C189.312 112.338 189.436 111.98 189.684 111.773C189.932 111.566 190.228 111.463 190.573 111.463C190.931 111.463 191.234 111.566 191.482 111.773C191.743 111.98 191.874 112.338 191.874 112.847C191.874 113.343 191.743 113.701 191.482 113.922C191.234 114.142 190.931 114.252 190.573 114.252C190.228 114.252 189.932 114.142 189.684 113.922C189.436 113.701 189.312 113.343 189.312 112.847ZM203.537 102.663C203.537 103.654 203.262 104.446 202.711 105.038C202.16 105.617 201.416 106.002 200.48 106.195V106.278C201.664 106.416 202.546 106.788 203.124 107.393C203.703 107.999 203.992 108.791 203.992 109.769C203.992 110.623 203.792 111.387 203.393 112.062C202.993 112.723 202.374 113.24 201.534 113.612C200.707 113.984 199.64 114.169 198.331 114.169C197.56 114.169 196.844 114.107 196.183 113.984C195.522 113.873 194.888 113.667 194.282 113.364V111.67C194.902 111.973 195.57 112.214 196.286 112.393C197.002 112.558 197.691 112.641 198.352 112.641C199.674 112.641 200.625 112.386 201.203 111.876C201.795 111.353 202.091 110.637 202.091 109.728C202.091 108.805 201.726 108.144 200.996 107.745C200.28 107.332 199.268 107.125 197.96 107.125H196.534V105.576H197.98C199.192 105.576 200.108 105.321 200.728 104.811C201.361 104.302 201.678 103.627 201.678 102.787C201.678 102.07 201.437 101.52 200.955 101.134C200.473 100.735 199.819 100.535 198.993 100.535C198.194 100.535 197.512 100.652 196.947 100.886C196.383 101.12 195.825 101.416 195.274 101.774L194.365 100.535C194.888 100.122 195.536 99.7636 196.307 99.4607C197.092 99.1577 197.98 99.0062 198.972 99.0062C200.514 99.0062 201.657 99.3505 202.401 100.039C203.159 100.728 203.537 101.602 203.537 102.663ZM215.36 102.663C215.36 103.654 215.084 104.446 214.533 105.038C213.982 105.617 213.239 106.002 212.302 106.195V106.278C213.486 106.416 214.368 106.788 214.946 107.393C215.525 107.999 215.814 108.791 215.814 109.769C215.814 110.623 215.614 111.387 215.215 112.062C214.816 112.723 214.196 113.24 213.356 113.612C212.529 113.984 211.462 114.169 210.154 114.169C209.382 114.169 208.666 114.107 208.005 113.984C207.344 113.873 206.711 113.667 206.105 113.364V111.67C206.724 111.973 207.392 112.214 208.108 112.393C208.825 112.558 209.513 112.641 210.174 112.641C211.496 112.641 212.447 112.386 213.025 111.876C213.617 111.353 213.913 110.637 213.913 109.728C213.913 108.805 213.548 108.144 212.819 107.745C212.102 107.332 211.09 107.125 209.782 107.125H208.356V105.576H209.802C211.014 105.576 211.93 105.321 212.55 104.811C213.183 104.302 213.5 103.627 213.5 102.787C213.5 102.07 213.259 101.52 212.777 101.134C212.295 100.735 211.641 100.535 210.815 100.535C210.016 100.535 209.334 100.652 208.769 100.886C208.205 101.12 207.647 101.416 207.096 101.774L206.187 100.535C206.711 100.122 207.358 99.7636 208.129 99.4607C208.914 99.1577 209.802 99.0062 210.794 99.0062C212.337 99.0062 213.48 99.3505 214.223 100.039C214.981 100.728 215.36 101.602 215.36 102.663Z" fill="#EBEBEB"/>
<path opacity="0.5" d="M410.638 106.92C410.638 108.504 410.473 109.867 410.143 111.01C409.812 112.14 409.289 113.007 408.573 113.613C407.856 114.219 406.906 114.522 405.722 114.522C404.055 114.522 402.823 113.854 402.024 112.518C401.239 111.169 400.846 109.303 400.846 106.92C400.846 105.322 401.005 103.959 401.322 102.83C401.652 101.7 402.175 100.84 402.892 100.247C403.608 99.6414 404.551 99.3384 405.722 99.3384C407.374 99.3384 408.607 100.006 409.42 101.342C410.232 102.664 410.638 104.524 410.638 106.92ZM402.664 106.92C402.664 108.945 402.892 110.46 403.346 111.465C403.814 112.47 404.606 112.973 405.722 112.973C406.824 112.973 407.609 112.477 408.077 111.486C408.559 110.48 408.8 108.958 408.8 106.92C408.8 104.909 408.559 103.401 408.077 102.396C407.609 101.39 406.824 100.888 405.722 100.888C404.606 100.888 403.814 101.39 403.346 102.396C402.892 103.401 402.664 104.909 402.664 106.92ZM413.144 113.2C413.144 112.691 413.268 112.333 413.515 112.126C413.763 111.919 414.059 111.816 414.404 111.816C414.762 111.816 415.065 111.919 415.313 112.126C415.574 112.333 415.705 112.691 415.705 113.2C415.705 113.696 415.574 114.054 415.313 114.274C415.065 114.495 414.762 114.605 414.404 114.605C414.059 114.605 413.763 114.495 413.515 114.274C413.268 114.054 413.144 113.696 413.144 113.2ZM418.32 108.015C418.32 106.954 418.41 105.915 418.589 104.896C418.782 103.863 419.119 102.933 419.601 102.107C420.097 101.267 420.785 100.599 421.667 100.103C422.548 99.607 423.684 99.3591 425.075 99.3591C425.365 99.3591 425.681 99.3728 426.026 99.4004C426.384 99.4279 426.673 99.4761 426.893 99.545V101.094C426.646 101.012 426.363 100.95 426.046 100.908C425.743 100.867 425.434 100.846 425.117 100.846C424.167 100.846 423.375 101.005 422.741 101.322C422.108 101.638 421.605 102.072 421.233 102.623C420.875 103.174 420.613 103.808 420.448 104.524C420.283 105.24 420.179 106.004 420.138 106.817H420.262C420.579 106.335 421.02 105.928 421.584 105.598C422.149 105.254 422.872 105.081 423.753 105.081C425.034 105.081 426.067 105.474 426.852 106.259C427.637 107.03 428.03 108.132 428.03 109.564C428.03 111.107 427.603 112.319 426.749 113.2C425.909 114.082 424.773 114.522 423.34 114.522C422.404 114.522 421.557 114.288 420.799 113.82C420.042 113.352 419.436 112.636 418.981 111.671C418.541 110.707 418.32 109.489 418.32 108.015ZM423.32 112.994C424.187 112.994 424.89 112.718 425.427 112.167C425.964 111.603 426.232 110.735 426.232 109.564C426.232 108.628 425.991 107.884 425.509 107.333C425.041 106.782 424.332 106.507 423.382 106.507C422.734 106.507 422.17 106.645 421.688 106.92C421.205 107.182 420.827 107.519 420.551 107.932C420.29 108.345 420.159 108.772 420.159 109.213C420.159 109.805 420.276 110.398 420.51 110.99C420.744 111.568 421.095 112.05 421.564 112.436C422.032 112.808 422.617 112.994 423.32 112.994ZM430.142 108.015C430.142 106.954 430.232 105.915 430.411 104.896C430.604 103.863 430.941 102.933 431.423 102.107C431.919 101.267 432.608 100.599 433.489 100.103C434.37 99.607 435.507 99.3591 436.898 99.3591C437.187 99.3591 437.504 99.3728 437.848 99.4004C438.206 99.4279 438.495 99.4761 438.716 99.545V101.094C438.468 101.012 438.185 100.95 437.869 100.908C437.566 100.867 437.256 100.846 436.939 100.846C435.989 100.846 435.197 101.005 434.563 101.322C433.93 101.638 433.427 102.072 433.055 102.623C432.697 103.174 432.435 103.808 432.27 104.524C432.105 105.24 432.002 106.004 431.96 106.817H432.084C432.401 106.335 432.842 105.928 433.406 105.598C433.971 105.254 434.694 105.081 435.575 105.081C436.856 105.081 437.889 105.474 438.674 106.259C439.459 107.03 439.852 108.132 439.852 109.564C439.852 111.107 439.425 112.319 438.571 113.2C437.731 114.082 436.595 114.522 435.162 114.522C434.226 114.522 433.379 114.288 432.621 113.82C431.864 113.352 431.258 112.636 430.803 111.671C430.363 110.707 430.142 109.489 430.142 108.015ZM435.142 112.994C436.009 112.994 436.712 112.718 437.249 112.167C437.786 111.603 438.054 110.735 438.054 109.564C438.054 108.628 437.813 107.884 437.331 107.333C436.863 106.782 436.154 106.507 435.204 106.507C434.556 106.507 433.992 106.645 433.51 106.92C433.028 107.182 432.649 107.519 432.373 107.932C432.112 108.345 431.981 108.772 431.981 109.213C431.981 109.805 432.098 110.398 432.332 110.99C432.566 111.568 432.917 112.05 433.386 112.436C433.854 112.808 434.439 112.994 435.142 112.994Z" fill="#EBEBEB"/>
<path opacity="0.5" d="M681.918 114.316H680.141V104.007C680.141 103.415 680.148 102.94 680.162 102.582C680.175 102.224 680.196 101.852 680.224 101.466C680.003 101.687 679.804 101.873 679.624 102.024C679.445 102.176 679.218 102.368 678.943 102.602L677.373 103.883L676.422 102.664L680.409 99.5657H681.918V114.316Z" fill="#EBEBEB"/>
<path opacity="0.5" d="M969.274 102.663C969.274 103.654 968.998 104.446 968.447 105.038C967.896 105.617 967.153 106.002 966.216 106.195V106.278C967.401 106.416 968.282 106.788 968.86 107.393C969.439 107.999 969.728 108.791 969.728 109.769C969.728 110.623 969.528 111.387 969.129 112.062C968.73 112.723 968.11 113.24 967.27 113.612C966.443 113.984 965.376 114.169 964.068 114.169C963.296 114.169 962.58 114.107 961.919 113.984C961.258 113.873 960.625 113.667 960.019 113.364V111.67C960.638 111.973 961.306 112.214 962.022 112.393C962.739 112.558 963.427 112.641 964.088 112.641C965.41 112.641 966.361 112.386 966.939 111.876C967.531 111.353 967.827 110.637 967.827 109.728C967.827 108.805 967.462 108.144 966.733 107.745C966.016 107.332 965.004 107.125 963.696 107.125H962.27V105.576H963.716C964.928 105.576 965.844 105.321 966.464 104.811C967.098 104.302 967.414 103.627 967.414 102.787C967.414 102.07 967.173 101.52 966.691 101.134C966.209 100.735 965.555 100.535 964.729 100.535C963.93 100.535 963.248 100.652 962.684 100.886C962.119 101.12 961.561 101.416 961.01 101.774L960.101 100.535C960.625 100.122 961.272 99.7636 962.043 99.4607C962.828 99.1577 963.716 99.0062 964.708 99.0062C966.251 99.0062 967.394 99.3505 968.137 100.039C968.895 100.728 969.274 101.602 969.274 102.663Z" fill="#EBEBEB"/>
<path opacity="0.5" d="M1184.51 113.963H1182.74V103.654C1182.74 103.062 1182.74 102.587 1182.76 102.229C1182.77 101.871 1182.79 101.499 1182.82 101.113C1182.6 101.334 1182.4 101.52 1182.22 101.671C1182.04 101.823 1181.81 102.015 1181.54 102.25L1179.97 103.53L1179.02 102.312L1183 99.2127H1184.51V113.963ZM1196.33 113.963H1194.56V103.654C1194.56 103.062 1194.56 102.587 1194.58 102.229C1194.59 101.871 1194.61 101.499 1194.64 101.113C1194.42 101.334 1194.22 101.52 1194.04 101.671C1193.86 101.823 1193.63 102.015 1193.36 102.25L1191.79 103.53L1190.84 102.312L1194.83 99.2127H1196.33V113.963Z" fill="#EBEBEB"/>
<path opacity="0.5" d="M1319.45 115.963H1317.47V104.509C1317.47 103.851 1317.48 103.323 1317.49 102.925C1317.51 102.527 1317.53 102.114 1317.56 101.686C1317.32 101.93 1317.1 102.137 1316.9 102.305C1316.7 102.474 1316.45 102.688 1316.14 102.948L1314.4 104.371L1313.34 103.017L1317.77 99.5738H1319.45V115.963ZM1332.58 115.963H1330.61V104.509C1330.61 103.851 1330.61 103.323 1330.63 102.925C1330.64 102.527 1330.67 102.114 1330.7 101.686C1330.45 101.93 1330.23 102.137 1330.03 102.305C1329.83 102.474 1329.58 102.688 1329.28 102.948L1327.53 104.371L1326.48 103.017L1330.91 99.5738H1332.58V115.963ZM1345.72 115.963H1343.74V104.509C1343.74 103.851 1343.75 103.323 1343.77 102.925C1343.78 102.527 1343.8 102.114 1343.83 101.686C1343.59 101.93 1343.37 102.137 1343.17 102.305C1342.97 102.474 1342.72 102.688 1342.41 102.948L1340.67 104.371L1339.61 103.017L1344.04 99.5738H1345.72V115.963Z" fill="#EBEBEB"/>
<rect opacity="0.5" x="1280.62" y="70.8628" width="96.0205" height="11.2373" fill="#EBEBEB"/>
<rect opacity="0.5" x="111.508" y="70.8628" width="169.982" height="11.2373" fill="#EBEBEB"/>
<rect opacity="0.5" x="1104.15" y="70.8628" width="169.982" height="11.2373" fill="#EBEBEB"/>
<rect opacity="0.5" x="287.979" y="70.8628" width="266.003" height="11.2373" fill="#EBEBEB"/>
<rect opacity="0.5" x="560.469" y="70.8628" width="264.705" height="11.2373" fill="#EBEBEB"/>
<rect opacity="0.5" x="831.662" y="70.8628" width="266.003" height="11.2373" fill="#EBEBEB"/>
<rect x="9" y="71" width="11" height="11" fill="#8D8D8D"/>
<rect x="26" y="71" width="11" height="11" fill="#8D8D8D"/>
<rect x="43" y="71" width="11" height="11" fill="#8D8D8D"/>
<rect x="60" y="71" width="11" height="11" fill="#8D8D8D"/>
<rect x="77" y="71" width="11" height="11" fill="#8D8D8D"/>
<rect x="94" y="71" width="11" height="11" fill="#8D8D8D"/>
</svg>
