<svg width="1400" height="153" viewBox="0 0 1400 153" fill="none" xmlns="http://www.w3.org/2000/svg">
<path opacity="0.5" d="M1355.69 39.6998C1355.69 40.6914 1355.41 41.4834 1354.86 42.0756C1354.31 42.654 1353.57 43.0396 1352.63 43.2324V43.3151C1353.81 43.4528 1354.69 43.8246 1355.27 44.4306C1355.85 45.0366 1356.14 45.8285 1356.14 46.8063C1356.14 47.6602 1355.94 48.4246 1355.54 49.0994C1355.14 49.7605 1354.52 50.277 1353.68 50.6488C1352.86 51.0207 1351.79 51.2066 1350.48 51.2066C1349.71 51.2066 1348.99 51.1446 1348.33 51.0207C1347.67 50.9105 1347.04 50.7039 1346.43 50.4009V48.7069C1347.05 49.0099 1347.72 49.2509 1348.44 49.43C1349.15 49.5952 1349.84 49.6779 1350.5 49.6779C1351.82 49.6779 1352.77 49.4231 1353.35 48.9135C1353.94 48.3902 1354.24 47.674 1354.24 46.765C1354.24 45.8423 1353.88 45.1812 1353.15 44.7818C1352.43 44.3686 1351.42 44.1621 1350.11 44.1621H1348.68V42.6127H1350.13C1351.34 42.6127 1352.26 42.3579 1352.88 41.8483C1353.51 41.3387 1353.83 40.6639 1353.83 39.8238C1353.83 39.1076 1353.59 38.5567 1353.1 38.1711C1352.62 37.7717 1351.97 37.572 1351.14 37.572C1350.34 37.572 1349.66 37.6891 1349.1 37.9232C1348.53 38.1574 1347.97 38.4535 1347.42 38.8115L1346.51 37.572C1347.04 37.1589 1347.68 36.8008 1348.46 36.4978C1349.24 36.1948 1350.13 36.0433 1351.12 36.0433C1352.66 36.0433 1353.81 36.3876 1354.55 37.0762C1355.31 37.7648 1355.69 38.6394 1355.69 39.6998ZM1368.73 47.6533H1366.58V51H1364.82V47.6533H1357.76V46.104L1364.7 36.1673H1366.58V46.0213H1368.73V47.6533ZM1364.82 41.3732C1364.82 40.657 1364.84 40.051 1364.86 39.5552C1364.89 39.0457 1364.91 38.5636 1364.93 38.1091H1364.84C1364.73 38.3708 1364.6 38.6532 1364.43 38.9561C1364.27 39.2591 1364.11 39.5139 1363.96 39.7205L1359.53 46.0213H1364.82V41.3732ZM1380.55 47.6533H1378.4V51H1376.65V47.6533H1369.58V46.104L1376.52 36.1673H1378.4V46.0213H1380.55V47.6533ZM1376.65 41.3732C1376.65 40.657 1376.66 40.051 1376.69 39.5552C1376.71 39.0457 1376.73 38.5636 1376.75 38.1091H1376.67C1376.56 38.3708 1376.42 38.6532 1376.25 38.9561C1376.09 39.2591 1375.93 39.5139 1375.78 39.7205L1371.36 46.0213H1376.65V41.3732ZM1383.78 51L1389.83 37.9026H1381.88V36.2499H1391.77V37.6547L1385.78 51H1383.78Z" fill="#EBEBEB"/>
<path d="M106.809 41.9516C108.324 41.9516 109.529 42.3304 110.424 43.0878C111.319 43.8453 111.767 44.9127 111.767 46.2899C111.767 47.8186 111.278 49.0237 110.3 49.9051C109.336 50.7728 107.986 51.2066 106.251 51.2066C105.494 51.2066 104.777 51.1377 104.103 51C103.442 50.8623 102.884 50.6626 102.429 50.4009V48.6863C102.925 48.9892 103.524 49.2303 104.227 49.4093C104.943 49.5746 105.624 49.6572 106.272 49.6572C107.36 49.6572 108.234 49.4024 108.895 48.8928C109.57 48.3695 109.908 47.5638 109.908 46.4758C109.908 45.5117 109.612 44.7749 109.019 44.2654C108.427 43.742 107.491 43.4803 106.21 43.4803C105.824 43.4803 105.383 43.5148 104.888 43.5836C104.392 43.6525 103.992 43.7214 103.689 43.7902L102.78 43.2118L103.338 36.2499H110.734V37.9026H104.888L104.536 42.1789C104.771 42.1375 105.087 42.0893 105.487 42.0342C105.886 41.9792 106.327 41.9516 106.809 41.9516ZM118.631 41.9516C120.146 41.9516 121.351 42.3304 122.246 43.0878C123.141 43.8453 123.589 44.9127 123.589 46.2899C123.589 47.8186 123.1 49.0237 122.122 49.9051C121.158 50.7728 119.809 51.2066 118.073 51.2066C117.316 51.2066 116.6 51.1377 115.925 51C115.264 50.8623 114.706 50.6626 114.251 50.4009V48.6863C114.747 48.9892 115.346 49.2303 116.049 49.4093C116.765 49.5746 117.447 49.6572 118.094 49.6572C119.182 49.6572 120.056 49.4024 120.717 48.8928C121.392 48.3695 121.73 47.5638 121.73 46.4758C121.73 45.5117 121.434 44.7749 120.841 44.2654C120.249 43.742 119.313 43.4803 118.032 43.4803C117.646 43.4803 117.206 43.5148 116.71 43.5836C116.214 43.6525 115.815 43.7214 115.512 43.7902L114.603 43.2118L115.16 36.2499H122.556V37.9026H116.71L116.359 42.1789C116.593 42.1375 116.909 42.0893 117.309 42.0342C117.708 41.9792 118.149 41.9516 118.631 41.9516Z" fill="#EBEBEB"/>
<path opacity="0.5" d="M1251.88 39.6998C1251.88 40.6914 1251.61 41.4834 1251.05 42.0756C1250.5 42.654 1249.76 43.0396 1248.82 43.2324V43.3151C1250.01 43.4528 1250.89 43.8246 1251.47 44.4306C1252.05 45.0366 1252.34 45.8285 1252.34 46.8063C1252.34 47.6602 1252.14 48.4246 1251.74 49.0994C1251.34 49.7605 1250.72 50.277 1249.88 50.6488C1249.05 51.0207 1247.98 51.2066 1246.67 51.2066C1245.9 51.2066 1245.19 51.1446 1244.53 51.0207C1243.87 50.9105 1243.23 50.7039 1242.63 50.4009V48.7069C1243.25 49.0099 1243.91 49.2509 1244.63 49.43C1245.35 49.5952 1246.03 49.6779 1246.7 49.6779C1248.02 49.6779 1248.97 49.4231 1249.55 48.9135C1250.14 48.3902 1250.43 47.674 1250.43 46.765C1250.43 45.8423 1250.07 45.1812 1249.34 44.7818C1248.62 44.3686 1247.61 44.1621 1246.3 44.1621H1244.88V42.6127H1246.32C1247.54 42.6127 1248.45 42.3579 1249.07 41.8483C1249.7 41.3387 1250.02 40.6639 1250.02 39.8238C1250.02 39.1076 1249.78 38.5567 1249.3 38.1711C1248.82 37.7717 1248.16 37.572 1247.34 37.572C1246.54 37.572 1245.86 37.6891 1245.29 37.9232C1244.73 38.1574 1244.17 38.4535 1243.62 38.8115L1242.71 37.572C1243.23 37.1589 1243.88 36.8008 1244.65 36.4978C1245.44 36.1948 1246.32 36.0433 1247.32 36.0433C1248.86 36.0433 1250 36.3876 1250.74 37.0762C1251.5 37.7648 1251.88 38.6394 1251.88 39.6998ZM1264.92 47.6533H1262.77V51H1261.02V47.6533H1253.95V46.104L1260.89 36.1673H1262.77V46.0213H1264.92V47.6533ZM1261.02 41.3732C1261.02 40.657 1261.03 40.051 1261.06 39.5552C1261.09 39.0457 1261.11 38.5636 1261.12 38.1091H1261.04C1260.93 38.3708 1260.79 38.6532 1260.62 38.9561C1260.46 39.2591 1260.3 39.5139 1260.15 39.7205L1255.73 46.0213H1261.02V41.3732ZM1276.74 47.6533H1274.6V51H1272.84V47.6533H1265.77V46.104L1272.72 36.1673H1274.6V46.0213H1276.74V47.6533ZM1272.84 41.3732C1272.84 40.657 1272.85 40.051 1272.88 39.5552C1272.91 39.0457 1272.93 38.5636 1272.94 38.1091H1272.86C1272.75 38.3708 1272.61 38.6532 1272.45 38.9561C1272.28 39.2591 1272.12 39.5139 1271.97 39.7205L1267.55 46.0213H1272.84V41.3732ZM1287.9 51H1278.15V49.4919L1282.02 45.5875C1282.76 44.8438 1283.39 44.1827 1283.9 43.6043C1284.41 43.0259 1284.79 42.4612 1285.05 41.9103C1285.32 41.3456 1285.45 40.7328 1285.45 40.0717C1285.45 39.2591 1285.21 38.6463 1284.72 38.2331C1284.24 37.8062 1283.61 37.5927 1282.84 37.5927C1282.13 37.5927 1281.49 37.7166 1280.94 37.9645C1280.41 38.2124 1279.85 38.5567 1279.29 38.9975L1278.32 37.7786C1278.9 37.2966 1279.56 36.8903 1280.3 36.5598C1281.06 36.2155 1281.91 36.0433 1282.84 36.0433C1284.22 36.0433 1285.31 36.3945 1286.11 37.0969C1286.91 37.7855 1287.31 38.7427 1287.31 39.9684C1287.31 40.7397 1287.15 41.4627 1286.83 42.1375C1286.51 42.8124 1286.07 43.4803 1285.51 44.1414C1284.94 44.7887 1284.28 45.4842 1283.53 46.2279L1280.45 49.2647V49.3473H1287.9V51Z" fill="#EBEBEB"/>
<path opacity="0.5" d="M265.758 44.6992C265.758 43.6387 265.848 42.5989 266.027 41.5798C266.22 40.5468 266.557 39.6172 267.039 38.7909C267.535 37.9508 268.224 37.2828 269.105 36.787C269.987 36.2912 271.123 36.0433 272.514 36.0433C272.803 36.0433 273.12 36.0571 273.464 36.0846C273.822 36.1122 274.111 36.1604 274.332 36.2292V37.7786C274.084 37.696 273.801 37.634 273.485 37.5927C273.182 37.5514 272.872 37.5307 272.555 37.5307C271.605 37.5307 270.813 37.6891 270.179 38.0059C269.546 38.3226 269.043 38.7564 268.671 39.3073C268.313 39.8582 268.052 40.4918 267.886 41.2079C267.721 41.9241 267.618 42.6884 267.576 43.501H267.7C268.017 43.019 268.458 42.6127 269.022 42.2821C269.587 41.9378 270.31 41.7657 271.192 41.7657C272.472 41.7657 273.505 42.1582 274.29 42.9432C275.075 43.7145 275.468 44.8162 275.468 46.2486C275.468 47.7911 275.041 49.003 274.187 49.8844C273.347 50.7659 272.211 51.2066 270.778 51.2066C269.842 51.2066 268.995 50.9725 268.237 50.5042C267.48 50.0359 266.874 49.3198 266.42 48.3557C265.979 47.3917 265.758 46.1728 265.758 44.6992ZM270.758 49.6779C271.625 49.6779 272.328 49.4024 272.865 48.8515C273.402 48.2869 273.671 47.4192 273.671 46.2486C273.671 45.312 273.43 44.5683 272.948 44.0175C272.479 43.4666 271.77 43.1911 270.82 43.1911C270.172 43.1911 269.608 43.3288 269.126 43.6043C268.644 43.866 268.265 44.2034 267.99 44.6165C267.728 45.0297 267.597 45.4567 267.597 45.8974C267.597 46.4896 267.714 47.0818 267.948 47.674C268.182 48.2524 268.534 48.7345 269.002 49.1201C269.47 49.4919 270.055 49.6779 270.758 49.6779ZM283.778 51H282.001V40.6914C282.001 40.0992 282.008 39.6241 282.022 39.266C282.036 38.9079 282.057 38.5361 282.084 38.1505C281.864 38.3708 281.664 38.5567 281.485 38.7082C281.306 38.8597 281.079 39.0525 280.803 39.2867L279.233 40.5675L278.283 39.3487L282.27 36.2499H283.778V51ZM299.071 43.6043C299.071 45.1881 298.906 46.5516 298.575 47.6947C298.244 48.824 297.721 49.6916 297.005 50.2976C296.289 50.9036 295.338 51.2066 294.154 51.2066C292.488 51.2066 291.255 50.5386 290.456 49.2027C289.671 47.853 289.279 45.9869 289.279 43.6043C289.279 42.0067 289.437 40.6432 289.754 39.5139C290.084 38.3846 290.608 37.5238 291.324 36.9316C292.04 36.3256 292.983 36.0226 294.154 36.0226C295.807 36.0226 297.039 36.6906 297.852 38.0265C298.664 39.3487 299.071 41.2079 299.071 43.6043ZM291.097 43.6043C291.097 45.6288 291.324 47.1438 291.778 48.1491C292.247 49.1545 293.039 49.6572 294.154 49.6572C295.256 49.6572 296.041 49.1614 296.509 48.1698C296.991 47.1644 297.232 45.6426 297.232 43.6043C297.232 41.5935 296.991 40.0855 296.509 39.0801C296.041 38.0747 295.256 37.572 294.154 37.572C293.039 37.572 292.247 38.0747 291.778 39.0801C291.324 40.0855 291.097 41.5935 291.097 43.6043Z" fill="#EBEBEB"/>
<path opacity="0.5" d="M1089.68 39.6998C1089.68 40.6914 1089.41 41.4834 1088.86 42.0756C1088.31 42.654 1087.56 43.0396 1086.63 43.2324V43.3151C1087.81 43.4528 1088.69 43.8246 1089.27 44.4306C1089.85 45.0366 1090.14 45.8285 1090.14 46.8063C1090.14 47.6602 1089.94 48.4246 1089.54 49.0994C1089.14 49.7605 1088.52 50.277 1087.68 50.6488C1086.85 51.0207 1085.79 51.2066 1084.48 51.2066C1083.71 51.2066 1082.99 51.1446 1082.33 51.0207C1081.67 50.9105 1081.03 50.7039 1080.43 50.4009V48.7069C1081.05 49.0099 1081.72 49.2509 1082.43 49.43C1083.15 49.5952 1083.84 49.6779 1084.5 49.6779C1085.82 49.6779 1086.77 49.4231 1087.35 48.9135C1087.94 48.3902 1088.24 47.674 1088.24 46.765C1088.24 45.8423 1087.87 45.1812 1087.14 44.7818C1086.43 44.3686 1085.41 44.1621 1084.11 44.1621H1082.68V42.6127H1084.13C1085.34 42.6127 1086.25 42.3579 1086.87 41.8483C1087.51 41.3387 1087.82 40.6639 1087.82 39.8238C1087.82 39.1076 1087.58 38.5567 1087.1 38.1711C1086.62 37.7717 1085.97 37.572 1085.14 37.572C1084.34 37.572 1083.66 37.6891 1083.09 37.9232C1082.53 38.1574 1081.97 38.4535 1081.42 38.8115L1080.51 37.572C1081.03 37.1589 1081.68 36.8008 1082.45 36.4978C1083.24 36.1948 1084.13 36.0433 1085.12 36.0433C1086.66 36.0433 1087.8 36.3876 1088.55 37.0762C1089.31 37.7648 1089.68 38.6394 1089.68 39.6998ZM1101.51 39.6998C1101.51 40.6914 1101.23 41.4834 1100.68 42.0756C1100.13 42.654 1099.38 43.0396 1098.45 43.2324V43.3151C1099.63 43.4528 1100.51 43.8246 1101.09 44.4306C1101.67 45.0366 1101.96 45.8285 1101.96 46.8063C1101.96 47.6602 1101.76 48.4246 1101.36 49.0994C1100.96 49.7605 1100.34 50.277 1099.5 50.6488C1098.68 51.0207 1097.61 51.2066 1096.3 51.2066C1095.53 51.2066 1094.81 51.1446 1094.15 51.0207C1093.49 50.9105 1092.86 50.7039 1092.25 50.4009V48.7069C1092.87 49.0099 1093.54 49.2509 1094.25 49.43C1094.97 49.5952 1095.66 49.6779 1096.32 49.6779C1097.64 49.6779 1098.59 49.4231 1099.17 48.9135C1099.76 48.3902 1100.06 47.674 1100.06 46.765C1100.06 45.8423 1099.69 45.1812 1098.96 44.7818C1098.25 44.3686 1097.24 44.1621 1095.93 44.1621H1094.5V42.6127H1095.95C1097.16 42.6127 1098.08 42.3579 1098.7 41.8483C1099.33 41.3387 1099.65 40.6639 1099.65 39.8238C1099.65 39.1076 1099.41 38.5567 1098.92 38.1711C1098.44 37.7717 1097.79 37.572 1096.96 37.572C1096.16 37.572 1095.48 37.6891 1094.92 37.9232C1094.35 38.1574 1093.79 38.4535 1093.24 38.8115L1092.33 37.572C1092.86 37.1589 1093.5 36.8008 1094.28 36.4978C1095.06 36.1948 1095.95 36.0433 1096.94 36.0433C1098.48 36.0433 1099.63 36.3876 1100.37 37.0762C1101.13 37.7648 1101.51 38.6394 1101.51 39.6998ZM1109.03 36.0433C1110.33 36.0433 1111.39 36.3463 1112.21 36.9523C1113.04 37.5583 1113.45 38.4328 1113.45 39.5759C1113.45 40.1681 1113.32 40.6846 1113.06 41.1253C1112.81 41.566 1112.47 41.9585 1112.05 42.3028C1111.62 42.6333 1111.15 42.9294 1110.64 43.1911C1111.25 43.4803 1111.8 43.8109 1112.3 44.1827C1112.79 44.5408 1113.18 44.9609 1113.47 45.4429C1113.78 45.9249 1113.93 46.5034 1113.93 47.1782C1113.93 48.4177 1113.49 49.4024 1112.6 50.1323C1111.74 50.8485 1110.57 51.2066 1109.09 51.2066C1107.51 51.2066 1106.29 50.8623 1105.44 50.1737C1104.58 49.4713 1104.16 48.4934 1104.16 47.2402C1104.16 46.5653 1104.29 45.98 1104.57 45.4842C1104.86 44.9884 1105.24 44.5615 1105.7 44.2034C1106.17 43.8453 1106.68 43.5423 1107.21 43.2944C1106.5 42.8812 1105.88 42.3854 1105.37 41.807C1104.88 41.2148 1104.63 40.4642 1104.63 39.5552C1104.63 38.7978 1104.82 38.1642 1105.21 37.6547C1105.59 37.1313 1106.12 36.7319 1106.78 36.4565C1107.44 36.181 1108.19 36.0433 1109.03 36.0433ZM1109.01 37.5101C1108.25 37.5101 1107.63 37.696 1107.13 38.0678C1106.65 38.4259 1106.41 38.9493 1106.41 39.6379C1106.41 40.1474 1106.52 40.5744 1106.76 40.9187C1107.01 41.263 1107.34 41.5591 1107.75 41.807C1108.16 42.0411 1108.62 42.2684 1109.11 42.4887C1109.83 42.1857 1110.43 41.8208 1110.91 41.3938C1111.41 40.9669 1111.65 40.3816 1111.65 39.6379C1111.65 38.9493 1111.41 38.4259 1110.93 38.0678C1110.45 37.696 1109.81 37.5101 1109.01 37.5101ZM1105.93 47.2608C1105.93 47.977 1106.19 48.5761 1106.7 49.0581C1107.21 49.5264 1107.99 49.7605 1109.05 49.7605C1110.06 49.7605 1110.82 49.5264 1111.34 49.0581C1111.88 48.5761 1112.15 47.9563 1112.15 47.1989C1112.15 46.4827 1111.87 45.8905 1111.3 45.4222C1110.74 44.9402 1109.99 44.5201 1109.05 44.1621L1108.72 44.0381C1107.81 44.4237 1107.12 44.8713 1106.63 45.3809C1106.17 45.8767 1105.93 46.5034 1105.93 47.2608ZM1117.77 51L1123.83 37.9026H1115.87V36.2499H1125.77V37.6547L1119.78 51H1117.77Z" fill="#EBEBEB"/>
<path opacity="0.5" d="M549.637 51H547.86V40.6914C547.86 40.0992 547.867 39.6241 547.881 39.266C547.895 38.9079 547.915 38.5361 547.943 38.1505C547.723 38.3708 547.523 38.5567 547.344 38.7082C547.165 38.8597 546.938 39.0525 546.662 39.2867L545.092 40.5675L544.142 39.3487L548.129 36.2499H549.637V51ZM556.935 51L562.988 37.9026H555.034V36.2499H564.93V37.6547L558.939 51H556.935ZM576.69 51H566.939V49.4919L570.802 45.5875C571.546 44.8438 572.172 44.1827 572.682 43.6043C573.192 43.0259 573.577 42.4612 573.839 41.9103C574.101 41.3456 574.231 40.7328 574.231 40.0717C574.231 39.2591 573.99 38.6463 573.508 38.2331C573.026 37.8062 572.4 37.5927 571.628 37.5927C570.912 37.5927 570.279 37.7166 569.728 37.9645C569.191 38.2124 568.64 38.5567 568.075 38.9975L567.104 37.7786C567.683 37.2966 568.344 36.8903 569.088 36.5598C569.845 36.2155 570.692 36.0433 571.628 36.0433C573.006 36.0433 574.094 36.3945 574.893 37.0969C575.691 37.7855 576.091 38.7427 576.091 39.9684C576.091 40.7397 575.932 41.4627 575.616 42.1375C575.299 42.8124 574.858 43.4803 574.293 44.1414C573.729 44.7887 573.068 45.4842 572.31 46.2279L569.232 49.2647V49.3473H576.69V51ZM585.103 51H583.327V40.6914C583.327 40.0992 583.334 39.6241 583.347 39.266C583.361 38.9079 583.382 38.5361 583.409 38.1505C583.189 38.3708 582.989 38.5567 582.81 38.7082C582.631 38.8597 582.404 39.0525 582.128 39.2867L580.558 40.5675L579.608 39.3487L583.595 36.2499H585.103V51Z" fill="#EBEBEB"/>
<path opacity="0.5" d="M817.751 51H808V49.4919L811.863 45.5875C812.607 44.8438 813.234 44.1827 813.743 43.6043C814.253 43.0259 814.638 42.4612 814.9 41.9103C815.162 41.3456 815.293 40.7328 815.293 40.0717C815.293 39.2591 815.051 38.6463 814.569 38.2331C814.087 37.8062 813.461 37.5927 812.69 37.5927C811.973 37.5927 811.34 37.7166 810.789 37.9645C810.252 38.2124 809.701 38.5567 809.136 38.9975L808.165 37.7786C808.744 37.2966 809.405 36.8903 810.149 36.5598C810.906 36.2155 811.753 36.0433 812.69 36.0433C814.067 36.0433 815.155 36.3945 815.954 37.0969C816.752 37.7855 817.152 38.7427 817.152 39.9684C817.152 40.7397 816.993 41.4627 816.677 42.1375C816.36 42.8124 815.919 43.4803 815.354 44.1414C814.79 44.7887 814.129 45.4842 813.371 46.2279L810.293 49.2647V49.3473H817.751V51ZM824.718 36.0433C826.013 36.0433 827.073 36.3463 827.9 36.9523C828.726 37.5583 829.139 38.4328 829.139 39.5759C829.139 40.1681 829.008 40.6846 828.747 41.1253C828.499 41.566 828.161 41.9585 827.734 42.3028C827.307 42.6333 826.839 42.9294 826.33 43.1911C826.936 43.4803 827.486 43.8109 827.982 44.1827C828.478 44.5408 828.871 44.9609 829.16 45.4429C829.463 45.9249 829.614 46.5034 829.614 47.1782C829.614 48.4177 829.174 49.4024 828.292 50.1323C827.424 50.8485 826.254 51.2066 824.78 51.2066C823.196 51.2066 821.978 50.8623 821.124 50.1737C820.27 49.4713 819.843 48.4934 819.843 47.2402C819.843 46.5653 819.981 45.98 820.256 45.4842C820.545 44.9884 820.924 44.5615 821.392 44.2034C821.86 43.8453 822.363 43.5423 822.9 43.2944C822.184 42.8812 821.571 42.3854 821.062 41.807C820.566 41.2148 820.318 40.4642 820.318 39.5552C820.318 38.7978 820.511 38.1642 820.896 37.6547C821.282 37.1313 821.805 36.7319 822.466 36.4565C823.128 36.181 823.878 36.0433 824.718 36.0433ZM824.698 37.5101C823.94 37.5101 823.313 37.696 822.818 38.0678C822.336 38.4259 822.095 38.9493 822.095 39.6379C822.095 40.1474 822.212 40.5744 822.446 40.9187C822.694 41.263 823.024 41.5591 823.437 41.807C823.851 42.0411 824.305 42.2684 824.801 42.4887C825.517 42.1857 826.116 41.8208 826.598 41.3938C827.094 40.9669 827.342 40.3816 827.342 39.6379C827.342 38.9493 827.101 38.4259 826.619 38.0678C826.137 37.696 825.496 37.5101 824.698 37.5101ZM821.619 47.2608C821.619 47.977 821.874 48.5761 822.384 49.0581C822.893 49.5264 823.678 49.7605 824.739 49.7605C825.744 49.7605 826.509 49.5264 827.032 49.0581C827.569 48.5761 827.838 47.9563 827.838 47.1989C827.838 46.4827 827.555 45.8905 826.991 45.4222C826.426 44.9402 825.675 44.5201 824.739 44.1621L824.408 44.0381C823.499 44.4237 822.804 44.8713 822.322 45.3809C821.854 45.8767 821.619 46.5034 821.619 47.2608ZM840.837 39.6998C840.837 40.6914 840.562 41.4834 840.011 42.0756C839.46 42.654 838.716 43.0396 837.78 43.2324V43.3151C838.964 43.4528 839.846 43.8246 840.424 44.4306C841.003 45.0366 841.292 45.8285 841.292 46.8063C841.292 47.6602 841.092 48.4246 840.693 49.0994C840.293 49.7605 839.674 50.277 838.833 50.6488C838.007 51.0207 836.94 51.2066 835.631 51.2066C834.86 51.2066 834.144 51.1446 833.483 51.0207C832.822 50.9105 832.188 50.7039 831.582 50.4009V48.7069C832.202 49.0099 832.87 49.2509 833.586 49.43C834.302 49.5952 834.991 49.6779 835.652 49.6779C836.974 49.6779 837.924 49.4231 838.503 48.9135C839.095 48.3902 839.391 47.674 839.391 46.765C839.391 45.8423 839.026 45.1812 838.296 44.7818C837.58 44.3686 836.568 44.1621 835.26 44.1621H833.834V42.6127H835.28C836.492 42.6127 837.408 42.3579 838.028 41.8483C838.661 41.3387 838.978 40.6639 838.978 39.8238C838.978 39.1076 838.737 38.5567 838.255 38.1711C837.773 37.7717 837.119 37.572 836.292 37.572C835.494 37.572 834.812 37.6891 834.247 37.9232C833.683 38.1574 833.125 38.4535 832.574 38.8115L831.665 37.572C832.188 37.1589 832.836 36.8008 833.607 36.4978C834.392 36.1948 835.28 36.0433 836.272 36.0433C837.814 36.0433 838.957 36.3876 839.701 37.0762C840.459 37.7648 840.837 38.6394 840.837 39.6998ZM853.217 51H843.466V49.4919L847.33 45.5875C848.073 44.8438 848.7 44.1827 849.209 43.6043C849.719 43.0259 850.105 42.4612 850.366 41.9103C850.628 41.3456 850.759 40.7328 850.759 40.0717C850.759 39.2591 850.518 38.6463 850.036 38.2331C849.554 37.8062 848.927 37.5927 848.156 37.5927C847.44 37.5927 846.806 37.7166 846.255 37.9645C845.718 38.2124 845.167 38.5567 844.603 38.9975L843.632 37.7786C844.21 37.2966 844.871 36.8903 845.615 36.5598C846.372 36.2155 847.219 36.0433 848.156 36.0433C849.533 36.0433 850.621 36.3945 851.42 37.0969C852.219 37.7855 852.618 38.7427 852.618 39.9684C852.618 40.7397 852.46 41.4627 852.143 42.1375C851.826 42.8124 851.385 43.4803 850.821 44.1414C850.256 44.7887 849.595 45.4842 848.838 46.2279L845.759 49.2647V49.3473H853.217V51Z" fill="#EBEBEB"/>
<path d="M47.3073 105.567C47.3073 107.151 47.1421 108.514 46.8115 109.658C46.481 110.787 45.9576 111.654 45.2415 112.26C44.5253 112.866 43.575 113.169 42.3906 113.169C40.7242 113.169 39.4916 112.501 38.6928 111.166C37.9077 109.816 37.5152 107.95 37.5152 105.567C37.5152 103.97 37.6736 102.606 37.9904 101.477C38.3209 100.347 38.8443 99.4867 39.5604 98.8945C40.2766 98.2885 41.22 97.9855 42.3906 97.9855C44.0433 97.9855 45.2759 98.6535 46.0885 99.9894C46.901 101.312 47.3073 103.171 47.3073 105.567ZM39.3332 105.567C39.3332 107.592 39.5604 109.107 40.0149 110.112C40.4832 111.117 41.2751 111.62 42.3906 111.62C43.4924 111.62 44.2774 111.124 44.7457 110.133C45.2277 109.127 45.4687 107.605 45.4687 105.567C45.4687 103.556 45.2277 102.048 44.7457 101.043C44.2774 100.038 43.4924 99.5349 42.3906 99.5349C41.2751 99.5349 40.4832 100.038 40.0149 101.043C39.5604 102.048 39.3332 103.556 39.3332 105.567ZM49.8125 111.847C49.8125 111.338 49.9364 110.98 50.1843 110.773C50.4322 110.566 50.7283 110.463 51.0727 110.463C51.4307 110.463 51.7337 110.566 51.9816 110.773C52.2433 110.98 52.3741 111.338 52.3741 111.847C52.3741 112.343 52.2433 112.701 51.9816 112.922C51.7337 113.142 51.4307 113.252 51.0727 113.252C50.7283 113.252 50.4322 113.142 50.1843 112.922C49.9364 112.701 49.8125 112.343 49.8125 111.847ZM61.1866 112.963H59.4099V102.654C59.4099 102.062 59.4168 101.587 59.4306 101.229C59.4444 100.871 59.465 100.499 59.4926 100.113C59.2722 100.334 59.0725 100.52 58.8935 100.671C58.7144 100.823 58.4872 101.015 58.2117 101.25L56.6417 102.53L55.6914 101.312L59.6785 98.2127H61.1866V112.963ZM73.0087 112.963H71.232V102.654C71.232 102.062 71.2389 101.587 71.2527 101.229C71.2665 100.871 71.2871 100.499 71.3147 100.113C71.0943 100.334 70.8946 100.52 70.7156 100.671C70.5365 100.823 70.3093 101.015 70.0338 101.25L68.4638 102.53L67.5135 101.312L71.5006 98.2127H73.0087V112.963Z" fill="#EBEBEB"/>
<path d="M186.807 105.567C186.807 107.151 186.642 108.514 186.312 109.658C185.981 110.787 185.458 111.654 184.741 112.26C184.025 112.866 183.075 113.169 181.891 113.169C180.224 113.169 178.992 112.501 178.193 111.166C177.408 109.816 177.015 107.95 177.015 105.567C177.015 103.97 177.174 102.606 177.49 101.477C177.821 100.347 178.344 99.4867 179.06 98.8945C179.777 98.2885 180.72 97.9855 181.891 97.9855C183.543 97.9855 184.776 98.6535 185.588 99.9894C186.401 101.312 186.807 103.171 186.807 105.567ZM178.833 105.567C178.833 107.592 179.06 109.107 179.515 110.112C179.983 111.117 180.775 111.62 181.891 111.62C182.992 111.62 183.777 111.124 184.246 110.133C184.728 109.127 184.969 107.605 184.969 105.567C184.969 103.556 184.728 102.048 184.246 101.043C183.777 100.038 182.992 99.5349 181.891 99.5349C180.775 99.5349 179.983 100.038 179.515 101.043C179.06 102.048 178.833 103.556 178.833 105.567ZM189.312 111.847C189.312 111.338 189.436 110.98 189.684 110.773C189.932 110.566 190.228 110.463 190.573 110.463C190.931 110.463 191.234 110.566 191.482 110.773C191.743 110.98 191.874 111.338 191.874 111.847C191.874 112.343 191.743 112.701 191.482 112.922C191.234 113.142 190.931 113.252 190.573 113.252C190.228 113.252 189.932 113.142 189.684 112.922C189.436 112.701 189.312 112.343 189.312 111.847ZM203.537 101.663C203.537 102.654 203.262 103.446 202.711 104.038C202.16 104.617 201.416 105.002 200.48 105.195V105.278C201.664 105.416 202.546 105.788 203.124 106.393C203.703 106.999 203.992 107.791 203.992 108.769C203.992 109.623 203.792 110.387 203.393 111.062C202.993 111.723 202.374 112.24 201.534 112.612C200.707 112.984 199.64 113.169 198.331 113.169C197.56 113.169 196.844 113.107 196.183 112.984C195.522 112.873 194.888 112.667 194.282 112.364V110.67C194.902 110.973 195.57 111.214 196.286 111.393C197.002 111.558 197.691 111.641 198.352 111.641C199.674 111.641 200.625 111.386 201.203 110.876C201.795 110.353 202.091 109.637 202.091 108.728C202.091 107.805 201.726 107.144 200.996 106.745C200.28 106.332 199.268 106.125 197.96 106.125H196.534V104.576H197.98C199.192 104.576 200.108 104.321 200.728 103.811C201.361 103.302 201.678 102.627 201.678 101.787C201.678 101.07 201.437 100.52 200.955 100.134C200.473 99.7346 199.819 99.5349 198.993 99.5349C198.194 99.5349 197.512 99.652 196.947 99.8861C196.383 100.12 195.825 100.416 195.274 100.774L194.365 99.5349C194.888 99.1217 195.536 98.7636 196.307 98.4607C197.092 98.1577 197.98 98.0062 198.972 98.0062C200.514 98.0062 201.657 98.3505 202.401 99.0391C203.159 99.7277 203.537 100.602 203.537 101.663ZM215.36 101.663C215.36 102.654 215.084 103.446 214.533 104.038C213.982 104.617 213.239 105.002 212.302 105.195V105.278C213.486 105.416 214.368 105.788 214.946 106.393C215.525 106.999 215.814 107.791 215.814 108.769C215.814 109.623 215.614 110.387 215.215 111.062C214.816 111.723 214.196 112.24 213.356 112.612C212.529 112.984 211.462 113.169 210.154 113.169C209.382 113.169 208.666 113.107 208.005 112.984C207.344 112.873 206.711 112.667 206.105 112.364V110.67C206.724 110.973 207.392 111.214 208.108 111.393C208.825 111.558 209.513 111.641 210.174 111.641C211.496 111.641 212.447 111.386 213.025 110.876C213.617 110.353 213.913 109.637 213.913 108.728C213.913 107.805 213.548 107.144 212.819 106.745C212.102 106.332 211.09 106.125 209.782 106.125H208.356V104.576H209.802C211.014 104.576 211.93 104.321 212.55 103.811C213.183 103.302 213.5 102.627 213.5 101.787C213.5 101.07 213.259 100.52 212.777 100.134C212.295 99.7346 211.641 99.5349 210.815 99.5349C210.016 99.5349 209.334 99.652 208.769 99.8861C208.205 100.12 207.647 100.416 207.096 100.774L206.187 99.5349C206.711 99.1217 207.358 98.7636 208.129 98.4607C208.914 98.1577 209.802 98.0062 210.794 98.0062C212.337 98.0062 213.48 98.3505 214.223 99.0391C214.981 99.7277 215.36 100.602 215.36 101.663Z" fill="#EBEBEB"/>
<path opacity="0.5" d="M410.638 105.92C410.638 107.504 410.473 108.867 410.143 110.01C409.812 111.14 409.289 112.007 408.573 112.613C407.856 113.219 406.906 113.522 405.722 113.522C404.055 113.522 402.823 112.854 402.024 111.518C401.239 110.169 400.846 108.303 400.846 105.92C400.846 104.322 401.005 102.959 401.322 101.83C401.652 100.7 402.175 99.8396 402.892 99.2474C403.608 98.6414 404.551 98.3384 405.722 98.3384C407.374 98.3384 408.607 99.0064 409.42 100.342C410.232 101.664 410.638 103.524 410.638 105.92ZM402.664 105.92C402.664 107.945 402.892 109.46 403.346 110.465C403.814 111.47 404.606 111.973 405.722 111.973C406.824 111.973 407.609 111.477 408.077 110.486C408.559 109.48 408.8 107.958 408.8 105.92C408.8 103.909 408.559 102.401 408.077 101.396C407.609 100.39 406.824 99.8878 405.722 99.8878C404.606 99.8878 403.814 100.39 403.346 101.396C402.892 102.401 402.664 103.909 402.664 105.92ZM413.144 112.2C413.144 111.691 413.268 111.333 413.515 111.126C413.763 110.919 414.059 110.816 414.404 110.816C414.762 110.816 415.065 110.919 415.313 111.126C415.574 111.333 415.705 111.691 415.705 112.2C415.705 112.696 415.574 113.054 415.313 113.274C415.065 113.495 414.762 113.605 414.404 113.605C414.059 113.605 413.763 113.495 413.515 113.274C413.268 113.054 413.144 112.696 413.144 112.2ZM418.32 107.015C418.32 105.954 418.41 104.915 418.589 103.896C418.782 102.863 419.119 101.933 419.601 101.107C420.097 100.267 420.785 99.5986 421.667 99.1028C422.548 98.607 423.684 98.3591 425.075 98.3591C425.365 98.3591 425.681 98.3729 426.026 98.4004C426.384 98.4279 426.673 98.4761 426.893 98.545V100.094C426.646 100.012 426.363 99.9498 426.046 99.9085C425.743 99.8671 425.434 99.8465 425.117 99.8465C424.167 99.8465 423.375 100.005 422.741 100.322C422.108 100.638 421.605 101.072 421.233 101.623C420.875 102.174 420.613 102.808 420.448 103.524C420.283 104.24 420.179 105.004 420.138 105.817H420.262C420.579 105.335 421.02 104.928 421.584 104.598C422.149 104.254 422.872 104.081 423.753 104.081C425.034 104.081 426.067 104.474 426.852 105.259C427.637 106.03 428.03 107.132 428.03 108.564C428.03 110.107 427.603 111.319 426.749 112.2C425.909 113.082 424.773 113.522 423.34 113.522C422.404 113.522 421.557 113.288 420.799 112.82C420.042 112.352 419.436 111.636 418.981 110.671C418.541 109.707 418.32 108.489 418.32 107.015ZM423.32 111.994C424.187 111.994 424.89 111.718 425.427 111.167C425.964 110.603 426.232 109.735 426.232 108.564C426.232 107.628 425.991 106.884 425.509 106.333C425.041 105.782 424.332 105.507 423.382 105.507C422.734 105.507 422.17 105.645 421.688 105.92C421.205 106.182 420.827 106.519 420.551 106.932C420.29 107.345 420.159 107.772 420.159 108.213C420.159 108.805 420.276 109.398 420.51 109.99C420.744 110.568 421.095 111.05 421.564 111.436C422.032 111.808 422.617 111.994 423.32 111.994ZM430.142 107.015C430.142 105.954 430.232 104.915 430.411 103.896C430.604 102.863 430.941 101.933 431.423 101.107C431.919 100.267 432.608 99.5986 433.489 99.1028C434.37 98.607 435.507 98.3591 436.898 98.3591C437.187 98.3591 437.504 98.3729 437.848 98.4004C438.206 98.4279 438.495 98.4761 438.716 98.545V100.094C438.468 100.012 438.185 99.9498 437.869 99.9085C437.566 99.8671 437.256 99.8465 436.939 99.8465C435.989 99.8465 435.197 100.005 434.563 100.322C433.93 100.638 433.427 101.072 433.055 101.623C432.697 102.174 432.435 102.808 432.27 103.524C432.105 104.24 432.002 105.004 431.96 105.817H432.084C432.401 105.335 432.842 104.928 433.406 104.598C433.971 104.254 434.694 104.081 435.575 104.081C436.856 104.081 437.889 104.474 438.674 105.259C439.459 106.03 439.852 107.132 439.852 108.564C439.852 110.107 439.425 111.319 438.571 112.2C437.731 113.082 436.595 113.522 435.162 113.522C434.226 113.522 433.379 113.288 432.621 112.82C431.864 112.352 431.258 111.636 430.803 110.671C430.363 109.707 430.142 108.489 430.142 107.015ZM435.142 111.994C436.009 111.994 436.712 111.718 437.249 111.167C437.786 110.603 438.054 109.735 438.054 108.564C438.054 107.628 437.813 106.884 437.331 106.333C436.863 105.782 436.154 105.507 435.204 105.507C434.556 105.507 433.992 105.645 433.51 105.92C433.028 106.182 432.649 106.519 432.373 106.932C432.112 107.345 431.981 107.772 431.981 108.213C431.981 108.805 432.098 109.398 432.332 109.99C432.566 110.568 432.917 111.05 433.386 111.436C433.854 111.808 434.439 111.994 435.142 111.994Z" fill="#EBEBEB"/>
<path opacity="0.5" d="M681.918 113.316H680.141V103.007C680.141 102.415 680.148 101.94 680.162 101.582C680.175 101.224 680.196 100.852 680.224 100.466C680.003 100.687 679.804 100.873 679.624 101.024C679.445 101.176 679.218 101.368 678.943 101.602L677.373 102.883L676.422 101.664L680.409 98.5657H681.918V113.316Z" fill="#EBEBEB"/>
<path opacity="0.5" d="M969.274 101.663C969.274 102.654 968.998 103.446 968.447 104.038C967.896 104.617 967.153 105.002 966.216 105.195V105.278C967.401 105.416 968.282 105.788 968.86 106.393C969.439 106.999 969.728 107.791 969.728 108.769C969.728 109.623 969.528 110.387 969.129 111.062C968.73 111.723 968.11 112.24 967.27 112.612C966.443 112.984 965.376 113.169 964.068 113.169C963.296 113.169 962.58 113.107 961.919 112.984C961.258 112.873 960.625 112.667 960.019 112.364V110.67C960.638 110.973 961.306 111.214 962.022 111.393C962.739 111.558 963.427 111.641 964.088 111.641C965.41 111.641 966.361 111.386 966.939 110.876C967.531 110.353 967.827 109.637 967.827 108.728C967.827 107.805 967.462 107.144 966.733 106.745C966.016 106.332 965.004 106.125 963.696 106.125H962.27V104.576H963.716C964.928 104.576 965.844 104.321 966.464 103.811C967.098 103.302 967.414 102.627 967.414 101.787C967.414 101.07 967.173 100.52 966.691 100.134C966.209 99.7346 965.555 99.5349 964.729 99.5349C963.93 99.5349 963.248 99.652 962.684 99.8861C962.119 100.12 961.561 100.416 961.01 100.774L960.101 99.5349C960.625 99.1217 961.272 98.7636 962.043 98.4607C962.828 98.1577 963.716 98.0062 964.708 98.0062C966.251 98.0062 967.394 98.3505 968.137 99.0391C968.895 99.7277 969.274 100.602 969.274 101.663Z" fill="#EBEBEB"/>
<path opacity="0.5" d="M1184.51 112.963H1182.74V102.654C1182.74 102.062 1182.74 101.587 1182.76 101.229C1182.77 100.871 1182.79 100.499 1182.82 100.113C1182.6 100.334 1182.4 100.52 1182.22 100.671C1182.04 100.823 1181.81 101.015 1181.54 101.25L1179.97 102.53L1179.02 101.312L1183 98.2127H1184.51V112.963ZM1196.33 112.963H1194.56V102.654C1194.56 102.062 1194.56 101.587 1194.58 101.229C1194.59 100.871 1194.61 100.499 1194.64 100.113C1194.42 100.334 1194.22 100.52 1194.04 100.671C1193.86 100.823 1193.63 101.015 1193.36 101.25L1191.79 102.53L1190.84 101.312L1194.83 98.2127H1196.33V112.963Z" fill="#EBEBEB"/>
<path opacity="0.5" d="M1319.45 114.963H1317.47V103.509C1317.47 102.851 1317.48 102.323 1317.49 101.925C1317.51 101.527 1317.53 101.114 1317.56 100.686C1317.32 100.93 1317.1 101.137 1316.9 101.305C1316.7 101.474 1316.45 101.688 1316.14 101.948L1314.4 103.371L1313.34 102.017L1317.77 98.5738H1319.45V114.963ZM1332.58 114.963H1330.61V103.509C1330.61 102.851 1330.61 102.323 1330.63 101.925C1330.64 101.527 1330.67 101.114 1330.7 100.686C1330.45 100.93 1330.23 101.137 1330.03 101.305C1329.83 101.474 1329.58 101.688 1329.28 101.948L1327.53 103.371L1326.48 102.017L1330.91 98.5738H1332.58V114.963ZM1345.72 114.963H1343.74V103.509C1343.74 102.851 1343.75 102.323 1343.77 101.925C1343.78 101.527 1343.8 101.114 1343.83 100.686C1343.59 100.93 1343.37 101.137 1343.17 101.305C1342.97 101.474 1342.72 101.688 1342.41 101.948L1340.67 103.371L1339.61 102.017L1344.04 98.5738H1345.72V114.963Z" fill="#EBEBEB"/>
<rect x="9" y="69.8628" width="96.0205" height="11.2373" fill="#EBEBEB"/>
<rect opacity="0.5" x="1280.62" y="69.8628" width="96.0205" height="11.2373" fill="#EBEBEB"/>
<rect opacity="0.5" x="1104.15" y="69.8628" width="169.982" height="11.2373" fill="#EBEBEB"/>
<rect opacity="0.5" x="287.979" y="69.8628" width="266.003" height="11.2373" fill="#EBEBEB"/>
<rect opacity="0.5" x="560.469" y="69.8628" width="264.705" height="11.2373" fill="#EBEBEB"/>
<rect opacity="0.5" x="831.662" y="69.8628" width="266.003" height="11.2373" fill="#EBEBEB"/>
<rect x="113" y="70" width="11" height="11" fill="#8D8D8D"/>
<rect x="130" y="70" width="11" height="11" fill="#8D8D8D"/>
<rect x="147" y="70" width="11" height="11" fill="#8D8D8D"/>
<rect x="164" y="70" width="11" height="11" fill="#8D8D8D"/>
<rect x="215" y="70" width="11" height="11" fill="#8D8D8D"/>
<rect x="181" y="70" width="11" height="11" fill="#8D8D8D"/>
<rect x="232" y="70" width="11" height="11" fill="#8D8D8D"/>
<rect x="198" y="70" width="11" height="11" fill="#8D8D8D"/>
<rect x="249" y="70" width="11" height="11" fill="#8D8D8D"/>
<rect x="266" y="70" width="11" height="11" fill="#8D8D8D"/>
</svg>
