<svg width="1400" height="153" viewBox="0 0 1400 153" fill="none" xmlns="http://www.w3.org/2000/svg">
<path opacity="0.5" d="M1355.69 39.737C1355.69 40.7286 1355.41 41.5205 1354.86 42.1127C1354.31 42.6911 1353.57 43.0767 1352.63 43.2695V43.3522C1353.81 43.4899 1354.69 43.8618 1355.27 44.4677C1355.85 45.0737 1356.14 45.8656 1356.14 46.8435C1356.14 47.6973 1355.94 48.4617 1355.54 49.1365C1355.14 49.7976 1354.52 50.3141 1353.68 50.6859C1352.86 51.0578 1351.79 51.2437 1350.48 51.2437C1349.71 51.2437 1348.99 51.1817 1348.33 51.0578C1347.67 50.9476 1347.04 50.741 1346.43 50.438V48.744C1347.05 49.047 1347.72 49.288 1348.44 49.4671C1349.15 49.6323 1349.84 49.715 1350.5 49.715C1351.82 49.715 1352.77 49.4602 1353.35 48.9506C1353.94 48.4273 1354.24 47.7111 1354.24 46.8021C1354.24 45.8794 1353.88 45.2183 1353.15 44.8189C1352.43 44.4058 1351.42 44.1992 1350.11 44.1992H1348.68V42.6498H1350.13C1351.34 42.6498 1352.26 42.395 1352.88 41.8854C1353.51 41.3759 1353.83 40.701 1353.83 39.8609C1353.83 39.1447 1353.59 38.5939 1353.1 38.2082C1352.62 37.8088 1351.97 37.6091 1351.14 37.6091C1350.34 37.6091 1349.66 37.7262 1349.1 37.9603C1348.53 38.1945 1347.97 38.4906 1347.42 38.8486L1346.51 37.6091C1347.04 37.196 1347.68 36.8379 1348.46 36.5349C1349.24 36.2319 1350.13 36.0804 1351.12 36.0804C1352.66 36.0804 1353.81 36.4247 1354.55 37.1133C1355.31 37.802 1355.69 38.6765 1355.69 39.737ZM1368.73 47.6904H1366.58V51.0371H1364.82V47.6904H1357.76V46.1411L1364.7 36.2044H1366.58V46.0584H1368.73V47.6904ZM1364.82 41.4103C1364.82 40.6941 1364.84 40.0881 1364.86 39.5923C1364.89 39.0828 1364.91 38.6007 1364.93 38.1463H1364.84C1364.73 38.4079 1364.6 38.6903 1364.43 38.9933C1364.27 39.2962 1364.11 39.551 1363.96 39.7576L1359.53 46.0584H1364.82V41.4103ZM1380.55 47.6904H1378.4V51.0371H1376.65V47.6904H1369.58V46.1411L1376.52 36.2044H1378.4V46.0584H1380.55V47.6904ZM1376.65 41.4103C1376.65 40.6941 1376.66 40.0881 1376.69 39.5923C1376.71 39.0828 1376.73 38.6007 1376.75 38.1463H1376.67C1376.56 38.4079 1376.42 38.6903 1376.25 38.9933C1376.09 39.2962 1375.93 39.551 1375.78 39.7576L1371.36 46.0584H1376.65V41.4103ZM1383.78 51.0371L1389.83 37.9397H1381.88V36.287H1391.77V37.6918L1385.78 51.0371H1383.78Z" fill="#EBEBEB"/>
<path d="M106.809 41.9887C108.324 41.9887 109.529 42.3675 110.424 43.1249C111.319 43.8824 111.767 44.9498 111.767 46.327C111.767 47.8557 111.278 49.0608 110.3 49.9422C109.336 50.8099 107.986 51.2437 106.251 51.2437C105.494 51.2437 104.777 51.1748 104.103 51.0371C103.442 50.8994 102.884 50.6997 102.429 50.438V48.7234C102.925 49.0264 103.524 49.2674 104.227 49.4464C104.943 49.6117 105.624 49.6943 106.272 49.6943C107.36 49.6943 108.234 49.4395 108.895 48.93C109.57 48.4066 109.908 47.6009 109.908 46.5129C109.908 45.5489 109.612 44.812 109.019 44.3025C108.427 43.7791 107.491 43.5174 106.21 43.5174C105.824 43.5174 105.383 43.5519 104.888 43.6207C104.392 43.6896 103.992 43.7585 103.689 43.8273L102.78 43.2489L103.338 36.287H110.734V37.9397H104.888L104.536 42.216C104.771 42.1746 105.087 42.1264 105.487 42.0714C105.886 42.0163 106.327 41.9887 106.809 41.9887ZM118.631 41.9887C120.146 41.9887 121.351 42.3675 122.246 43.1249C123.141 43.8824 123.589 44.9498 123.589 46.327C123.589 47.8557 123.1 49.0608 122.122 49.9422C121.158 50.8099 119.809 51.2437 118.073 51.2437C117.316 51.2437 116.6 51.1748 115.925 51.0371C115.264 50.8994 114.706 50.6997 114.251 50.438V48.7234C114.747 49.0264 115.346 49.2674 116.049 49.4464C116.765 49.6117 117.447 49.6943 118.094 49.6943C119.182 49.6943 120.056 49.4395 120.717 48.93C121.392 48.4066 121.73 47.6009 121.73 46.5129C121.73 45.5489 121.434 44.812 120.841 44.3025C120.249 43.7791 119.313 43.5174 118.032 43.5174C117.646 43.5174 117.206 43.5519 116.71 43.6207C116.214 43.6896 115.815 43.7585 115.512 43.8273L114.603 43.2489L115.16 36.287H122.556V37.9397H116.71L116.359 42.216C116.593 42.1746 116.909 42.1264 117.309 42.0714C117.708 42.0163 118.149 41.9887 118.631 41.9887Z" fill="#EBEBEB"/>
<path d="M1251.88 39.737C1251.88 40.7286 1251.61 41.5205 1251.05 42.1127C1250.5 42.6911 1249.76 43.0767 1248.82 43.2695V43.3522C1250.01 43.4899 1250.89 43.8618 1251.47 44.4677C1252.05 45.0737 1252.34 45.8656 1252.34 46.8435C1252.34 47.6973 1252.14 48.4617 1251.74 49.1365C1251.34 49.7976 1250.72 50.3141 1249.88 50.6859C1249.05 51.0578 1247.98 51.2437 1246.67 51.2437C1245.9 51.2437 1245.19 51.1817 1244.53 51.0578C1243.87 50.9476 1243.23 50.741 1242.63 50.438V48.744C1243.25 49.047 1243.91 49.288 1244.63 49.4671C1245.35 49.6323 1246.03 49.715 1246.7 49.715C1248.02 49.715 1248.97 49.4602 1249.55 48.9506C1250.14 48.4273 1250.43 47.7111 1250.43 46.8021C1250.43 45.8794 1250.07 45.2183 1249.34 44.8189C1248.62 44.4058 1247.61 44.1992 1246.3 44.1992H1244.88V42.6498H1246.32C1247.54 42.6498 1248.45 42.395 1249.07 41.8854C1249.7 41.3759 1250.02 40.701 1250.02 39.8609C1250.02 39.1447 1249.78 38.5939 1249.3 38.2082C1248.82 37.8088 1248.16 37.6091 1247.34 37.6091C1246.54 37.6091 1245.86 37.7262 1245.29 37.9603C1244.73 38.1945 1244.17 38.4906 1243.62 38.8486L1242.71 37.6091C1243.23 37.196 1243.88 36.8379 1244.65 36.5349C1245.44 36.2319 1246.32 36.0804 1247.32 36.0804C1248.86 36.0804 1250 36.4247 1250.74 37.1133C1251.5 37.802 1251.88 38.6765 1251.88 39.737ZM1264.92 47.6904H1262.77V51.0371H1261.02V47.6904H1253.95V46.1411L1260.89 36.2044H1262.77V46.0584H1264.92V47.6904ZM1261.02 41.4103C1261.02 40.6941 1261.03 40.0881 1261.06 39.5923C1261.09 39.0828 1261.11 38.6007 1261.12 38.1463H1261.04C1260.93 38.4079 1260.79 38.6903 1260.62 38.9933C1260.46 39.2962 1260.3 39.551 1260.15 39.7576L1255.73 46.0584H1261.02V41.4103ZM1276.74 47.6904H1274.6V51.0371H1272.84V47.6904H1265.77V46.1411L1272.72 36.2044H1274.6V46.0584H1276.74V47.6904ZM1272.84 41.4103C1272.84 40.6941 1272.85 40.0881 1272.88 39.5923C1272.91 39.0828 1272.93 38.6007 1272.94 38.1463H1272.86C1272.75 38.4079 1272.61 38.6903 1272.45 38.9933C1272.28 39.2962 1272.12 39.551 1271.97 39.7576L1267.55 46.0584H1272.84V41.4103ZM1287.9 51.0371H1278.15V49.529L1282.02 45.6246C1282.76 44.8809 1283.39 44.2198 1283.9 43.6414C1284.41 43.063 1284.79 42.4983 1285.05 41.9474C1285.32 41.3827 1285.45 40.7699 1285.45 40.1088C1285.45 39.2962 1285.21 38.6834 1284.72 38.2702C1284.24 37.8433 1283.61 37.6298 1282.84 37.6298C1282.13 37.6298 1281.49 37.7537 1280.94 38.0016C1280.41 38.2495 1279.85 38.5939 1279.29 39.0346L1278.32 37.8157C1278.9 37.3337 1279.56 36.9274 1280.3 36.5969C1281.06 36.2526 1281.91 36.0804 1282.84 36.0804C1284.22 36.0804 1285.31 36.4316 1286.11 37.134C1286.91 37.8226 1287.31 38.7798 1287.31 40.0055C1287.31 40.7768 1287.15 41.4998 1286.83 42.1746C1286.51 42.8495 1286.07 43.5174 1285.51 44.1785C1284.94 44.8258 1284.28 45.5213 1283.53 46.265L1280.45 49.3018V49.3844H1287.9V51.0371Z" fill="#EBEBEB"/>
<path d="M265.758 44.7363C265.758 43.6758 265.848 42.636 266.027 41.6169C266.22 40.584 266.557 39.6543 267.039 38.828C267.535 37.9879 268.224 37.3199 269.105 36.8241C269.987 36.3283 271.123 36.0804 272.514 36.0804C272.803 36.0804 273.12 36.0942 273.464 36.1217C273.822 36.1493 274.111 36.1975 274.332 36.2663V37.8157C274.084 37.7331 273.801 37.6711 273.485 37.6298C273.182 37.5885 272.872 37.5678 272.555 37.5678C271.605 37.5678 270.813 37.7262 270.179 38.043C269.546 38.3597 269.043 38.7936 268.671 39.3444C268.313 39.8953 268.052 40.5289 267.886 41.245C267.721 41.9612 267.618 42.7255 267.576 43.5381H267.7C268.017 43.0561 268.458 42.6498 269.022 42.3193C269.587 41.975 270.31 41.8028 271.192 41.8028C272.472 41.8028 273.505 42.1953 274.29 42.9803C275.075 43.7516 275.468 44.8534 275.468 46.2857C275.468 47.8282 275.041 49.0401 274.187 49.9216C273.347 50.803 272.211 51.2437 270.778 51.2437C269.842 51.2437 268.995 51.0096 268.237 50.5413C267.48 50.073 266.874 49.3569 266.42 48.3928C265.979 47.4288 265.758 46.2099 265.758 44.7363ZM270.758 49.715C271.625 49.715 272.328 49.4395 272.865 48.8886C273.402 48.324 273.671 47.4563 273.671 46.2857C273.671 45.3492 273.43 44.6055 272.948 44.0546C272.479 43.5037 271.77 43.2282 270.82 43.2282C270.172 43.2282 269.608 43.366 269.126 43.6414C268.644 43.9031 268.265 44.2405 267.99 44.6537C267.728 45.0668 267.597 45.4938 267.597 45.9345C267.597 46.5267 267.714 47.1189 267.948 47.7111C268.182 48.2895 268.534 48.7716 269.002 49.1572C269.47 49.529 270.055 49.715 270.758 49.715ZM283.778 51.0371H282.001V40.7286C282.001 40.1364 282.008 39.6612 282.022 39.3031C282.036 38.945 282.057 38.5732 282.084 38.1876C281.864 38.4079 281.664 38.5939 281.485 38.7454C281.306 38.8968 281.079 39.0897 280.803 39.3238L279.233 40.6046L278.283 39.3858L282.27 36.287H283.778V51.0371ZM299.071 43.6414C299.071 45.2252 298.906 46.5887 298.575 47.7318C298.244 48.8611 297.721 49.7287 297.005 50.3347C296.289 50.9407 295.338 51.2437 294.154 51.2437C292.488 51.2437 291.255 50.5757 290.456 49.2398C289.671 47.8901 289.279 46.024 289.279 43.6414C289.279 42.0438 289.437 40.6804 289.754 39.551C290.084 38.4217 290.608 37.5609 291.324 36.9687C292.04 36.3627 292.983 36.0598 294.154 36.0598C295.807 36.0598 297.039 36.7277 297.852 38.0636C298.664 39.3858 299.071 41.245 299.071 43.6414ZM291.097 43.6414C291.097 45.6659 291.324 47.1809 291.778 48.1862C292.247 49.1916 293.039 49.6943 294.154 49.6943C295.256 49.6943 296.041 49.1985 296.509 48.2069C296.991 47.2015 297.232 45.6797 297.232 43.6414C297.232 41.6306 296.991 40.1226 296.509 39.1172C296.041 38.1118 295.256 37.6091 294.154 37.6091C293.039 37.6091 292.247 38.1118 291.778 39.1172C291.324 40.1226 291.097 41.6306 291.097 43.6414Z" fill="#EBEBEB"/>
<path d="M1089.68 39.737C1089.68 40.7286 1089.41 41.5205 1088.86 42.1127C1088.31 42.6911 1087.56 43.0767 1086.63 43.2695V43.3522C1087.81 43.4899 1088.69 43.8618 1089.27 44.4677C1089.85 45.0737 1090.14 45.8656 1090.14 46.8435C1090.14 47.6973 1089.94 48.4617 1089.54 49.1365C1089.14 49.7976 1088.52 50.3141 1087.68 50.6859C1086.85 51.0578 1085.79 51.2437 1084.48 51.2437C1083.71 51.2437 1082.99 51.1817 1082.33 51.0578C1081.67 50.9476 1081.03 50.741 1080.43 50.438V48.744C1081.05 49.047 1081.72 49.288 1082.43 49.4671C1083.15 49.6323 1083.84 49.715 1084.5 49.715C1085.82 49.715 1086.77 49.4602 1087.35 48.9506C1087.94 48.4273 1088.24 47.7111 1088.24 46.8021C1088.24 45.8794 1087.87 45.2183 1087.14 44.8189C1086.43 44.4058 1085.41 44.1992 1084.11 44.1992H1082.68V42.6498H1084.13C1085.34 42.6498 1086.25 42.395 1086.87 41.8854C1087.51 41.3759 1087.82 40.701 1087.82 39.8609C1087.82 39.1447 1087.58 38.5939 1087.1 38.2082C1086.62 37.8088 1085.97 37.6091 1085.14 37.6091C1084.34 37.6091 1083.66 37.7262 1083.09 37.9603C1082.53 38.1945 1081.97 38.4906 1081.42 38.8486L1080.51 37.6091C1081.03 37.196 1081.68 36.8379 1082.45 36.5349C1083.24 36.2319 1084.13 36.0804 1085.12 36.0804C1086.66 36.0804 1087.8 36.4247 1088.55 37.1133C1089.31 37.802 1089.68 38.6765 1089.68 39.737ZM1101.51 39.737C1101.51 40.7286 1101.23 41.5205 1100.68 42.1127C1100.13 42.6911 1099.38 43.0767 1098.45 43.2695V43.3522C1099.63 43.4899 1100.51 43.8618 1101.09 44.4677C1101.67 45.0737 1101.96 45.8656 1101.96 46.8435C1101.96 47.6973 1101.76 48.4617 1101.36 49.1365C1100.96 49.7976 1100.34 50.3141 1099.5 50.6859C1098.68 51.0578 1097.61 51.2437 1096.3 51.2437C1095.53 51.2437 1094.81 51.1817 1094.15 51.0578C1093.49 50.9476 1092.86 50.741 1092.25 50.438V48.744C1092.87 49.047 1093.54 49.288 1094.25 49.4671C1094.97 49.6323 1095.66 49.715 1096.32 49.715C1097.64 49.715 1098.59 49.4602 1099.17 48.9506C1099.76 48.4273 1100.06 47.7111 1100.06 46.8021C1100.06 45.8794 1099.69 45.2183 1098.96 44.8189C1098.25 44.4058 1097.24 44.1992 1095.93 44.1992H1094.5V42.6498H1095.95C1097.16 42.6498 1098.08 42.395 1098.7 41.8854C1099.33 41.3759 1099.65 40.701 1099.65 39.8609C1099.65 39.1447 1099.41 38.5939 1098.92 38.2082C1098.44 37.8088 1097.79 37.6091 1096.96 37.6091C1096.16 37.6091 1095.48 37.7262 1094.92 37.9603C1094.35 38.1945 1093.79 38.4906 1093.24 38.8486L1092.33 37.6091C1092.86 37.196 1093.5 36.8379 1094.28 36.5349C1095.06 36.2319 1095.95 36.0804 1096.94 36.0804C1098.48 36.0804 1099.63 36.4247 1100.37 37.1133C1101.13 37.802 1101.51 38.6765 1101.51 39.737ZM1109.03 36.0804C1110.33 36.0804 1111.39 36.3834 1112.21 36.9894C1113.04 37.5954 1113.45 38.4699 1113.45 39.613C1113.45 40.2052 1113.32 40.7217 1113.06 41.1624C1112.81 41.6031 1112.47 41.9956 1112.05 42.3399C1111.62 42.6705 1111.15 42.9666 1110.64 43.2282C1111.25 43.5174 1111.8 43.848 1112.3 44.2198C1112.79 44.5779 1113.18 44.998 1113.47 45.48C1113.78 45.962 1113.93 46.5405 1113.93 47.2153C1113.93 48.4548 1113.49 49.4395 1112.6 50.1695C1111.74 50.8856 1110.57 51.2437 1109.09 51.2437C1107.51 51.2437 1106.29 50.8994 1105.44 50.2108C1104.58 49.5084 1104.16 48.5306 1104.16 47.2773C1104.16 46.6024 1104.29 46.0171 1104.57 45.5213C1104.86 45.0255 1105.24 44.5986 1105.7 44.2405C1106.17 43.8824 1106.68 43.5794 1107.21 43.3315C1106.5 42.9184 1105.88 42.4225 1105.37 41.8441C1104.88 41.2519 1104.63 40.5013 1104.63 39.5923C1104.63 38.8349 1104.82 38.2013 1105.21 37.6918C1105.59 37.1684 1106.12 36.769 1106.78 36.4936C1107.44 36.2181 1108.19 36.0804 1109.03 36.0804ZM1109.01 37.5472C1108.25 37.5472 1107.63 37.7331 1107.13 38.1049C1106.65 38.463 1106.41 38.9864 1106.41 39.675C1106.41 40.1846 1106.52 40.6115 1106.76 40.9558C1107.01 41.3001 1107.34 41.5962 1107.75 41.8441C1108.16 42.0782 1108.62 42.3055 1109.11 42.5258C1109.83 42.2229 1110.43 41.8579 1110.91 41.4309C1111.41 41.004 1111.65 40.4187 1111.65 39.675C1111.65 38.9864 1111.41 38.463 1110.93 38.1049C1110.45 37.7331 1109.81 37.5472 1109.01 37.5472ZM1105.93 47.2979C1105.93 48.0141 1106.19 48.6132 1106.7 49.0952C1107.21 49.5635 1107.99 49.7976 1109.05 49.7976C1110.06 49.7976 1110.82 49.5635 1111.34 49.0952C1111.88 48.6132 1112.15 47.9934 1112.15 47.236C1112.15 46.5198 1111.87 45.9276 1111.3 45.4593C1110.74 44.9773 1109.99 44.5573 1109.05 44.1992L1108.72 44.0752C1107.81 44.4608 1107.12 44.9084 1106.63 45.418C1106.17 45.9138 1105.93 46.5405 1105.93 47.2979ZM1117.77 51.0371L1123.83 37.9397H1115.87V36.287H1125.77V37.6918L1119.78 51.0371H1117.77Z" fill="#EBEBEB"/>
<path d="M549.637 51.0371H547.86V40.7286C547.86 40.1364 547.867 39.6612 547.881 39.3031C547.895 38.945 547.915 38.5732 547.943 38.1876C547.723 38.4079 547.523 38.5939 547.344 38.7454C547.165 38.8968 546.938 39.0897 546.662 39.3238L545.092 40.6046L544.142 39.3858L548.129 36.287H549.637V51.0371ZM556.935 51.0371L562.988 37.9397H555.034V36.287H564.93V37.6918L558.939 51.0371H556.935ZM576.69 51.0371H566.939V49.529L570.802 45.6246C571.546 44.8809 572.172 44.2198 572.682 43.6414C573.192 43.063 573.577 42.4983 573.839 41.9474C574.101 41.3827 574.231 40.7699 574.231 40.1088C574.231 39.2962 573.99 38.6834 573.508 38.2702C573.026 37.8433 572.4 37.6298 571.628 37.6298C570.912 37.6298 570.279 37.7537 569.728 38.0016C569.191 38.2495 568.64 38.5939 568.075 39.0346L567.104 37.8157C567.683 37.3337 568.344 36.9274 569.088 36.5969C569.845 36.2526 570.692 36.0804 571.628 36.0804C573.006 36.0804 574.094 36.4316 574.893 37.134C575.691 37.8226 576.091 38.7798 576.091 40.0055C576.091 40.7768 575.932 41.4998 575.616 42.1746C575.299 42.8495 574.858 43.5174 574.293 44.1785C573.729 44.8258 573.068 45.5213 572.31 46.265L569.232 49.3018V49.3844H576.69V51.0371ZM585.103 51.0371H583.327V40.7286C583.327 40.1364 583.334 39.6612 583.347 39.3031C583.361 38.945 583.382 38.5732 583.409 38.1876C583.189 38.4079 582.989 38.5939 582.81 38.7454C582.631 38.8968 582.404 39.0897 582.128 39.3238L580.558 40.6046L579.608 39.3858L583.595 36.287H585.103V51.0371Z" fill="#EBEBEB"/>
<path d="M817.751 51.0371H808V49.529L811.863 45.6246C812.607 44.8809 813.234 44.2198 813.743 43.6414C814.253 43.063 814.638 42.4983 814.9 41.9474C815.162 41.3827 815.293 40.7699 815.293 40.1088C815.293 39.2962 815.051 38.6834 814.569 38.2702C814.087 37.8433 813.461 37.6298 812.69 37.6298C811.973 37.6298 811.34 37.7537 810.789 38.0016C810.252 38.2495 809.701 38.5939 809.136 39.0346L808.165 37.8157C808.744 37.3337 809.405 36.9274 810.149 36.5969C810.906 36.2526 811.753 36.0804 812.69 36.0804C814.067 36.0804 815.155 36.4316 815.954 37.134C816.752 37.8226 817.152 38.7798 817.152 40.0055C817.152 40.7768 816.993 41.4998 816.677 42.1746C816.36 42.8495 815.919 43.5174 815.354 44.1785C814.79 44.8258 814.129 45.5213 813.371 46.265L810.293 49.3018V49.3844H817.751V51.0371ZM824.718 36.0804C826.013 36.0804 827.073 36.3834 827.9 36.9894C828.726 37.5954 829.139 38.4699 829.139 39.613C829.139 40.2052 829.008 40.7217 828.747 41.1624C828.499 41.6031 828.161 41.9956 827.734 42.3399C827.307 42.6705 826.839 42.9666 826.33 43.2282C826.936 43.5174 827.486 43.848 827.982 44.2198C828.478 44.5779 828.871 44.998 829.16 45.48C829.463 45.962 829.614 46.5405 829.614 47.2153C829.614 48.4548 829.174 49.4395 828.292 50.1695C827.424 50.8856 826.254 51.2437 824.78 51.2437C823.196 51.2437 821.978 50.8994 821.124 50.2108C820.27 49.5084 819.843 48.5306 819.843 47.2773C819.843 46.6024 819.981 46.0171 820.256 45.5213C820.545 45.0255 820.924 44.5986 821.392 44.2405C821.86 43.8824 822.363 43.5794 822.9 43.3315C822.184 42.9184 821.571 42.4225 821.062 41.8441C820.566 41.2519 820.318 40.5013 820.318 39.5923C820.318 38.8349 820.511 38.2013 820.896 37.6918C821.282 37.1684 821.805 36.769 822.466 36.4936C823.128 36.2181 823.878 36.0804 824.718 36.0804ZM824.698 37.5472C823.94 37.5472 823.313 37.7331 822.818 38.1049C822.336 38.463 822.095 38.9864 822.095 39.675C822.095 40.1846 822.212 40.6115 822.446 40.9558C822.694 41.3001 823.024 41.5962 823.437 41.8441C823.851 42.0782 824.305 42.3055 824.801 42.5258C825.517 42.2229 826.116 41.8579 826.598 41.4309C827.094 41.004 827.342 40.4187 827.342 39.675C827.342 38.9864 827.101 38.463 826.619 38.1049C826.137 37.7331 825.496 37.5472 824.698 37.5472ZM821.619 47.2979C821.619 48.0141 821.874 48.6132 822.384 49.0952C822.893 49.5635 823.678 49.7976 824.739 49.7976C825.744 49.7976 826.509 49.5635 827.032 49.0952C827.569 48.6132 827.838 47.9934 827.838 47.236C827.838 46.5198 827.555 45.9276 826.991 45.4593C826.426 44.9773 825.675 44.5573 824.739 44.1992L824.408 44.0752C823.499 44.4608 822.804 44.9084 822.322 45.418C821.854 45.9138 821.619 46.5405 821.619 47.2979ZM840.837 39.737C840.837 40.7286 840.562 41.5205 840.011 42.1127C839.46 42.6911 838.716 43.0767 837.78 43.2695V43.3522C838.964 43.4899 839.846 43.8618 840.424 44.4677C841.003 45.0737 841.292 45.8656 841.292 46.8435C841.292 47.6973 841.092 48.4617 840.693 49.1365C840.293 49.7976 839.674 50.3141 838.833 50.6859C838.007 51.0578 836.94 51.2437 835.631 51.2437C834.86 51.2437 834.144 51.1817 833.483 51.0578C832.822 50.9476 832.188 50.741 831.582 50.438V48.744C832.202 49.047 832.87 49.288 833.586 49.4671C834.302 49.6323 834.991 49.715 835.652 49.715C836.974 49.715 837.924 49.4602 838.503 48.9506C839.095 48.4273 839.391 47.7111 839.391 46.8021C839.391 45.8794 839.026 45.2183 838.296 44.8189C837.58 44.4058 836.568 44.1992 835.26 44.1992H833.834V42.6498H835.28C836.492 42.6498 837.408 42.395 838.028 41.8854C838.661 41.3759 838.978 40.701 838.978 39.8609C838.978 39.1447 838.737 38.5939 838.255 38.2082C837.773 37.8088 837.119 37.6091 836.292 37.6091C835.494 37.6091 834.812 37.7262 834.247 37.9603C833.683 38.1945 833.125 38.4906 832.574 38.8486L831.665 37.6091C832.188 37.196 832.836 36.8379 833.607 36.5349C834.392 36.2319 835.28 36.0804 836.272 36.0804C837.814 36.0804 838.957 36.4247 839.701 37.1133C840.459 37.802 840.837 38.6765 840.837 39.737ZM853.217 51.0371H843.466V49.529L847.33 45.6246C848.073 44.8809 848.7 44.2198 849.209 43.6414C849.719 43.063 850.105 42.4983 850.366 41.9474C850.628 41.3827 850.759 40.7699 850.759 40.1088C850.759 39.2962 850.518 38.6834 850.036 38.2702C849.554 37.8433 848.927 37.6298 848.156 37.6298C847.44 37.6298 846.806 37.7537 846.255 38.0016C845.718 38.2495 845.167 38.5939 844.603 39.0346L843.632 37.8157C844.21 37.3337 844.871 36.9274 845.615 36.5969C846.372 36.2526 847.219 36.0804 848.156 36.0804C849.533 36.0804 850.621 36.4316 851.42 37.134C852.219 37.8226 852.618 38.7798 852.618 40.0055C852.618 40.7768 852.46 41.4998 852.143 42.1746C851.826 42.8495 851.385 43.5174 850.821 44.1785C850.256 44.8258 849.595 45.5213 848.838 46.265L845.759 49.3018V49.3844H853.217V51.0371Z" fill="#EBEBEB"/>
<path d="M47.3073 105.604C47.3073 107.188 47.1421 108.552 46.8115 109.695C46.481 110.824 45.9576 111.692 45.2415 112.298C44.5253 112.904 43.575 113.207 42.3906 113.207C40.7242 113.207 39.4916 112.539 38.6928 111.203C37.9077 109.853 37.5152 107.987 37.5152 105.604C37.5152 104.007 37.6736 102.643 37.9904 101.514C38.3209 100.385 38.8443 99.5238 39.5604 98.9316C40.2766 98.3256 41.22 98.0226 42.3906 98.0226C44.0433 98.0226 45.2759 98.6906 46.0885 100.027C46.901 101.349 47.3073 103.208 47.3073 105.604ZM39.3332 105.604C39.3332 107.629 39.5604 109.144 40.0149 110.149C40.4832 111.155 41.2751 111.657 42.3906 111.657C43.4924 111.657 44.2774 111.161 44.7457 110.17C45.2277 109.164 45.4687 107.643 45.4687 105.604C45.4687 103.594 45.2277 102.085 44.7457 101.08C44.2774 100.075 43.4924 99.572 42.3906 99.572C41.2751 99.572 40.4832 100.075 40.0149 101.08C39.5604 102.085 39.3332 103.594 39.3332 105.604ZM49.8125 111.884C49.8125 111.375 49.9364 111.017 50.1843 110.81C50.4322 110.604 50.7283 110.5 51.0727 110.5C51.4307 110.5 51.7337 110.604 51.9816 110.81C52.2433 111.017 52.3741 111.375 52.3741 111.884C52.3741 112.38 52.2433 112.738 51.9816 112.959C51.7337 113.179 51.4307 113.289 51.0727 113.289C50.7283 113.289 50.4322 113.179 50.1843 112.959C49.9364 112.738 49.8125 112.38 49.8125 111.884ZM61.1866 113H59.4099V102.691C59.4099 102.099 59.4168 101.624 59.4306 101.266C59.4444 100.908 59.465 100.536 59.4926 100.15C59.2722 100.371 59.0725 100.557 58.8935 100.708C58.7144 100.86 58.4872 101.053 58.2117 101.287L56.6417 102.567L55.6914 101.349L59.6785 98.2499H61.1866V113ZM73.0087 113H71.232V102.691C71.232 102.099 71.2389 101.624 71.2527 101.266C71.2665 100.908 71.2871 100.536 71.3147 100.15C71.0943 100.371 70.8946 100.557 70.7156 100.708C70.5365 100.86 70.3093 101.053 70.0338 101.287L68.4638 102.567L67.5135 101.349L71.5006 98.2499H73.0087V113Z" fill="#EBEBEB"/>
<path d="M186.807 105.604C186.807 107.188 186.642 108.552 186.312 109.695C185.981 110.824 185.458 111.692 184.741 112.298C184.025 112.904 183.075 113.207 181.891 113.207C180.224 113.207 178.992 112.539 178.193 111.203C177.408 109.853 177.015 107.987 177.015 105.604C177.015 104.007 177.174 102.643 177.49 101.514C177.821 100.385 178.344 99.5238 179.06 98.9316C179.777 98.3256 180.72 98.0226 181.891 98.0226C183.543 98.0226 184.776 98.6906 185.588 100.027C186.401 101.349 186.807 103.208 186.807 105.604ZM178.833 105.604C178.833 107.629 179.06 109.144 179.515 110.149C179.983 111.155 180.775 111.657 181.891 111.657C182.992 111.657 183.777 111.161 184.246 110.17C184.728 109.164 184.969 107.643 184.969 105.604C184.969 103.594 184.728 102.085 184.246 101.08C183.777 100.075 182.992 99.572 181.891 99.572C180.775 99.572 179.983 100.075 179.515 101.08C179.06 102.085 178.833 103.594 178.833 105.604ZM189.312 111.884C189.312 111.375 189.436 111.017 189.684 110.81C189.932 110.604 190.228 110.5 190.573 110.5C190.931 110.5 191.234 110.604 191.482 110.81C191.743 111.017 191.874 111.375 191.874 111.884C191.874 112.38 191.743 112.738 191.482 112.959C191.234 113.179 190.931 113.289 190.573 113.289C190.228 113.289 189.932 113.179 189.684 112.959C189.436 112.738 189.312 112.38 189.312 111.884ZM203.537 101.7C203.537 102.691 203.262 103.483 202.711 104.076C202.16 104.654 201.416 105.04 200.48 105.232V105.315C201.664 105.453 202.546 105.825 203.124 106.431C203.703 107.037 203.992 107.829 203.992 108.806C203.992 109.66 203.792 110.425 203.393 111.099C202.993 111.76 202.374 112.277 201.534 112.649C200.707 113.021 199.64 113.207 198.331 113.207C197.56 113.207 196.844 113.145 196.183 113.021C195.522 112.91 194.888 112.704 194.282 112.401V110.707C194.902 111.01 195.57 111.251 196.286 111.43C197.002 111.595 197.691 111.678 198.352 111.678C199.674 111.678 200.625 111.423 201.203 110.913C201.795 110.39 202.091 109.674 202.091 108.765C202.091 107.842 201.726 107.181 200.996 106.782C200.28 106.369 199.268 106.162 197.96 106.162H196.534V104.613H197.98C199.192 104.613 200.108 104.358 200.728 103.848C201.361 103.339 201.678 102.664 201.678 101.824C201.678 101.108 201.437 100.557 200.955 100.171C200.473 99.7717 199.819 99.572 198.993 99.572C198.194 99.572 197.512 99.6891 196.947 99.9232C196.383 100.157 195.825 100.453 195.274 100.812L194.365 99.572C194.888 99.1589 195.536 98.8008 196.307 98.4978C197.092 98.1948 197.98 98.0433 198.972 98.0433C200.514 98.0433 201.657 98.3876 202.401 99.0762C203.159 99.7648 203.537 100.639 203.537 101.7ZM215.36 101.7C215.36 102.691 215.084 103.483 214.533 104.076C213.982 104.654 213.239 105.04 212.302 105.232V105.315C213.486 105.453 214.368 105.825 214.946 106.431C215.525 107.037 215.814 107.829 215.814 108.806C215.814 109.66 215.614 110.425 215.215 111.099C214.816 111.76 214.196 112.277 213.356 112.649C212.529 113.021 211.462 113.207 210.154 113.207C209.382 113.207 208.666 113.145 208.005 113.021C207.344 112.91 206.711 112.704 206.105 112.401V110.707C206.724 111.01 207.392 111.251 208.108 111.43C208.825 111.595 209.513 111.678 210.174 111.678C211.496 111.678 212.447 111.423 213.025 110.913C213.617 110.39 213.913 109.674 213.913 108.765C213.913 107.842 213.548 107.181 212.819 106.782C212.102 106.369 211.09 106.162 209.782 106.162H208.356V104.613H209.802C211.014 104.613 211.93 104.358 212.55 103.848C213.183 103.339 213.5 102.664 213.5 101.824C213.5 101.108 213.259 100.557 212.777 100.171C212.295 99.7717 211.641 99.572 210.815 99.572C210.016 99.572 209.334 99.6891 208.769 99.9232C208.205 100.157 207.647 100.453 207.096 100.812L206.187 99.572C206.711 99.1589 207.358 98.8008 208.129 98.4978C208.914 98.1948 209.802 98.0433 210.794 98.0433C212.337 98.0433 213.48 98.3876 214.223 99.0762C214.981 99.7648 215.36 100.639 215.36 101.7Z" fill="#EBEBEB"/>
<path d="M410.638 105.957C410.638 107.541 410.473 108.904 410.143 110.048C409.812 111.177 409.289 112.045 408.573 112.651C407.856 113.256 406.906 113.559 405.722 113.559C404.055 113.559 402.823 112.892 402.024 111.556C401.239 110.206 400.846 108.34 400.846 105.957C400.846 104.36 401.005 102.996 401.322 101.867C401.652 100.737 402.175 99.8767 402.892 99.2845C403.608 98.6785 404.551 98.3756 405.722 98.3756C407.374 98.3756 408.607 99.0435 409.42 100.379C410.232 101.702 410.638 103.561 410.638 105.957ZM402.664 105.957C402.664 107.982 402.892 109.497 403.346 110.502C403.814 111.507 404.606 112.01 405.722 112.01C406.824 112.01 407.609 111.514 408.077 110.523C408.559 109.517 408.8 107.995 408.8 105.957C408.8 103.946 408.559 102.438 408.077 101.433C407.609 100.428 406.824 99.9249 405.722 99.9249C404.606 99.9249 403.814 100.428 403.346 101.433C402.892 102.438 402.664 103.946 402.664 105.957ZM413.144 112.237C413.144 111.728 413.268 111.37 413.515 111.163C413.763 110.957 414.059 110.853 414.404 110.853C414.762 110.853 415.065 110.957 415.313 111.163C415.574 111.37 415.705 111.728 415.705 112.237C415.705 112.733 415.574 113.091 415.313 113.312C415.065 113.532 414.762 113.642 414.404 113.642C414.059 113.642 413.763 113.532 413.515 113.312C413.268 113.091 413.144 112.733 413.144 112.237ZM418.32 107.052C418.32 105.992 418.41 104.952 418.589 103.933C418.782 102.9 419.119 101.97 419.601 101.144C420.097 100.304 420.785 99.6357 421.667 99.1399C422.548 98.6441 423.684 98.3962 425.075 98.3962C425.365 98.3962 425.681 98.41 426.026 98.4375C426.384 98.4651 426.673 98.5133 426.893 98.5821V100.132C426.646 100.049 426.363 99.9869 426.046 99.9456C425.743 99.9043 425.434 99.8836 425.117 99.8836C424.167 99.8836 423.375 100.042 422.741 100.359C422.108 100.676 421.605 101.109 421.233 101.66C420.875 102.211 420.613 102.845 420.448 103.561C420.283 104.277 420.179 105.041 420.138 105.854H420.262C420.579 105.372 421.02 104.966 421.584 104.635C422.149 104.291 422.872 104.119 423.753 104.119C425.034 104.119 426.067 104.511 426.852 105.296C427.637 106.067 428.03 107.169 428.03 108.601C428.03 110.144 427.603 111.356 426.749 112.237C425.909 113.119 424.773 113.559 423.34 113.559C422.404 113.559 421.557 113.325 420.799 112.857C420.042 112.389 419.436 111.673 418.981 110.709C418.541 109.745 418.32 108.526 418.32 107.052ZM423.32 112.031C424.187 112.031 424.89 111.755 425.427 111.204C425.964 110.64 426.232 109.772 426.232 108.601C426.232 107.665 425.991 106.921 425.509 106.37C425.041 105.819 424.332 105.544 423.382 105.544C422.734 105.544 422.17 105.682 421.688 105.957C421.205 106.219 420.827 106.556 420.551 106.969C420.29 107.383 420.159 107.81 420.159 108.25C420.159 108.842 420.276 109.435 420.51 110.027C420.744 110.605 421.095 111.087 421.564 111.473C422.032 111.845 422.617 112.031 423.32 112.031ZM430.142 107.052C430.142 105.992 430.232 104.952 430.411 103.933C430.604 102.9 430.941 101.97 431.423 101.144C431.919 100.304 432.608 99.6357 433.489 99.1399C434.37 98.6441 435.507 98.3962 436.898 98.3962C437.187 98.3962 437.504 98.41 437.848 98.4375C438.206 98.4651 438.495 98.5133 438.716 98.5821V100.132C438.468 100.049 438.185 99.9869 437.869 99.9456C437.566 99.9043 437.256 99.8836 436.939 99.8836C435.989 99.8836 435.197 100.042 434.563 100.359C433.93 100.676 433.427 101.109 433.055 101.66C432.697 102.211 432.435 102.845 432.27 103.561C432.105 104.277 432.002 105.041 431.96 105.854H432.084C432.401 105.372 432.842 104.966 433.406 104.635C433.971 104.291 434.694 104.119 435.575 104.119C436.856 104.119 437.889 104.511 438.674 105.296C439.459 106.067 439.852 107.169 439.852 108.601C439.852 110.144 439.425 111.356 438.571 112.237C437.731 113.119 436.595 113.559 435.162 113.559C434.226 113.559 433.379 113.325 432.621 112.857C431.864 112.389 431.258 111.673 430.803 110.709C430.363 109.745 430.142 108.526 430.142 107.052ZM435.142 112.031C436.009 112.031 436.712 111.755 437.249 111.204C437.786 110.64 438.054 109.772 438.054 108.601C438.054 107.665 437.813 106.921 437.331 106.37C436.863 105.819 436.154 105.544 435.204 105.544C434.556 105.544 433.992 105.682 433.51 105.957C433.028 106.219 432.649 106.556 432.373 106.969C432.112 107.383 431.981 107.81 431.981 108.25C431.981 108.842 432.098 109.435 432.332 110.027C432.566 110.605 432.917 111.087 433.386 111.473C433.854 111.845 434.439 112.031 435.142 112.031Z" fill="#EBEBEB"/>
<path d="M681.918 113.353H680.141V103.044C680.141 102.452 680.148 101.977 680.162 101.619C680.175 101.261 680.196 100.889 680.224 100.503C680.003 100.724 679.804 100.91 679.624 101.061C679.445 101.213 679.218 101.405 678.943 101.64L677.373 102.92L676.422 101.702L680.409 98.6028H681.918V113.353Z" fill="#EBEBEB"/>
<path d="M969.274 101.7C969.274 102.691 968.998 103.483 968.447 104.076C967.896 104.654 967.153 105.04 966.216 105.232V105.315C967.401 105.453 968.282 105.825 968.86 106.431C969.439 107.037 969.728 107.829 969.728 108.806C969.728 109.66 969.528 110.425 969.129 111.099C968.73 111.76 968.11 112.277 967.27 112.649C966.443 113.021 965.376 113.207 964.068 113.207C963.296 113.207 962.58 113.145 961.919 113.021C961.258 112.91 960.625 112.704 960.019 112.401V110.707C960.638 111.01 961.306 111.251 962.022 111.43C962.739 111.595 963.427 111.678 964.088 111.678C965.41 111.678 966.361 111.423 966.939 110.913C967.531 110.39 967.827 109.674 967.827 108.765C967.827 107.842 967.462 107.181 966.733 106.782C966.016 106.369 965.004 106.162 963.696 106.162H962.27V104.613H963.716C964.928 104.613 965.844 104.358 966.464 103.848C967.098 103.339 967.414 102.664 967.414 101.824C967.414 101.108 967.173 100.557 966.691 100.171C966.209 99.7717 965.555 99.572 964.729 99.572C963.93 99.572 963.248 99.6891 962.684 99.9232C962.119 100.157 961.561 100.453 961.01 100.812L960.101 99.572C960.625 99.1589 961.272 98.8008 962.043 98.4978C962.828 98.1948 963.716 98.0433 964.708 98.0433C966.251 98.0433 967.394 98.3876 968.137 99.0762C968.895 99.7648 969.274 100.639 969.274 101.7Z" fill="#EBEBEB"/>
<path d="M1184.51 113H1182.74V102.691C1182.74 102.099 1182.74 101.624 1182.76 101.266C1182.77 100.908 1182.79 100.536 1182.82 100.15C1182.6 100.371 1182.4 100.557 1182.22 100.708C1182.04 100.86 1181.81 101.053 1181.54 101.287L1179.97 102.567L1179.02 101.349L1183 98.2499H1184.51V113ZM1196.33 113H1194.56V102.691C1194.56 102.099 1194.56 101.624 1194.58 101.266C1194.59 100.908 1194.61 100.536 1194.64 100.15C1194.42 100.371 1194.22 100.557 1194.04 100.708C1193.86 100.86 1193.63 101.053 1193.36 101.287L1191.79 102.567L1190.84 101.349L1194.83 98.2499H1196.33V113Z" fill="#EBEBEB"/>
<path d="M1319.45 115H1317.47V103.546C1317.47 102.888 1317.48 102.36 1317.49 101.962C1317.51 101.564 1317.53 101.151 1317.56 100.723C1317.32 100.968 1317.1 101.174 1316.9 101.342C1316.7 101.511 1316.45 101.725 1316.14 101.985L1314.4 103.408L1313.34 102.054L1317.77 98.611H1319.45V115ZM1332.58 115H1330.61V103.546C1330.61 102.888 1330.61 102.36 1330.63 101.962C1330.64 101.564 1330.67 101.151 1330.7 100.723C1330.45 100.968 1330.23 101.174 1330.03 101.342C1329.83 101.511 1329.58 101.725 1329.28 101.985L1327.53 103.408L1326.48 102.054L1330.91 98.611H1332.58V115ZM1345.72 115H1343.74V103.546C1343.74 102.888 1343.75 102.36 1343.77 101.962C1343.78 101.564 1343.8 101.151 1343.83 100.723C1343.59 100.968 1343.37 101.174 1343.17 101.342C1342.97 101.511 1342.72 101.725 1342.41 101.985L1340.67 103.408L1339.61 102.054L1344.04 98.611H1345.72V115Z" fill="#EBEBEB"/>
<rect x="9" y="69.8999" width="96.0205" height="11.2373" fill="#EBEBEB"/>
<rect x="111.508" y="69.8999" width="169.982" height="11.2373" fill="#EBEBEB"/>
<rect x="1104.15" y="69.8999" width="169.982" height="11.2373" fill="#EBEBEB"/>
<rect x="287.979" y="69.8999" width="266.003" height="11.2373" fill="#EBEBEB"/>
<rect x="560.469" y="69.8999" width="264.705" height="11.2373" fill="#EBEBEB"/>
<rect x="831.662" y="69.8999" width="266.003" height="11.2373" fill="#EBEBEB"/>
<rect x="1282" y="70" width="11" height="11" fill="#EBEBEB"/>
<rect x="1299" y="70" width="11" height="11" fill="#EBEBEB"/>
<rect x="1316" y="70" width="11" height="11" fill="#EBEBEB"/>
<rect x="1333" y="70" width="11" height="11" fill="#EBEBEB"/>
<rect x="1350" y="70" width="11" height="11" fill="#EBEBEB"/>
<rect x="1367" y="70" width="11" height="11" fill="#EBEBEB"/>
</svg>
