<svg width="1391" height="93" viewBox="0 0 1391 93" fill="none" xmlns="http://www.w3.org/2000/svg">
<path d="M1346.69 10.737C1346.69 11.7286 1346.41 12.5205 1345.86 13.1127C1345.31 13.6911 1344.57 14.0767 1343.63 14.2695V14.3522C1344.81 14.4899 1345.69 14.8618 1346.27 15.4677C1346.85 16.0737 1347.14 16.8656 1347.14 17.8435C1347.14 18.6973 1346.94 19.4617 1346.54 20.1365C1346.14 20.7976 1345.52 21.3141 1344.68 21.6859C1343.86 22.0578 1342.79 22.2437 1341.48 22.2437C1340.71 22.2437 1339.99 22.1817 1339.33 22.0578C1338.67 21.9476 1338.04 21.741 1337.43 21.438V19.744C1338.05 20.047 1338.72 20.288 1339.44 20.4671C1340.15 20.6323 1340.84 20.715 1341.5 20.715C1342.82 20.715 1343.77 20.4602 1344.35 19.9506C1344.94 19.4273 1345.24 18.7111 1345.24 17.8021C1345.24 16.8794 1344.88 16.2183 1344.15 15.8189C1343.43 15.4058 1342.42 15.1992 1341.11 15.1992H1339.68V13.6498H1341.13C1342.34 13.6498 1343.26 13.395 1343.88 12.8854C1344.51 12.3759 1344.83 11.701 1344.83 10.8609C1344.83 10.1447 1344.59 9.59386 1344.1 9.20823C1343.62 8.80884 1342.97 8.60914 1342.14 8.60914C1341.34 8.60914 1340.66 8.7262 1340.1 8.96033C1339.53 9.19446 1338.97 9.49056 1338.42 9.84864L1337.51 8.60914C1338.04 8.19597 1338.68 7.83789 1339.46 7.5349C1340.24 7.23191 1341.13 7.08041 1342.12 7.08041C1343.66 7.08041 1344.81 7.42472 1345.55 8.11334C1346.31 8.80195 1346.69 9.67649 1346.69 10.737ZM1359.73 18.6904H1357.58V22.0371H1355.82V18.6904H1348.76V17.1411L1355.7 7.20437H1357.58V17.0584H1359.73V18.6904ZM1355.82 12.4103C1355.82 11.6941 1355.84 11.0881 1355.86 10.5923C1355.89 10.0828 1355.91 9.60074 1355.93 9.14626H1355.84C1355.73 9.40793 1355.6 9.69026 1355.43 9.99325C1355.27 10.2962 1355.11 10.551 1354.96 10.7576L1350.53 17.0584H1355.82V12.4103ZM1371.55 18.6904H1369.4V22.0371H1367.65V18.6904H1360.58V17.1411L1367.52 7.20437H1369.4V17.0584H1371.55V18.6904ZM1367.65 12.4103C1367.65 11.6941 1367.66 11.0881 1367.69 10.5923C1367.71 10.0828 1367.73 9.60074 1367.75 9.14626H1367.67C1367.56 9.40793 1367.42 9.69026 1367.25 9.99325C1367.09 10.2962 1366.93 10.551 1366.78 10.7576L1362.36 17.0584H1367.65V12.4103ZM1374.78 22.0371L1380.83 8.93967H1372.88V7.287H1382.77V8.69177L1376.78 22.0371H1374.78Z" fill="#EBEBEB"/>
<path d="M97.8089 12.9887C99.3238 12.9887 100.529 13.3675 101.424 14.1249C102.319 14.8824 102.767 15.9498 102.767 17.327C102.767 18.8557 102.278 20.0608 101.3 20.9422C100.336 21.8099 98.9864 22.2437 97.2511 22.2437C96.4936 22.2437 95.7775 22.1748 95.1026 22.0371C94.4416 21.8994 93.8838 21.6997 93.4293 21.438V19.7234C93.9251 20.0264 94.5242 20.2674 95.2266 20.4464C95.9427 20.6117 96.6245 20.6943 97.2718 20.6943C98.3598 20.6943 99.2343 20.4395 99.8954 19.93C100.57 19.4066 100.908 18.6009 100.908 17.5129C100.908 16.5489 100.612 15.812 100.019 15.3025C99.4271 14.7791 98.4906 14.5174 97.2098 14.5174C96.8242 14.5174 96.3834 14.5519 95.8876 14.6207C95.3918 14.6896 94.9924 14.7585 94.6895 14.8273L93.7805 14.2489L94.3383 7.287H101.734V8.93967H95.8876L95.5364 13.216C95.7706 13.1746 96.0873 13.1264 96.4867 13.0714C96.8861 13.0163 97.3268 12.9887 97.8089 12.9887ZM109.631 12.9887C111.146 12.9887 112.351 13.3675 113.246 14.1249C114.141 14.8824 114.589 15.9498 114.589 17.327C114.589 18.8557 114.1 20.0608 113.122 20.9422C112.158 21.8099 110.809 22.2437 109.073 22.2437C108.316 22.2437 107.6 22.1748 106.925 22.0371C106.264 21.8994 105.706 21.6997 105.251 21.438V19.7234C105.747 20.0264 106.346 20.2674 107.049 20.4464C107.765 20.6117 108.447 20.6943 109.094 20.6943C110.182 20.6943 111.056 20.4395 111.717 19.93C112.392 19.4066 112.73 18.6009 112.73 17.5129C112.73 16.5489 112.434 15.812 111.841 15.3025C111.249 14.7791 110.313 14.5174 109.032 14.5174C108.646 14.5174 108.206 14.5519 107.71 14.6207C107.214 14.6896 106.815 14.7585 106.512 14.8273L105.603 14.2489L106.16 7.287H113.556V8.93967H107.71L107.359 13.216C107.593 13.1746 107.909 13.1264 108.309 13.0714C108.708 13.0163 109.149 12.9887 109.631 12.9887Z" fill="#EBEBEB"/>
<path d="M1242.88 10.737C1242.88 11.7286 1242.61 12.5205 1242.05 13.1127C1241.5 13.6911 1240.76 14.0767 1239.82 14.2695V14.3522C1241.01 14.4899 1241.89 14.8618 1242.47 15.4677C1243.05 16.0737 1243.34 16.8656 1243.34 17.8435C1243.34 18.6973 1243.14 19.4617 1242.74 20.1365C1242.34 20.7976 1241.72 21.3141 1240.88 21.6859C1240.05 22.0578 1238.98 22.2437 1237.67 22.2437C1236.9 22.2437 1236.19 22.1817 1235.53 22.0578C1234.87 21.9476 1234.23 21.741 1233.63 21.438V19.744C1234.25 20.047 1234.91 20.288 1235.63 20.4671C1236.35 20.6323 1237.03 20.715 1237.7 20.715C1239.02 20.715 1239.97 20.4602 1240.55 19.9506C1241.14 19.4273 1241.43 18.7111 1241.43 17.8021C1241.43 16.8794 1241.07 16.2183 1240.34 15.8189C1239.62 15.4058 1238.61 15.1992 1237.3 15.1992H1235.88V13.6498H1237.32C1238.54 13.6498 1239.45 13.395 1240.07 12.8854C1240.7 12.3759 1241.02 11.701 1241.02 10.8609C1241.02 10.1447 1240.78 9.59386 1240.3 9.20823C1239.82 8.80884 1239.16 8.60914 1238.34 8.60914C1237.54 8.60914 1236.86 8.7262 1236.29 8.96033C1235.73 9.19446 1235.17 9.49056 1234.62 9.84864L1233.71 8.60914C1234.23 8.19597 1234.88 7.83789 1235.65 7.5349C1236.44 7.23191 1237.32 7.08041 1238.32 7.08041C1239.86 7.08041 1241 7.42472 1241.74 8.11334C1242.5 8.80195 1242.88 9.67649 1242.88 10.737ZM1255.92 18.6904H1253.77V22.0371H1252.02V18.6904H1244.95V17.1411L1251.89 7.20437H1253.77V17.0584H1255.92V18.6904ZM1252.02 12.4103C1252.02 11.6941 1252.03 11.0881 1252.06 10.5923C1252.09 10.0828 1252.11 9.60074 1252.12 9.14626H1252.04C1251.93 9.40793 1251.79 9.69026 1251.62 9.99325C1251.46 10.2962 1251.3 10.551 1251.15 10.7576L1246.73 17.0584H1252.02V12.4103ZM1267.74 18.6904H1265.6V22.0371H1263.84V18.6904H1256.77V17.1411L1263.72 7.20437H1265.6V17.0584H1267.74V18.6904ZM1263.84 12.4103C1263.84 11.6941 1263.85 11.0881 1263.88 10.5923C1263.91 10.0828 1263.93 9.60074 1263.94 9.14626H1263.86C1263.75 9.40793 1263.61 9.69026 1263.45 9.99325C1263.28 10.2962 1263.12 10.551 1262.97 10.7576L1258.55 17.0584H1263.84V12.4103ZM1278.9 22.0371H1269.15V20.529L1273.02 16.6246C1273.76 15.8809 1274.39 15.2198 1274.9 14.6414C1275.41 14.063 1275.79 13.4983 1276.05 12.9474C1276.32 12.3827 1276.45 11.7699 1276.45 11.1088C1276.45 10.2962 1276.21 9.68338 1275.72 9.27021C1275.24 8.84327 1274.61 8.6298 1273.84 8.6298C1273.13 8.6298 1272.49 8.75375 1271.94 9.00165C1271.41 9.24955 1270.85 9.59386 1270.29 10.0346L1269.32 8.81572C1269.9 8.33369 1270.56 7.92741 1271.3 7.59687C1272.06 7.25257 1272.91 7.08041 1273.84 7.08041C1275.22 7.08041 1276.31 7.43161 1277.11 8.13399C1277.91 8.82261 1278.31 9.77978 1278.31 11.0055C1278.31 11.7768 1278.15 12.4998 1277.83 13.1746C1277.51 13.8495 1277.07 14.5174 1276.51 15.1785C1275.94 15.8258 1275.28 16.5213 1274.53 17.265L1271.45 20.3018V20.3844H1278.9V22.0371Z" fill="#EBEBEB"/>
<path d="M256.758 15.7363C256.758 14.6758 256.848 13.636 257.027 12.6169C257.22 11.584 257.557 10.6543 258.039 9.82798C258.535 8.98788 259.224 8.31992 260.105 7.82412C260.987 7.32832 262.123 7.08041 263.514 7.08041C263.803 7.08041 264.12 7.09419 264.464 7.12173C264.822 7.14928 265.111 7.19748 265.332 7.26634V8.81572C265.084 8.73309 264.801 8.67111 264.485 8.6298C264.182 8.58848 263.872 8.56782 263.555 8.56782C262.605 8.56782 261.813 8.7262 261.179 9.04297C260.546 9.35973 260.043 9.79355 259.671 10.3444C259.313 10.8953 259.052 11.5289 258.886 12.245C258.721 12.9612 258.618 13.7255 258.576 14.5381H258.7C259.017 14.0561 259.458 13.6498 260.022 13.3193C260.587 12.975 261.31 12.8028 262.192 12.8028C263.472 12.8028 264.505 13.1953 265.29 13.9803C266.075 14.7516 266.468 15.8534 266.468 17.2857C266.468 18.8282 266.041 20.0401 265.187 20.9216C264.347 21.803 263.211 22.2437 261.778 22.2437C260.842 22.2437 259.995 22.0096 259.237 21.5413C258.48 21.073 257.874 20.3569 257.42 19.3928C256.979 18.4288 256.758 17.2099 256.758 15.7363ZM261.758 20.715C262.625 20.715 263.328 20.4395 263.865 19.8886C264.402 19.324 264.671 18.4563 264.671 17.2857C264.671 16.3492 264.43 15.6055 263.948 15.0546C263.479 14.5037 262.77 14.2282 261.82 14.2282C261.172 14.2282 260.608 14.366 260.126 14.6414C259.644 14.9031 259.265 15.2405 258.99 15.6537C258.728 16.0668 258.597 16.4938 258.597 16.9345C258.597 17.5267 258.714 18.1189 258.948 18.7111C259.182 19.2895 259.534 19.7716 260.002 20.1572C260.47 20.529 261.055 20.715 261.758 20.715ZM274.778 22.0371H273.001V11.7286C273.001 11.1364 273.008 10.6612 273.022 10.3031C273.036 9.94505 273.057 9.5732 273.084 9.18757C272.864 9.40793 272.664 9.59386 272.485 9.74535C272.306 9.89685 272.079 10.0897 271.803 10.3238L270.233 11.6046L269.283 10.3858L273.27 7.287H274.778V22.0371ZM290.071 14.6414C290.071 16.2252 289.906 17.5887 289.575 18.7318C289.244 19.8611 288.721 20.7287 288.005 21.3347C287.289 21.9407 286.338 22.2437 285.154 22.2437C283.488 22.2437 282.255 21.5757 281.456 20.2398C280.671 18.8901 280.279 17.024 280.279 14.6414C280.279 13.0438 280.437 11.6804 280.754 10.551C281.084 9.4217 281.608 8.56093 282.324 7.96873C283.04 7.36275 283.983 7.05976 285.154 7.05976C286.807 7.05976 288.039 7.72771 288.852 9.06362C289.664 10.3858 290.071 12.245 290.071 14.6414ZM282.097 14.6414C282.097 16.6659 282.324 18.1809 282.778 19.1862C283.247 20.1916 284.039 20.6943 285.154 20.6943C286.256 20.6943 287.041 20.1985 287.509 19.2069C287.991 18.2015 288.232 16.6797 288.232 14.6414C288.232 12.6306 287.991 11.1226 287.509 10.1172C287.041 9.11183 286.256 8.60914 285.154 8.60914C284.039 8.60914 283.247 9.11183 282.778 10.1172C282.324 11.1226 282.097 12.6306 282.097 14.6414Z" fill="#EBEBEB"/>
<path d="M1080.68 10.737C1080.68 11.7286 1080.41 12.5205 1079.86 13.1127C1079.31 13.6911 1078.56 14.0767 1077.63 14.2695V14.3522C1078.81 14.4899 1079.69 14.8618 1080.27 15.4677C1080.85 16.0737 1081.14 16.8656 1081.14 17.8435C1081.14 18.6973 1080.94 19.4617 1080.54 20.1365C1080.14 20.7976 1079.52 21.3141 1078.68 21.6859C1077.85 22.0578 1076.79 22.2437 1075.48 22.2437C1074.71 22.2437 1073.99 22.1817 1073.33 22.0578C1072.67 21.9476 1072.03 21.741 1071.43 21.438V19.744C1072.05 20.047 1072.72 20.288 1073.43 20.4671C1074.15 20.6323 1074.84 20.715 1075.5 20.715C1076.82 20.715 1077.77 20.4602 1078.35 19.9506C1078.94 19.4273 1079.24 18.7111 1079.24 17.8021C1079.24 16.8794 1078.87 16.2183 1078.14 15.8189C1077.43 15.4058 1076.41 15.1992 1075.11 15.1992H1073.68V13.6498H1075.13C1076.34 13.6498 1077.25 13.395 1077.87 12.8854C1078.51 12.3759 1078.82 11.701 1078.82 10.8609C1078.82 10.1447 1078.58 9.59386 1078.1 9.20823C1077.62 8.80884 1076.97 8.60914 1076.14 8.60914C1075.34 8.60914 1074.66 8.7262 1074.09 8.96033C1073.53 9.19446 1072.97 9.49056 1072.42 9.84864L1071.51 8.60914C1072.03 8.19597 1072.68 7.83789 1073.45 7.5349C1074.24 7.23191 1075.13 7.08041 1076.12 7.08041C1077.66 7.08041 1078.8 7.42472 1079.55 8.11334C1080.31 8.80195 1080.68 9.67649 1080.68 10.737ZM1092.51 10.737C1092.51 11.7286 1092.23 12.5205 1091.68 13.1127C1091.13 13.6911 1090.38 14.0767 1089.45 14.2695V14.3522C1090.63 14.4899 1091.51 14.8618 1092.09 15.4677C1092.67 16.0737 1092.96 16.8656 1092.96 17.8435C1092.96 18.6973 1092.76 19.4617 1092.36 20.1365C1091.96 20.7976 1091.34 21.3141 1090.5 21.6859C1089.68 22.0578 1088.61 22.2437 1087.3 22.2437C1086.53 22.2437 1085.81 22.1817 1085.15 22.0578C1084.49 21.9476 1083.86 21.741 1083.25 21.438V19.744C1083.87 20.047 1084.54 20.288 1085.25 20.4671C1085.97 20.6323 1086.66 20.715 1087.32 20.715C1088.64 20.715 1089.59 20.4602 1090.17 19.9506C1090.76 19.4273 1091.06 18.7111 1091.06 17.8021C1091.06 16.8794 1090.69 16.2183 1089.96 15.8189C1089.25 15.4058 1088.24 15.1992 1086.93 15.1992H1085.5V13.6498H1086.95C1088.16 13.6498 1089.08 13.395 1089.7 12.8854C1090.33 12.3759 1090.65 11.701 1090.65 10.8609C1090.65 10.1447 1090.41 9.59386 1089.92 9.20823C1089.44 8.80884 1088.79 8.60914 1087.96 8.60914C1087.16 8.60914 1086.48 8.7262 1085.92 8.96033C1085.35 9.19446 1084.79 9.49056 1084.24 9.84864L1083.33 8.60914C1083.86 8.19597 1084.5 7.83789 1085.28 7.5349C1086.06 7.23191 1086.95 7.08041 1087.94 7.08041C1089.48 7.08041 1090.63 7.42472 1091.37 8.11334C1092.13 8.80195 1092.51 9.67649 1092.51 10.737ZM1100.03 7.08041C1101.33 7.08041 1102.39 7.38341 1103.21 7.98939C1104.04 8.59537 1104.45 9.46991 1104.45 10.613C1104.45 11.2052 1104.32 11.7217 1104.06 12.1624C1103.81 12.6031 1103.47 12.9956 1103.05 13.3399C1102.62 13.6705 1102.15 13.9666 1101.64 14.2282C1102.25 14.5174 1102.8 14.848 1103.3 15.2198C1103.79 15.5779 1104.18 15.998 1104.47 16.48C1104.78 16.962 1104.93 17.5405 1104.93 18.2153C1104.93 19.4548 1104.49 20.4395 1103.6 21.1695C1102.74 21.8856 1101.57 22.2437 1100.09 22.2437C1098.51 22.2437 1097.29 21.8994 1096.44 21.2108C1095.58 20.5084 1095.16 19.5306 1095.16 18.2773C1095.16 17.6024 1095.29 17.0171 1095.57 16.5213C1095.86 16.0255 1096.24 15.5986 1096.7 15.2405C1097.17 14.8824 1097.68 14.5794 1098.21 14.3315C1097.5 13.9184 1096.88 13.4225 1096.37 12.8441C1095.88 12.2519 1095.63 11.5013 1095.63 10.5923C1095.63 9.83487 1095.82 9.20135 1096.21 8.69177C1096.59 8.16843 1097.12 7.76903 1097.78 7.49358C1098.44 7.21814 1099.19 7.08041 1100.03 7.08041ZM1100.01 8.54716C1099.25 8.54716 1098.63 8.73309 1098.13 9.10494C1097.65 9.46302 1097.41 9.98637 1097.41 10.675C1097.41 11.1846 1097.52 11.6115 1097.76 11.9558C1098.01 12.3001 1098.34 12.5962 1098.75 12.8441C1099.16 13.0782 1099.62 13.3055 1100.11 13.5258C1100.83 13.2229 1101.43 12.8579 1101.91 12.4309C1102.41 12.004 1102.65 11.4187 1102.65 10.675C1102.65 9.98637 1102.41 9.46302 1101.93 9.10494C1101.45 8.73309 1100.81 8.54716 1100.01 8.54716ZM1096.93 18.2979C1096.93 19.0141 1097.19 19.6132 1097.7 20.0952C1098.21 20.5635 1098.99 20.7976 1100.05 20.7976C1101.06 20.7976 1101.82 20.5635 1102.34 20.0952C1102.88 19.6132 1103.15 18.9934 1103.15 18.236C1103.15 17.5198 1102.87 16.9276 1102.3 16.4593C1101.74 15.9773 1100.99 15.5573 1100.05 15.1992L1099.72 15.0752C1098.81 15.4608 1098.12 15.9084 1097.63 16.418C1097.17 16.9138 1096.93 17.5405 1096.93 18.2979ZM1108.77 22.0371L1114.83 8.93967H1106.87V7.287H1116.77V8.69177L1110.78 22.0371H1108.77Z" fill="#EBEBEB"/>
<path d="M540.637 22.0371H538.86V11.7286C538.86 11.1364 538.867 10.6612 538.881 10.3031C538.895 9.94505 538.915 9.5732 538.943 9.18757C538.723 9.40793 538.523 9.59386 538.344 9.74535C538.165 9.89685 537.938 10.0897 537.662 10.3238L536.092 11.6046L535.142 10.3858L539.129 7.287H540.637V22.0371ZM547.935 22.0371L553.988 8.93967H546.034V7.287H555.93V8.69177L549.939 22.0371H547.935ZM567.69 22.0371H557.939V20.529L561.802 16.6246C562.546 15.8809 563.172 15.2198 563.682 14.6414C564.192 14.063 564.577 13.4983 564.839 12.9474C565.101 12.3827 565.231 11.7699 565.231 11.1088C565.231 10.2962 564.99 9.68338 564.508 9.27021C564.026 8.84327 563.4 8.6298 562.628 8.6298C561.912 8.6298 561.279 8.75375 560.728 9.00165C560.191 9.24955 559.64 9.59386 559.075 10.0346L558.104 8.81572C558.683 8.33369 559.344 7.92741 560.088 7.59687C560.845 7.25257 561.692 7.08041 562.628 7.08041C564.006 7.08041 565.094 7.43161 565.893 8.13399C566.691 8.82261 567.091 9.77978 567.091 11.0055C567.091 11.7768 566.932 12.4998 566.616 13.1746C566.299 13.8495 565.858 14.5174 565.293 15.1785C564.729 15.8258 564.068 16.5213 563.31 17.265L560.232 20.3018V20.3844H567.69V22.0371ZM576.103 22.0371H574.327V11.7286C574.327 11.1364 574.334 10.6612 574.347 10.3031C574.361 9.94505 574.382 9.5732 574.409 9.18757C574.189 9.40793 573.989 9.59386 573.81 9.74535C573.631 9.89685 573.404 10.0897 573.128 10.3238L571.558 11.6046L570.608 10.3858L574.595 7.287H576.103V22.0371Z" fill="#EBEBEB"/>
<path d="M808.751 22.0371H799V20.529L802.863 16.6246C803.607 15.8809 804.234 15.2198 804.743 14.6414C805.253 14.063 805.638 13.4983 805.9 12.9474C806.162 12.3827 806.293 11.7699 806.293 11.1088C806.293 10.2962 806.051 9.68338 805.569 9.27021C805.087 8.84327 804.461 8.6298 803.69 8.6298C802.973 8.6298 802.34 8.75375 801.789 9.00165C801.252 9.24955 800.701 9.59386 800.136 10.0346L799.165 8.81572C799.744 8.33369 800.405 7.92741 801.149 7.59687C801.906 7.25257 802.753 7.08041 803.69 7.08041C805.067 7.08041 806.155 7.43161 806.954 8.13399C807.752 8.82261 808.152 9.77978 808.152 11.0055C808.152 11.7768 807.993 12.4998 807.677 13.1746C807.36 13.8495 806.919 14.5174 806.354 15.1785C805.79 15.8258 805.129 16.5213 804.371 17.265L801.293 20.3018V20.3844H808.751V22.0371ZM815.718 7.08041C817.013 7.08041 818.073 7.38341 818.9 7.98939C819.726 8.59537 820.139 9.46991 820.139 10.613C820.139 11.2052 820.008 11.7217 819.747 12.1624C819.499 12.6031 819.161 12.9956 818.734 13.3399C818.307 13.6705 817.839 13.9666 817.33 14.2282C817.936 14.5174 818.486 14.848 818.982 15.2198C819.478 15.5779 819.871 15.998 820.16 16.48C820.463 16.962 820.614 17.5405 820.614 18.2153C820.614 19.4548 820.174 20.4395 819.292 21.1695C818.424 21.8856 817.254 22.2437 815.78 22.2437C814.196 22.2437 812.978 21.8994 812.124 21.2108C811.27 20.5084 810.843 19.5306 810.843 18.2773C810.843 17.6024 810.981 17.0171 811.256 16.5213C811.545 16.0255 811.924 15.5986 812.392 15.2405C812.86 14.8824 813.363 14.5794 813.9 14.3315C813.184 13.9184 812.571 13.4225 812.062 12.8441C811.566 12.2519 811.318 11.5013 811.318 10.5923C811.318 9.83487 811.511 9.20135 811.896 8.69177C812.282 8.16843 812.805 7.76903 813.466 7.49358C814.128 7.21814 814.878 7.08041 815.718 7.08041ZM815.698 8.54716C814.94 8.54716 814.313 8.73309 813.818 9.10494C813.336 9.46302 813.095 9.98637 813.095 10.675C813.095 11.1846 813.212 11.6115 813.446 11.9558C813.694 12.3001 814.024 12.5962 814.437 12.8441C814.851 13.0782 815.305 13.3055 815.801 13.5258C816.517 13.2229 817.116 12.8579 817.598 12.4309C818.094 12.004 818.342 11.4187 818.342 10.675C818.342 9.98637 818.101 9.46302 817.619 9.10494C817.137 8.73309 816.496 8.54716 815.698 8.54716ZM812.619 18.2979C812.619 19.0141 812.874 19.6132 813.384 20.0952C813.893 20.5635 814.678 20.7976 815.739 20.7976C816.744 20.7976 817.509 20.5635 818.032 20.0952C818.569 19.6132 818.838 18.9934 818.838 18.236C818.838 17.5198 818.555 16.9276 817.991 16.4593C817.426 15.9773 816.675 15.5573 815.739 15.1992L815.408 15.0752C814.499 15.4608 813.804 15.9084 813.322 16.418C812.854 16.9138 812.619 17.5405 812.619 18.2979ZM831.837 10.737C831.837 11.7286 831.562 12.5205 831.011 13.1127C830.46 13.6911 829.716 14.0767 828.78 14.2695V14.3522C829.964 14.4899 830.846 14.8618 831.424 15.4677C832.003 16.0737 832.292 16.8656 832.292 17.8435C832.292 18.6973 832.092 19.4617 831.693 20.1365C831.293 20.7976 830.674 21.3141 829.833 21.6859C829.007 22.0578 827.94 22.2437 826.631 22.2437C825.86 22.2437 825.144 22.1817 824.483 22.0578C823.822 21.9476 823.188 21.741 822.582 21.438V19.744C823.202 20.047 823.87 20.288 824.586 20.4671C825.302 20.6323 825.991 20.715 826.652 20.715C827.974 20.715 828.924 20.4602 829.503 19.9506C830.095 19.4273 830.391 18.7111 830.391 17.8021C830.391 16.8794 830.026 16.2183 829.296 15.8189C828.58 15.4058 827.568 15.1992 826.26 15.1992H824.834V13.6498H826.28C827.492 13.6498 828.408 13.395 829.028 12.8854C829.661 12.3759 829.978 11.701 829.978 10.8609C829.978 10.1447 829.737 9.59386 829.255 9.20823C828.773 8.80884 828.119 8.60914 827.292 8.60914C826.494 8.60914 825.812 8.7262 825.247 8.96033C824.683 9.19446 824.125 9.49056 823.574 9.84864L822.665 8.60914C823.188 8.19597 823.836 7.83789 824.607 7.5349C825.392 7.23191 826.28 7.08041 827.272 7.08041C828.814 7.08041 829.957 7.42472 830.701 8.11334C831.459 8.80195 831.837 9.67649 831.837 10.737ZM844.217 22.0371H834.466V20.529L838.33 16.6246C839.073 15.8809 839.7 15.2198 840.209 14.6414C840.719 14.063 841.105 13.4983 841.366 12.9474C841.628 12.3827 841.759 11.7699 841.759 11.1088C841.759 10.2962 841.518 9.68338 841.036 9.27021C840.554 8.84327 839.927 8.6298 839.156 8.6298C838.44 8.6298 837.806 8.75375 837.255 9.00165C836.718 9.24955 836.167 9.59386 835.603 10.0346L834.632 8.81572C835.21 8.33369 835.871 7.92741 836.615 7.59687C837.372 7.25257 838.219 7.08041 839.156 7.08041C840.533 7.08041 841.621 7.43161 842.42 8.13399C843.219 8.82261 843.618 9.77978 843.618 11.0055C843.618 11.7768 843.46 12.4998 843.143 13.1746C842.826 13.8495 842.385 14.5174 841.821 15.1785C841.256 15.8258 840.595 16.5213 839.838 17.265L836.759 20.3018V20.3844H844.217V22.0371Z" fill="#EBEBEB"/>
<path d="M16.4889 76.6043C16.4889 78.1881 16.3236 79.5516 15.9931 80.6947C15.6626 81.824 15.1392 82.6916 14.4231 83.2976C13.7069 83.9036 12.7566 84.2066 11.5722 84.2066C9.90575 84.2066 8.67313 83.5386 7.87434 82.2027C7.08932 80.853 6.69681 78.9869 6.69681 76.6043C6.69681 75.0067 6.85519 73.6432 7.17195 72.5139C7.50248 71.3846 8.02583 70.5238 8.74199 69.9316C9.45815 69.3256 10.4015 69.0226 11.5722 69.0226C13.2249 69.0226 14.4575 69.6906 15.27 71.0265C16.0826 72.3487 16.4889 74.2079 16.4889 76.6043ZM8.51475 76.6043C8.51475 78.6288 8.74199 80.1438 9.19647 81.1491C9.66473 82.1545 10.4566 82.6572 11.5722 82.6572C12.674 82.6572 13.459 82.1614 13.9273 81.1698C14.4093 80.1644 14.6503 78.6426 14.6503 76.6043C14.6503 74.5935 14.4093 73.0855 13.9273 72.0801C13.459 71.0747 12.674 70.572 11.5722 70.572C10.4566 70.572 9.66473 71.0747 9.19647 72.0801C8.74199 73.0855 8.51475 74.5935 8.51475 76.6043ZM18.9941 82.8844C18.9941 82.3749 19.118 82.0168 19.3659 81.8102C19.6138 81.6036 19.9099 81.5003 20.2542 81.5003C20.6123 81.5003 20.9153 81.6036 21.1632 81.8102C21.4249 82.0168 21.5557 82.3749 21.5557 82.8844C21.5557 83.3802 21.4249 83.7383 21.1632 83.9587C20.9153 84.179 20.6123 84.2892 20.2542 84.2892C19.9099 84.2892 19.6138 84.179 19.3659 83.9587C19.118 83.7383 18.9941 83.3802 18.9941 82.8844ZM30.3681 84H28.5915V73.6914C28.5915 73.0992 28.5984 72.6241 28.6122 72.266C28.6259 71.9079 28.6466 71.5361 28.6741 71.1505C28.4538 71.3708 28.2541 71.5567 28.075 71.7082C27.896 71.8597 27.6688 72.0525 27.3933 72.2867L25.8233 73.5675L24.873 72.3487L28.8601 69.2499H30.3681V84ZM42.1902 84H40.4136V73.6914C40.4136 73.0992 40.4205 72.6241 40.4343 72.266C40.448 71.9079 40.4687 71.5361 40.4962 71.1505C40.2759 71.3708 40.0762 71.5567 39.8971 71.7082C39.7181 71.8597 39.4909 72.0525 39.2154 72.2867L37.6454 73.5675L36.6951 72.3487L40.6822 69.2499H42.1902V84ZM62.2915 84H54.0488V69.2499H62.2915V70.8819H55.9081V75.4887H61.9197V77.1001H55.9081V82.368H62.2915V84ZM70.1967 84H68.3375V70.8819H63.7307V69.2499H74.7829V70.8819H70.1967V84ZM88.2866 84H86.4273V77.1207H78.8663V84H77.0071V69.2499H78.8663V75.4887H86.4273V69.2499H88.2866V84Z" fill="#EBEBEB"/>
<path d="M155.989 76.6043C155.989 78.1881 155.824 79.5516 155.493 80.6947C155.163 81.824 154.639 82.6916 153.923 83.2976C153.207 83.9036 152.257 84.2066 151.072 84.2066C149.406 84.2066 148.173 83.5386 147.374 82.2027C146.589 80.853 146.197 78.9869 146.197 76.6043C146.197 75.0067 146.355 73.6432 146.672 72.5139C147.002 71.3846 147.526 70.5238 148.242 69.9316C148.958 69.3256 149.902 69.0226 151.072 69.0226C152.725 69.0226 153.957 69.6906 154.77 71.0265C155.583 72.3487 155.989 74.2079 155.989 76.6043ZM148.015 76.6043C148.015 78.6288 148.242 80.1438 148.696 81.1491C149.165 82.1545 149.957 82.6572 151.072 82.6572C152.174 82.6572 152.959 82.1614 153.427 81.1698C153.909 80.1644 154.15 78.6426 154.15 76.6043C154.15 74.5935 153.909 73.0855 153.427 72.0801C152.959 71.0747 152.174 70.572 151.072 70.572C149.957 70.572 149.165 71.0747 148.696 72.0801C148.242 73.0855 148.015 74.5935 148.015 76.6043ZM158.494 82.8844C158.494 82.3749 158.618 82.0168 158.866 81.8102C159.114 81.6036 159.41 81.5003 159.754 81.5003C160.112 81.5003 160.415 81.6036 160.663 81.8102C160.925 82.0168 161.056 82.3749 161.056 82.8844C161.056 83.3802 160.925 83.7383 160.663 83.9587C160.415 84.179 160.112 84.2892 159.754 84.2892C159.41 84.2892 159.114 84.179 158.866 83.9587C158.618 83.7383 158.494 83.3802 158.494 82.8844ZM172.719 72.6998C172.719 73.6914 172.444 74.4834 171.893 75.0756C171.342 75.654 170.598 76.0396 169.662 76.2324V76.3151C170.846 76.4528 171.727 76.8246 172.306 77.4306C172.884 78.0366 173.173 78.8285 173.173 79.8063C173.173 80.6602 172.974 81.4246 172.574 82.0994C172.175 82.7605 171.555 83.277 170.715 83.6488C169.889 84.0207 168.821 84.2066 167.513 84.2066C166.742 84.2066 166.026 84.1446 165.365 84.0207C164.704 83.9105 164.07 83.7039 163.464 83.4009V81.7069C164.084 82.0099 164.752 82.2509 165.468 82.43C166.184 82.5952 166.873 82.6779 167.534 82.6779C168.856 82.6779 169.806 82.4231 170.385 81.9135C170.977 81.3902 171.273 80.674 171.273 79.765C171.273 78.8423 170.908 78.1812 170.178 77.7818C169.462 77.3686 168.45 77.1621 167.141 77.1621H165.716V75.6127H167.162C168.374 75.6127 169.29 75.3579 169.909 74.8483C170.543 74.3387 170.86 73.6639 170.86 72.8238C170.86 72.1076 170.619 71.5567 170.137 71.1711C169.655 70.7717 169 70.572 168.174 70.572C167.375 70.572 166.694 70.6891 166.129 70.9232C165.564 71.1574 165.007 71.4535 164.456 71.8115L163.547 70.572C164.07 70.1589 164.717 69.8008 165.489 69.4978C166.274 69.1948 167.162 69.0433 168.153 69.0433C169.696 69.0433 170.839 69.3876 171.583 70.0762C172.34 70.7648 172.719 71.6394 172.719 72.6998ZM184.541 72.6998C184.541 73.6914 184.266 74.4834 183.715 75.0756C183.164 75.654 182.42 76.0396 181.484 76.2324V76.3151C182.668 76.4528 183.549 76.8246 184.128 77.4306C184.706 78.0366 184.996 78.8285 184.996 79.8063C184.996 80.6602 184.796 81.4246 184.396 82.0994C183.997 82.7605 183.377 83.277 182.537 83.6488C181.711 84.0207 180.644 84.2066 179.335 84.2066C178.564 84.2066 177.848 84.1446 177.187 84.0207C176.526 83.9105 175.892 83.7039 175.286 83.4009V81.7069C175.906 82.0099 176.574 82.2509 177.29 82.43C178.006 82.5952 178.695 82.6779 179.356 82.6779C180.678 82.6779 181.628 82.4231 182.207 81.9135C182.799 81.3902 183.095 80.674 183.095 79.765C183.095 78.8423 182.73 78.1812 182 77.7818C181.284 77.3686 180.272 77.1621 178.963 77.1621H177.538V75.6127H178.984C180.196 75.6127 181.112 75.3579 181.732 74.8483C182.365 74.3387 182.682 73.6639 182.682 72.8238C182.682 72.1076 182.441 71.5567 181.959 71.1711C181.477 70.7717 180.823 70.572 179.996 70.572C179.197 70.572 178.516 70.6891 177.951 70.9232C177.386 71.1574 176.829 71.4535 176.278 71.8115L175.369 70.572C175.892 70.1589 176.539 69.8008 177.311 69.4978C178.096 69.1948 178.984 69.0433 179.976 69.0433C181.518 69.0433 182.661 69.3876 183.405 70.0762C184.162 70.7648 184.541 71.6394 184.541 72.6998ZM201.792 84H193.549V69.2499H201.792V70.8819H195.408V75.4887H201.42V77.1001H195.408V82.368H201.792V84ZM209.697 84H207.837V70.8819H203.231V69.2499H214.283V70.8819H209.697V84ZM227.787 84H225.927V77.1207H218.366V84H216.507V69.2499H218.366V75.4887H225.927V69.2499H227.787V84Z" fill="#EBEBEB"/>
<path d="M379.82 76.9572C379.82 78.541 379.655 79.9045 379.324 81.0476C378.994 82.1769 378.47 83.0445 377.754 83.6505C377.038 84.2565 376.088 84.5595 374.903 84.5595C373.237 84.5595 372.004 83.8915 371.205 82.5556C370.42 81.2059 370.028 79.3398 370.028 76.9572C370.028 75.3596 370.186 73.9962 370.503 72.8668C370.834 71.7375 371.357 70.8767 372.073 70.2845C372.789 69.6785 373.733 69.3756 374.903 69.3756C376.556 69.3756 377.789 70.0435 378.601 71.3794C379.414 72.7016 379.82 74.5608 379.82 76.9572ZM371.846 76.9572C371.846 78.9817 372.073 80.4967 372.528 81.502C372.996 82.5074 373.788 83.0101 374.903 83.0101C376.005 83.0101 376.79 82.5143 377.258 81.5227C377.74 80.5173 377.981 78.9955 377.981 76.9572C377.981 74.9464 377.74 73.4384 377.258 72.433C376.79 71.4276 376.005 70.9249 374.903 70.9249C373.788 70.9249 372.996 71.4276 372.528 72.433C372.073 73.4384 371.846 74.9464 371.846 76.9572ZM382.325 83.2374C382.325 82.7278 382.449 82.3697 382.697 82.1631C382.945 81.9565 383.241 81.8532 383.585 81.8532C383.943 81.8532 384.246 81.9565 384.494 82.1631C384.756 82.3697 384.887 82.7278 384.887 83.2374C384.887 83.7332 384.756 84.0912 384.494 84.3116C384.246 84.5319 383.943 84.6421 383.585 84.6421C383.241 84.6421 382.945 84.5319 382.697 84.3116C382.449 84.0912 382.325 83.7332 382.325 83.2374ZM387.502 78.0521C387.502 76.9916 387.591 75.9518 387.77 74.9327C387.963 73.8997 388.301 72.9701 388.783 72.1438C389.278 71.3037 389.967 70.6357 390.848 70.1399C391.73 69.6441 392.866 69.3962 394.257 69.3962C394.546 69.3962 394.863 69.41 395.207 69.4375C395.565 69.4651 395.855 69.5133 396.075 69.5821V71.1315C395.827 71.0489 395.545 70.9869 395.228 70.9456C394.925 70.9043 394.615 70.8836 394.298 70.8836C393.348 70.8836 392.556 71.042 391.923 71.3588C391.289 71.6755 390.786 72.1093 390.415 72.6602C390.057 73.2111 389.795 73.8447 389.63 74.5608C389.464 75.277 389.361 76.0413 389.32 76.8539H389.444C389.76 76.3719 390.201 75.9656 390.766 75.6351C391.33 75.2907 392.053 75.1186 392.935 75.1186C394.216 75.1186 395.249 75.5111 396.034 76.2961C396.819 77.0674 397.211 78.1692 397.211 79.6015C397.211 81.144 396.784 82.3559 395.93 83.2374C395.09 84.1188 393.954 84.5595 392.522 84.5595C391.585 84.5595 390.738 84.3254 389.981 83.8571C389.223 83.3888 388.617 82.6727 388.163 81.7086C387.722 80.7446 387.502 79.5257 387.502 78.0521ZM392.501 83.0308C393.369 83.0308 394.071 82.7553 394.608 82.2044C395.145 81.6398 395.414 80.7721 395.414 79.6015C395.414 78.665 395.173 77.9213 394.691 77.3704C394.223 76.8195 393.513 76.544 392.563 76.544C391.916 76.544 391.351 76.6817 390.869 76.9572C390.387 77.2189 390.008 77.5563 389.733 77.9695C389.471 78.3826 389.34 78.8096 389.34 79.2503C389.34 79.8425 389.457 80.4347 389.692 81.0269C389.926 81.6053 390.277 82.0874 390.745 82.473C391.213 82.8448 391.799 83.0308 392.501 83.0308ZM399.324 78.0521C399.324 76.9916 399.413 75.9518 399.592 74.9327C399.785 73.8997 400.123 72.9701 400.605 72.1438C401.1 71.3037 401.789 70.6357 402.671 70.1399C403.552 69.6441 404.688 69.3962 406.079 69.3962C406.368 69.3962 406.685 69.41 407.029 69.4375C407.388 69.4651 407.677 69.5133 407.897 69.5821V71.1315C407.649 71.0489 407.367 70.9869 407.05 70.9456C406.747 70.9043 406.437 70.8836 406.12 70.8836C405.17 70.8836 404.378 71.042 403.745 71.3588C403.111 71.6755 402.609 72.1093 402.237 72.6602C401.879 73.2111 401.617 73.8447 401.452 74.5608C401.286 75.277 401.183 76.0413 401.142 76.8539H401.266C401.583 76.3719 402.023 75.9656 402.588 75.6351C403.153 75.2907 403.876 75.1186 404.757 75.1186C406.038 75.1186 407.071 75.5111 407.856 76.2961C408.641 77.0674 409.033 78.1692 409.033 79.6015C409.033 81.144 408.606 82.3559 407.752 83.2374C406.912 84.1188 405.776 84.5595 404.344 84.5595C403.407 84.5595 402.56 84.3254 401.803 83.8571C401.045 83.3888 400.439 82.6727 399.985 81.7086C399.544 80.7446 399.324 79.5257 399.324 78.0521ZM404.323 83.0308C405.191 83.0308 405.893 82.7553 406.43 82.2044C406.967 81.6398 407.236 80.7721 407.236 79.6015C407.236 78.665 406.995 77.9213 406.513 77.3704C406.045 76.8195 405.335 76.544 404.385 76.544C403.738 76.544 403.173 76.6817 402.691 76.9572C402.209 77.2189 401.83 77.5563 401.555 77.9695C401.293 78.3826 401.162 78.8096 401.162 79.2503C401.162 79.8425 401.28 80.4347 401.514 81.0269C401.748 81.6053 402.099 82.0874 402.567 82.473C403.035 82.8448 403.621 83.0308 404.323 83.0308ZM425.623 84.3529H417.38V69.6028H425.623V71.2348H419.239V75.8416H425.251V77.453H419.239V82.7209H425.623V84.3529ZM433.528 84.3529H431.669V71.2348H427.062V69.6028H438.114V71.2348H433.528V84.3529ZM451.618 84.3529H449.758V77.4737H442.198V84.3529H440.338V69.6028H442.198V75.8416H449.758V69.6028H451.618V84.3529Z" fill="#EBEBEB"/>
<path d="M651.099 84.3529H649.323V74.0444C649.323 73.4521 649.329 72.977 649.343 72.6189C649.357 72.2608 649.378 71.889 649.405 71.5034C649.185 71.7237 648.985 71.9097 648.806 72.0611C648.627 72.2126 648.4 72.4055 648.124 72.6396L646.554 73.9204L645.604 72.7016L649.591 69.6028H651.099V84.3529ZM671.2 84.3529H662.958V69.6028H671.2V71.2348H664.817V75.8416H670.829V77.453H664.817V82.7209H671.2V84.3529ZM679.106 84.3529H677.246V71.2348H672.64V69.6028H683.692V71.2348H679.106V84.3529ZM697.195 84.3529H695.336V77.4737H687.775V84.3529H685.916V69.6028H687.775V75.8416H695.336V69.6028H697.195V84.3529Z" fill="#EBEBEB"/>
<path d="M938.455 72.6998C938.455 73.6914 938.18 74.4834 937.629 75.0756C937.078 75.654 936.334 76.0396 935.398 76.2324V76.3151C936.582 76.4528 937.464 76.8246 938.042 77.4306C938.62 78.0366 938.91 78.8285 938.91 79.8063C938.91 80.6602 938.71 81.4246 938.311 82.0994C937.911 82.7605 937.291 83.277 936.451 83.6488C935.625 84.0207 934.558 84.2066 933.249 84.2066C932.478 84.2066 931.762 84.1446 931.101 84.0207C930.44 83.9105 929.806 83.7039 929.2 83.4009V81.7069C929.82 82.0099 930.488 82.2509 931.204 82.43C931.92 82.5952 932.609 82.6779 933.27 82.6779C934.592 82.6779 935.542 82.4231 936.121 81.9135C936.713 81.3902 937.009 80.674 937.009 79.765C937.009 78.8423 936.644 78.1812 935.914 77.7818C935.198 77.3686 934.186 77.1621 932.877 77.1621H931.452V75.6127H932.898C934.11 75.6127 935.026 75.3579 935.646 74.8483C936.279 74.3387 936.596 73.6639 936.596 72.8238C936.596 72.1076 936.355 71.5567 935.873 71.1711C935.391 70.7717 934.737 70.572 933.91 70.572C933.111 70.572 932.43 70.6891 931.865 70.9232C931.3 71.1574 930.743 71.4535 930.192 71.8115L929.283 70.572C929.806 70.1589 930.453 69.8008 931.225 69.4978C932.01 69.1948 932.898 69.0433 933.89 69.0433C935.432 69.0433 936.575 69.3876 937.319 70.0762C938.076 70.7648 938.455 71.6394 938.455 72.6998ZM955.706 84H947.463V69.2499H955.706V70.8819H949.322V75.4887H955.334V77.1001H949.322V82.368H955.706V84ZM963.611 84H961.752V70.8819H957.145V69.2499H968.197V70.8819H963.611V84ZM981.701 84H979.841V77.1207H972.28V84H970.421V69.2499H972.28V75.4887H979.841V69.2499H981.701V84Z" fill="#EBEBEB"/>
<path d="M1153.69 84H1151.92V73.6914C1151.92 73.0992 1151.92 72.6241 1151.94 72.266C1151.95 71.9079 1151.97 71.5361 1152 71.1505C1151.78 71.3708 1151.58 71.5567 1151.4 71.7082C1151.22 71.8597 1150.99 72.0525 1150.72 72.2867L1149.15 73.5675L1148.2 72.3487L1152.19 69.2499H1153.69V84ZM1165.52 84H1163.74V73.6914C1163.74 73.0992 1163.75 72.6241 1163.76 72.266C1163.77 71.9079 1163.79 71.5361 1163.82 71.1505C1163.6 71.3708 1163.4 71.5567 1163.22 71.7082C1163.04 71.8597 1162.82 72.0525 1162.54 72.2867L1160.97 73.5675L1160.02 72.3487L1164.01 69.2499H1165.52V84ZM1185.62 84H1177.37V69.2499H1185.62V70.8819H1179.23V75.4887H1185.24V77.1001H1179.23V82.368H1185.62V84ZM1193.52 84H1191.66V70.8819H1187.06V69.2499H1198.11V70.8819H1193.52V84ZM1211.61 84H1209.75V77.1207H1202.19V84H1200.33V69.2499H1202.19V75.4887H1209.75V69.2499H1211.61V84Z" fill="#EBEBEB"/>
<path d="M1286.2 86H1284.23V74.5461C1284.23 73.888 1284.24 73.3601 1284.25 72.9622C1284.27 72.5644 1284.29 72.1512 1284.32 71.7227C1284.08 71.9676 1283.85 72.1742 1283.65 72.3425C1283.46 72.5108 1283.2 72.7251 1282.9 72.9852L1281.15 74.4083L1280.1 73.0541L1284.53 69.611H1286.2V86ZM1299.34 86H1297.36V74.5461C1297.36 73.888 1297.37 73.3601 1297.39 72.9622C1297.4 72.5644 1297.43 72.1512 1297.46 71.7227C1297.21 71.9676 1296.99 72.1742 1296.79 72.3425C1296.59 72.5108 1296.34 72.7251 1296.03 72.9852L1294.29 74.4083L1293.23 73.0541L1297.66 69.611H1299.34V86ZM1312.47 86H1310.5V74.5461C1310.5 73.888 1310.51 73.3601 1310.52 72.9622C1310.54 72.5644 1310.56 72.1512 1310.59 71.7227C1310.35 71.9676 1310.12 72.1742 1309.93 72.3425C1309.73 72.5108 1309.47 72.7251 1309.17 72.9852L1307.42 74.4083L1306.37 73.0541L1310.8 69.611H1312.47V86ZM1334.81 86H1325.65V69.611H1334.81V71.4243H1327.72V76.543H1334.4V78.3334H1327.72V84.1867H1334.81V86ZM1343.59 86H1341.53V71.4243H1336.41V69.611H1348.69V71.4243H1343.59V86ZM1363.69 86H1361.63V78.3564H1353.22V86H1351.16V69.611H1353.22V76.543H1361.63V69.611H1363.69V86Z" fill="#EBEBEB"/>
<rect y="40.8999" width="96.0205" height="11.2373" fill="#EBEBEB"/>
<rect x="1271.62" y="40.8999" width="96.0205" height="11.2373" fill="#EBEBEB"/>
<rect x="102.508" y="40.8999" width="169.982" height="11.2373" fill="#EBEBEB"/>
<rect x="1095.15" y="40.8999" width="169.982" height="11.2373" fill="#EBEBEB"/>
<rect x="278.979" y="40.8999" width="266.003" height="11.2373" fill="#EBEBEB"/>
<rect x="551.469" y="40.8999" width="264.705" height="11.2373" fill="#EBEBEB"/>
<rect x="822.662" y="40.8999" width="266.003" height="11.2373" fill="#EBEBEB"/>
</svg>
